<svg width="391" height="407" viewBox="0 0 391 407" fill="none" xmlns="http://www.w3.org/2000/svg">
<g clip-path="url(#clip0_354_1224)">
<path d="M5.33081 400.473C5.3326 400.609 5.35396 400.745 5.39366 400.87C5.43336 400.995 5.49062 401.109 5.56217 401.204C5.63372 401.299 5.71815 401.373 5.81063 401.423C5.9031 401.473 6.00181 401.497 6.1011 401.495H390.227C390.327 401.5 390.427 401.478 390.52 401.43C390.614 401.381 390.699 401.307 390.771 401.211C390.844 401.116 390.901 401.001 390.94 400.874C390.98 400.747 391 400.611 391 400.473C391 400.335 390.98 400.199 390.94 400.072C390.901 399.945 390.844 399.83 390.771 399.735C390.699 399.639 390.614 399.565 390.52 399.516C390.427 399.468 390.327 399.446 390.227 399.451H6.1011C6.00185 399.449 5.90318 399.473 5.81073 399.523C5.71828 399.573 5.63387 399.647 5.56233 399.742C5.49078 399.837 5.43351 399.95 5.39378 400.075C5.35406 400.201 5.33266 400.336 5.33081 400.473Z" fill="#89939E"/>
<path d="M201.076 299.652C200.575 303.832 199.013 307.631 196.669 310.372C194.325 313.113 191.351 314.617 188.277 314.617C185.203 314.617 182.228 313.113 179.884 310.372C177.54 307.631 175.978 303.832 175.477 299.652H142.729V397.466H233.824V299.652H201.076Z" fill="#717171"/>
<path d="M153.322 397.103H144.319V399.293H153.322V397.103Z" fill="#ABBED1"/>
<path d="M233.029 397.468H224.026V399.658H233.029V397.468Z" fill="#ABBED1"/>
<path d="M234.09 389.719H142.995V393.123H234.09V389.719Z" fill="black"/>
<path d="M371.478 302.207H5.07583C3.72943 302.205 2.4386 301.467 1.48655 300.155C0.5345 298.842 -0.00103501 297.063 -0.00256348 295.207L-0.00256348 7.00012C-0.00115257 5.14428 0.53433 3.36499 1.4864 2.05265C2.43846 0.740314 3.72935 0.00210697 5.07583 0H371.478C372.824 0.00210668 374.115 0.740229 375.067 2.05243C376.019 3.36464 376.555 5.14377 376.556 6.99951V295.207C376.554 297.063 376.019 298.842 375.067 300.154C374.115 301.467 372.824 302.205 371.478 302.207Z" fill="black"/>
<path d="M367.552 11.6797H9.00012V290.528H367.552V11.6797Z" fill="white"/>
<path d="M188.613 150.525L150.169 110.837L112.25 149.983L111.381 148.387L150.169 108.345L188.43 147.844L226.451 90.4962L226.604 90.4105L264.957 69.1125L265.498 70.9628L227.298 92.1763L188.613 150.525Z" fill="#717171"/>
<path d="M304.157 223.989H72.9274C72.7355 223.989 72.5514 223.884 72.4157 223.697C72.28 223.51 72.2037 223.256 72.2037 222.992V70.2386C72.2037 69.9741 72.28 69.7204 72.4157 69.5334C72.5514 69.3463 72.7355 69.2412 72.9274 69.2412C73.1193 69.2412 73.3034 69.3463 73.4391 69.5334C73.5748 69.7204 73.651 69.9741 73.651 70.2386V221.994H304.157C304.348 221.994 304.532 222.099 304.668 222.286C304.804 222.473 304.88 222.727 304.88 222.992C304.88 223.256 304.804 223.51 304.668 223.697C304.532 223.884 304.348 223.989 304.157 223.989Z" fill="#ABBED1"/>
<path d="M122.332 213.018H101.3C100.731 213.017 100.185 212.705 99.7819 212.15C99.3791 211.595 99.1526 210.842 99.1519 210.057V170.098C99.1526 169.313 99.3791 168.56 99.7819 168.005C100.185 167.451 100.731 167.138 101.3 167.138H122.331C122.901 167.138 123.447 167.451 123.849 168.005C124.252 168.56 124.479 169.313 124.479 170.098V210.058C124.479 210.843 124.252 211.595 123.849 212.15C123.447 212.705 122.901 213.017 122.332 213.018Z" fill="#25A38B"/>
<path d="M160.685 213.017H139.653C139.084 213.016 138.538 212.704 138.135 212.149C137.732 211.594 137.506 210.842 137.505 210.057V132.197C137.506 131.412 137.732 130.66 138.135 130.105C138.538 129.55 139.084 129.238 139.653 129.237H160.684C161.254 129.238 161.8 129.55 162.203 130.105C162.605 130.66 162.832 131.412 162.833 132.197V210.057C162.832 210.842 162.605 211.594 162.203 212.149C161.8 212.704 161.254 213.016 160.684 213.017H160.685Z" fill="#25A38B"/>
<path d="M199.038 213.018H178.006C177.437 213.017 176.891 212.705 176.488 212.15C176.085 211.595 175.858 210.842 175.858 210.057V170.098C175.858 169.313 176.085 168.56 176.488 168.005C176.891 167.451 177.437 167.138 178.006 167.138H199.037C199.607 167.138 200.153 167.451 200.555 168.005C200.958 168.56 201.185 169.313 201.185 170.098V210.058C201.185 210.843 200.958 211.595 200.555 212.15C200.153 212.705 199.607 213.017 199.038 213.018Z" fill="#25A38B"/>
<path d="M237.39 213.018H216.359C215.802 213.034 215.264 212.746 214.861 212.216C214.458 211.687 214.224 210.958 214.21 210.191V117.103C214.224 116.336 214.458 115.607 214.861 115.077C215.263 114.547 215.802 114.259 216.359 114.276H237.39C237.946 114.259 238.485 114.547 238.888 115.077C239.29 115.607 239.524 116.335 239.538 117.102V210.191C239.524 210.958 239.29 211.686 238.888 212.216C238.485 212.746 237.947 213.034 237.39 213.018Z" fill="#25A38B"/>
<path d="M275.743 213.018H254.712C254.142 213.017 253.596 212.705 253.194 212.15C252.791 211.595 252.564 210.842 252.564 210.057V90.307C252.564 89.5221 252.791 88.7696 253.194 88.2146C253.596 87.6596 254.142 87.3475 254.712 87.3467H275.743C276.312 87.3475 276.858 87.6596 277.261 88.2146C277.664 88.7696 277.89 89.5221 277.891 90.307V210.057C277.89 210.842 277.664 211.595 277.261 212.15C276.858 212.705 276.313 213.017 275.743 213.018Z" fill="#25A38B"/>
<path d="M111.725 154.883C114.18 154.883 116.17 152.311 116.17 149.139C116.17 145.967 114.18 143.396 111.725 143.396C109.27 143.396 107.279 145.967 107.279 149.139C107.279 152.311 109.27 154.883 111.725 154.883Z" fill="#ABBED1"/>
<path d="M150.065 116.591C152.52 116.591 154.51 113.848 154.51 110.464C154.51 107.081 152.52 104.337 150.065 104.337C147.61 104.337 145.619 107.081 145.619 110.464C145.619 113.848 147.61 116.591 150.065 116.591Z" fill="#ABBED1"/>
<path d="M188.404 154.883C190.86 154.883 192.85 152.311 192.85 149.139C192.85 145.967 190.86 143.396 188.404 143.396C185.949 143.396 183.959 145.967 183.959 149.139C183.959 152.311 185.949 154.883 188.404 154.883Z" fill="#ABBED1"/>
<path d="M226.744 97.445C229.199 97.445 231.19 94.7018 231.19 91.3179C231.19 87.9341 229.199 85.1909 226.744 85.1909C224.289 85.1909 222.299 87.9341 222.299 91.3179C222.299 94.7018 224.289 97.445 226.744 97.445Z" fill="#ABBED1"/>
<path d="M265.084 76.0038C267.539 76.0038 269.53 73.2601 269.53 69.8756C269.53 66.491 267.539 63.7473 265.084 63.7473C262.629 63.7473 260.639 66.491 260.639 69.8756C260.639 73.2601 262.629 76.0038 265.084 76.0038Z" fill="#ABBED1"/>
<path d="M304.106 176.228C304.106 176.228 297.522 174.663 287.759 162.458C280.034 152.805 269.615 154.703 265.597 155.92C265.46 155.961 265.335 156.058 265.24 156.2C265.144 156.341 265.082 156.519 265.062 156.71C265.043 156.902 265.066 157.097 265.129 157.269C265.192 157.442 265.291 157.584 265.415 157.676C267.038 158.9 269.556 160.689 270.736 160.893C270.736 160.893 268.302 164.363 270.888 166.22C271.198 166.43 271.544 166.516 271.887 166.471C272.231 166.425 272.558 166.249 272.833 165.962C274.077 164.71 277.532 167.553 282.542 169.03C282.542 169.03 302.068 196.881 306.609 192.159L304.106 176.228Z" fill="#4D4D4D"/>
<path d="M337.724 138.363C337.724 138.363 339.541 149.002 337.724 156.513L345.898 158.077L353.163 153.07V146.499C353.163 146.499 349.757 136.485 350.666 124.907L337.724 138.363Z" fill="#4D4D4D"/>
<path d="M360.868 368.982C360.868 368.982 366.791 384.942 365.863 395.582C364.935 406.222 373.582 396.833 372.674 390.574C372.482 398.151 375.216 364.043 376.494 356.056C376.633 355.193 376.534 354.29 376.217 353.522C375.899 352.754 375.386 352.176 374.777 351.9C372.047 350.662 367.477 349.144 365.182 351.464C361.791 354.9 360.868 368.982 360.868 368.982Z" fill="black"/>
<path d="M338.405 386.506C338.405 386.506 330.686 400.275 328.643 400.588C326.6 400.902 325.237 405.283 328.643 406.221C335.443 407.853 342.436 406.912 348.879 403.5C349.524 403.154 350.066 402.519 350.418 401.697C350.769 400.875 350.911 399.915 350.819 398.969L349.516 385.567L338.405 386.506Z" fill="black"/>
<path d="M325.69 240.372L318.287 241.732C319.303 253.65 319.273 265.694 318.198 277.603V320.463C318.198 320.463 318.055 324.238 323.741 329.728C329.703 335.441 335.45 341.572 340.957 348.096L361.559 372.697C361.559 372.697 369.732 358.927 368.597 350.791C368.597 350.791 354.974 344.846 353.158 335.145C352.117 329.593 346.835 324.941 342.512 322.015C339.793 320.196 337.608 317.15 336.32 313.382C335.031 309.615 334.717 305.354 335.428 301.306C335.681 299.899 336.071 298.546 336.588 297.285C340.221 288.523 345.443 268.808 345.443 268.808L335.453 242.562L325.69 240.372Z" fill="black"/>
<path d="M336.59 387.465C336.59 387.465 349.985 390.594 350.439 392.472C350.893 394.35 350.439 389.968 350.439 389.968C350.439 389.968 358.161 357.737 356.362 329.266C354.563 300.796 358.632 282.013 358.632 282.013C358.632 282.013 363.4 260.733 360.676 248.529C357.951 236.325 329.344 241.645 329.344 241.645C329.344 241.645 339.334 273.877 339.107 289.211C339.107 289.211 340.242 335.525 342.285 340.845C342.265 340.818 339.087 386.194 336.59 387.465Z" fill="black"/>
<path d="M338.163 146.499C338.163 146.499 339.526 158.064 353.148 153.071L344.086 248.196C344.086 248.196 317.749 249.447 317.976 245.067L323.405 187.493L338.163 146.499Z" fill="white"/>
<path d="M338.519 146.186C336.49 148.373 334.064 149.75 331.505 150.165C329.245 150.404 327.048 151.304 325.059 152.805C322.725 154.607 320.123 157.227 319.334 160.417C317.744 166.676 307.754 177.003 303.214 174.812L304.803 193.588C304.803 193.588 317.745 192.65 320.015 185.765L316.16 252.764H319.565C319.565 252.764 321.382 234.614 322.744 230.859C324.106 227.104 326.831 206.45 327.058 201.443C327.285 196.436 330.691 167.645 333.642 162.666L338.524 148.115L338.519 146.186Z" fill="#717171"/>
<path opacity="0.1" d="M350.098 134.138C349.802 131.172 350.394 129.321 350.666 125.845L337.724 139.301C337.724 139.301 338.035 141.118 338.272 143.777C338.925 143.923 339.585 143.996 340.246 143.995C344.738 143.995 347.971 139.158 350.098 134.138Z" fill="black"/>
<path d="M340.222 143.064C346.993 143.064 352.483 135.498 352.483 126.165C352.483 116.832 346.993 109.266 340.222 109.266C333.451 109.266 327.961 116.832 327.961 126.165C327.961 135.498 333.451 143.064 340.222 143.064Z" fill="#4D4D4D"/>
<path d="M327.9 111.775C327.827 109.146 328.137 106.523 328.811 104.061C328.624 104.448 328.545 104.916 328.588 105.377C328.632 105.838 328.795 106.262 329.047 106.571C329.412 103.887 330.412 101.445 331.891 99.6266C331.084 99.8103 330.67 101.184 330.869 102.276C331.141 103.344 331.626 104.284 332.267 104.989C332.199 103.336 332.992 101.793 333.994 100.887C335.038 100.06 336.179 99.4906 337.365 99.2041C336.958 99.4031 336.611 99.782 336.377 100.282C336.143 100.781 336.035 101.374 336.071 101.967C336.075 102.168 336.135 102.36 336.239 102.501C336.353 102.601 336.487 102.65 336.622 102.639C337.803 102.702 338.985 102.666 340.162 102.532C341.609 102.308 343.065 102.201 344.522 102.212C349.077 102.476 353.656 106.764 354.676 112.887C354.888 114.372 354.999 115.881 355.009 117.395L355.231 125.124C355.361 127.379 355.293 129.647 355.031 131.88C354.715 133.941 354.073 135.881 353.151 137.561C352.229 139.241 351.049 140.62 349.696 141.6C348.052 138.316 347.906 134.096 347.336 130.185C347.246 129.282 347.003 128.422 346.625 127.674C346.431 127.304 346.157 127.027 345.843 126.881C345.529 126.735 345.189 126.727 344.872 126.858C344.256 127.197 343.993 128.49 344.503 129.068C344.047 129.809 343.195 129.257 342.681 128.597C341.244 126.718 340.254 124.281 339.843 121.609C339.638 120.265 339.433 118.609 338.476 118.149C338.147 118.024 337.803 117.992 337.465 118.055C335.47 118.243 332.349 119.38 330.417 118.507C328.645 117.703 327.9 114.093 327.9 111.775Z" fill="black"/>
<path d="M303.12 174.819C303.12 174.819 301.303 186.384 304.709 193.595L306.639 193.377L305.587 175.009L303.12 174.819Z" fill="#717171"/>
<path d="M352.369 143.24L367.014 160.608C367.014 160.608 375.641 172.813 372.008 192.528C372.008 192.528 370.419 221.318 368.602 222.57C368.602 222.57 362.245 240.094 361.791 256.68C361.791 256.68 352.822 231.801 348.958 246.196C345.094 260.591 336.584 263.883 336.584 263.883L341.579 178.771C341.579 178.771 354.185 148.532 352.369 143.24Z" fill="#717171"/>
<path d="M359.066 216.596C359.066 216.596 362.699 213.154 368.602 222.542L354.072 258.843L349.19 248.686C349.19 248.686 359.523 220.664 359.066 216.596Z" fill="#4D4D4D"/>
<path d="M355.547 218.005C355.547 218.005 363.583 230.441 366.717 228.447L369.619 219.134L358.726 212.685L355.547 218.005Z" fill="#717171"/>
<path opacity="0.1" d="M356.683 179.826C356.683 179.826 357.137 202.358 355.32 210.807L356.683 179.826Z" fill="black"/>
<path opacity="0.1" d="M319.901 184.207C319.901 184.207 322.625 182.956 322.625 179.826L319.901 184.207Z" fill="black"/>
</g>
<defs>
<clipPath id="clip0_354_1224">
<rect width="391.003" height="407.001" fill="white" transform="translate(-0.00256348)"/>
</clipPath>
</defs>
</svg>
