<svg width="396" height="410" viewBox="0 0 396 410" fill="none" xmlns="http://www.w3.org/2000/svg">
<g clip-path="url(#clip0_357_956)">
<path d="M349.708 399.693L343.082 399.692L339.931 361.889L349.708 361.89L349.708 399.693Z" fill="#4D4D4D"/>
<path d="M351.397 409.193L330.035 409.192V408.792C330.035 405.53 330.911 402.402 332.47 400.095C334.03 397.788 336.144 396.492 338.35 396.492H338.35L351.397 396.493L351.397 409.193Z" fill="#2194F3"/>
<path d="M378.947 375.598L374.647 383.053L353.162 362.062L359.509 351.059L378.947 375.598Z" fill="#4D4D4D"/>
<path d="M384.929 379.863L371.063 403.902L370.857 403.643C369.18 401.525 368.14 398.509 367.966 395.257C367.792 392.005 368.498 388.784 369.929 386.302L369.93 386.301L378.399 371.619L384.929 379.863Z" fill="#2194F3"/>
<path d="M302.667 213.783L300.604 241.919L383.97 240.16L347.614 152.524L317.93 150.947L302.667 213.783Z" fill="#2194F3"/>
<path opacity="0.28" d="M302.667 213.783L300.604 241.919L383.97 240.16L347.614 152.524L317.93 150.947L302.667 213.783Z" fill="black"/>
<path d="M319.06 218.613L316.117 244.357V267.369L339.846 278.828C339.846 278.828 337.068 368.209 340.771 373.902L340.68 387.645L351.032 388.341L351.117 378.669L355.505 306.376L358.09 253.298L353.899 213.056L319.06 218.613Z" fill="#2194F3"/>
<path d="M337.444 240.774L316.117 267.369C316.117 267.369 314.869 315.352 318.038 320.979C320.761 325.812 356.17 367.501 356.17 367.501C356.17 367.501 362.463 376.04 365.99 376.176C369.516 376.313 373.618 365.37 373.618 365.37L365.45 356.189C365.45 356.189 344.291 326.97 338.008 315.352C335.472 310.663 335.472 310.194 335.472 310.194L336.338 290.693L345.055 254.502L337.444 240.774Z" fill="#2194F3"/>
<path d="M314.801 113.383L305.606 112.126L297.265 114.182L279.604 114.191L278.099 133.127L294.216 138.463L298.144 135.615L314.516 144.843L314.801 113.383Z" fill="#2194F3"/>
<path d="M325.784 113.324C325.784 113.324 345.299 110.619 349.736 115.777C354.174 120.935 363.683 223.161 363.683 223.161L325.784 226.326L318.989 219.41L320.918 168.375L325.784 113.324Z" fill="#F9FC12"/>
<path d="M331.741 112.687L310.214 113.386L290.144 247.545L305.993 252.704L331.741 112.687Z" fill="#2194F3"/>
<path d="M347.043 111.553L364 119.405L363.037 174.526L383.97 240.429L359.361 244.263L339.91 173.102L347.043 111.553Z" fill="#2194F3"/>
<path d="M375.005 247.123C375.599 246.348 376.072 245.391 376.389 244.317C376.706 243.244 376.861 242.08 376.841 240.909C376.821 239.738 376.628 238.587 376.276 237.538C375.923 236.489 375.419 235.567 374.8 234.837L378.211 217.232L371.485 211.556L366.903 236.518C366.143 238.139 365.812 240.116 365.972 242.074C366.132 244.033 366.771 245.837 367.77 247.144C368.769 248.451 370.057 249.171 371.39 249.167C372.724 249.163 374.01 248.435 375.005 247.123Z" fill="#4D4D4D"/>
<path d="M354.174 120.935L364.207 119.648C364.207 119.648 373.215 133.585 375.264 144.376C377.313 155.167 379.532 188.93 379.532 188.93L378.607 238.321L366.878 226.539L366.092 184.056L354.174 120.935Z" fill="#2194F3"/>
<path d="M351.754 96.1102C355.521 85.9138 352.988 73.1295 346.096 67.5557C339.204 61.9818 330.562 65.7291 326.794 75.9255C323.026 86.1219 325.559 98.9062 332.452 104.48C339.344 110.054 347.986 106.307 351.754 96.1102Z" fill="#4D4D4D"/>
<path d="M337.688 77.2337C335.822 76.5958 333.885 77.3026 331.995 77.7609C330.105 78.2191 328.022 78.3701 326.423 76.8101C325.242 75.658 324.516 73.752 323.835 71.9186C323.55 71.2638 323.361 70.5289 323.278 69.7602C323.198 68.4043 323.781 67.1672 324.4 66.1603C327.276 61.4837 331.479 58.924 335.717 58.1109C339.212 57.3403 342.783 57.9854 346.05 59.9777C349.268 62.0652 352.033 65.8881 353.298 70.7367C353.881 73.2183 354.245 75.8007 354.381 78.4199C354.572 80.3471 354.596 82.3023 354.454 84.2386C354.283 85.6741 354.028 87.0846 353.691 88.4542L351.596 97.8139C351.445 98.6984 351.164 99.5224 350.772 100.227C350.571 100.571 350.299 100.811 349.998 100.908C349.698 101.006 349.383 100.956 349.103 100.768C349.271 99.7509 349.296 98.6944 349.178 97.6626C349.113 97.1484 348.944 96.675 348.695 96.3035C348.446 95.9319 348.128 95.6792 347.781 95.5778C347.008 95.4566 346.349 96.3423 345.616 96.7237C345.281 96.8707 344.929 96.9186 344.581 96.8647C344.234 96.8107 343.896 96.6559 343.589 96.4091C343.282 96.1624 343.01 95.8285 342.79 95.4265C342.57 95.0245 342.405 94.5623 342.306 94.0662C342.286 93.9663 342.269 93.8652 342.254 93.7631C342.138 92.693 342.333 91.5475 342.058 90.5426C341.737 89.3653 340.885 88.7484 340.245 87.9024C339.661 87.1052 339.244 86.078 339.041 84.9414C338.838 83.8049 338.859 82.6063 339.1 81.4866C339.272 80.7077 339.756 80.3536 339.659 79.4587C339.532 78.2848 338.362 77.464 337.688 77.2337Z" fill="#2194F3"/>
<path d="M179.563 166.175H0V0H179.563V166.175Z" fill="white"/>
<path d="M179.563 166.175H0V0H179.563V166.175ZM0.819923 164.962H178.743V1.21296H0.819923V164.962Z" fill="#ABBED1"/>
<path d="M157.63 396.335H55.1396V230.159H157.63V396.335Z" fill="white"/>
<path d="M157.63 396.335H55.1396V230.159H157.63V396.335ZM55.9596 395.122H156.81V231.372H55.9596V395.122Z" fill="#ABBED1"/>
<path d="M143.691 380.64H122.373V381.918H143.691V380.64Z" fill="#ABBED1"/>
<path d="M143.691 384.475H122.373V385.754H143.691V384.475Z" fill="#ABBED1"/>
<path d="M143.691 388.311H122.373V389.59H143.691V388.311Z" fill="#ABBED1"/>
<path d="M106.385 259.877V273.219C111.736 273.219 116.967 275.567 121.417 279.965C125.867 284.363 129.335 290.615 131.383 297.929C133.43 305.243 133.966 313.291 132.922 321.056C131.878 328.821 129.301 335.953 125.517 341.551L131.895 350.985C136.94 343.521 140.376 334.012 141.768 323.659C143.16 313.306 142.446 302.575 139.715 292.823C136.985 283.071 132.361 274.736 126.428 268.871C120.495 263.007 113.52 259.877 106.385 259.877Z" fill="black"/>
<path d="M131.895 350.985L125.517 341.551C120.891 348.395 114.745 352.528 108.217 353.183C101.69 353.838 95.2228 350.97 90.0146 345.112L84.5557 355.738C91.501 363.547 100.124 367.368 108.828 366.495C117.531 365.621 125.726 360.111 131.895 350.985Z" fill="#89939E"/>
<path d="M79.3275 313.247C79.3275 307.99 80.0273 302.785 81.3871 297.929C82.7469 293.073 84.7399 288.66 87.2524 284.943C89.7649 281.226 92.7477 278.278 96.0305 276.266C99.3132 274.255 102.832 273.219 106.385 273.219V259.877C98.8327 259.877 91.4709 263.383 85.3372 269.901C79.2035 276.419 74.6072 285.621 72.1961 296.208C69.7851 306.796 69.681 318.236 71.8984 328.916C74.1158 339.596 78.543 348.978 84.5558 355.738L90.0148 345.112C86.691 341.382 83.9963 336.564 82.1421 331.036C80.2879 325.507 79.3245 319.418 79.3275 313.247Z" fill="#25A38B"/>
<path d="M309.315 293.233H206.825V127.057H309.315V293.233Z" fill="white"/>
<path d="M309.315 293.233H206.825V127.057H309.315V293.233ZM207.645 292.02H308.495V128.27H207.645V292.02Z" fill="#ABBED1"/>
<path d="M240.032 228.643H221.584V272.309H240.032V228.643Z" fill="#89939E"/>
<path d="M266.679 198.925H248.231V272.309H266.679V198.925Z" fill="black"/>
<path d="M293.327 164.356H274.879V272.309H293.327V164.356Z" fill="#25A38B"/>
<path d="M299.476 273.523H216.664V146.768H217.484V272.31H299.476V273.523Z" fill="#ABBED1"/>
<path d="M279.51 131.482C282.629 131.482 285.157 127.742 285.157 123.129C285.157 118.515 282.629 114.775 279.51 114.775C276.392 114.775 273.864 118.515 273.864 123.129C273.864 127.742 276.392 131.482 279.51 131.482Z" fill="#4D4D4D"/>
<path d="M395.529 410H307.539C307.414 410 307.294 409.927 307.206 409.796C307.118 409.666 307.068 409.488 307.068 409.304C307.068 409.119 307.118 408.942 307.206 408.812C307.294 408.681 307.414 408.608 307.539 408.608H395.529C395.654 408.608 395.774 408.681 395.862 408.812C395.95 408.942 396 409.119 396 409.304C396 409.488 395.95 409.666 395.862 409.796C395.774 409.927 395.654 410 395.529 410Z" fill="#F9FC12"/>
<path d="M154.626 131.422H24.9369C24.8292 131.422 24.726 131.359 24.6499 131.246C24.5738 131.133 24.531 130.981 24.531 130.821V38.8646C24.531 38.7053 24.5738 38.5526 24.6499 38.44C24.726 38.3274 24.8292 38.2642 24.9369 38.2642C25.0445 38.2642 25.1477 38.3274 25.2239 38.44C25.3 38.5526 25.3427 38.7053 25.3427 38.8646V130.221H154.626C154.679 130.221 154.732 130.236 154.781 130.266C154.831 130.296 154.876 130.34 154.914 130.396C154.951 130.452 154.981 130.518 155.002 130.591C155.022 130.664 155.033 130.742 155.033 130.821C155.033 130.9 155.022 130.979 155.002 131.052C154.981 131.125 154.951 131.191 154.914 131.247C154.876 131.302 154.831 131.347 154.781 131.377C154.732 131.407 154.679 131.422 154.626 131.422Z" fill="#ABBED1"/>
<path d="M52.6458 124.817H40.8501C40.5307 124.817 40.2244 124.629 39.9986 124.295C39.7727 123.961 39.6456 123.508 39.6453 123.035V98.98C39.6456 98.5074 39.7727 98.0544 39.9986 97.7203C40.2244 97.3862 40.5307 97.1983 40.8501 97.1978H52.6458C52.9652 97.1983 53.2714 97.3862 53.4973 97.7203C53.7231 98.0544 53.8502 98.5074 53.8506 98.98V123.035C53.8502 123.508 53.7232 123.961 53.4973 124.295C53.2714 124.629 52.9652 124.817 52.6458 124.817Z" fill="#25A38B"/>
<path d="M74.1568 124.817H62.3611C62.0417 124.817 61.7354 124.629 61.5096 124.295C61.2837 123.96 61.1566 123.507 61.1562 123.035V76.1638C61.1566 75.6913 61.2837 75.2383 61.5096 74.9042C61.7354 74.5701 62.0417 74.3821 62.3611 74.3816H74.1568C74.4762 74.3821 74.7824 74.5701 75.0083 74.9042C75.2341 75.2383 75.3612 75.6913 75.3616 76.1638V123.035C75.3612 123.507 75.2341 123.96 75.0083 124.295C74.7824 124.629 74.4762 124.817 74.1568 124.817Z" fill="#25A38B"/>
<path d="M95.6678 124.817H83.8721C83.5526 124.817 83.2464 124.629 83.0206 124.295C82.7947 123.961 82.6676 123.508 82.6672 123.035V98.98C82.6676 98.5074 82.7947 98.0544 83.0206 97.7203C83.2464 97.3862 83.5526 97.1983 83.8721 97.1978H95.6678C95.9872 97.1983 96.2934 97.3862 96.5193 97.7203C96.7451 98.0544 96.8722 98.5074 96.8726 98.98V123.035C96.8722 123.508 96.7451 123.961 96.5193 124.295C96.2934 124.629 95.9872 124.817 95.6678 124.817Z" fill="#25A38B"/>
<path d="M117.179 124.817H105.383C105.071 124.827 104.769 124.653 104.543 124.335C104.317 124.016 104.186 123.577 104.178 123.116V67.0766C104.186 66.6149 104.317 66.1766 104.543 65.8576C104.769 65.5387 105.071 65.3652 105.383 65.3752H117.179C117.491 65.3652 117.793 65.5387 118.019 65.8576C118.245 66.1766 118.376 66.6149 118.384 67.0766V123.116C118.376 123.577 118.245 124.016 118.019 124.335C117.793 124.653 117.491 124.827 117.179 124.817Z" fill="#25A38B"/>
<path d="M138.689 124.817H126.894C126.574 124.817 126.268 124.629 126.042 124.295C125.816 123.96 125.689 123.507 125.689 123.035V50.946C125.689 50.4735 125.816 50.0205 126.042 49.6864C126.268 49.3523 126.574 49.1643 126.894 49.1638H138.689C139.009 49.1643 139.315 49.3523 139.541 49.6864C139.767 50.0205 139.894 50.4735 139.894 50.946V123.035C139.894 123.507 139.767 123.96 139.541 124.295C139.315 124.629 139.009 124.817 138.689 124.817Z" fill="#25A38B"/>
<path d="M46.7479 89.9927C48.0929 89.9927 49.1831 88.3798 49.1831 86.3901C49.1831 84.4005 48.0929 82.7876 46.7479 82.7876C45.403 82.7876 44.3127 84.4005 44.3127 86.3901C44.3127 88.3798 45.403 89.9927 46.7479 89.9927Z" fill="#ABBED1"/>
<path d="M68.2589 66.5762C69.6039 66.5762 70.6941 64.9633 70.6941 62.9736C70.6941 60.984 69.6039 59.3711 68.2589 59.3711C66.914 59.3711 65.8237 60.984 65.8237 62.9736C65.8237 64.9633 66.914 66.5762 68.2589 66.5762Z" fill="#ABBED1"/>
<path d="M89.7699 89.9927C91.1148 89.9927 92.2051 88.3798 92.2051 86.3901C92.2051 84.4005 91.1148 82.7876 89.7699 82.7876C88.425 82.7876 87.3347 84.4005 87.3347 86.3901C87.3347 88.3798 88.425 89.9927 89.7699 89.9927Z" fill="#ABBED1"/>
<path d="M111.281 55.168C112.626 55.168 113.716 53.5551 113.716 51.5654C113.716 49.5758 112.626 47.9629 111.281 47.9629C109.936 47.9629 108.846 49.5758 108.846 51.5654C108.846 53.5551 109.936 55.168 111.281 55.168Z" fill="#ABBED1"/>
<path d="M132.792 41.9587C134.137 41.9587 135.227 40.3458 135.227 38.3562C135.227 36.3666 134.137 34.7537 132.792 34.7537C131.447 34.7537 130.356 36.3666 130.356 38.3562C130.356 40.3458 131.447 41.9587 132.792 41.9587Z" fill="#ABBED1"/>
<path d="M89.8209 87.1969L68.259 63.3049L46.9912 86.8705L46.5046 85.9092L68.259 61.8041L89.7184 85.5827L111.044 51.0599L111.129 51.0084L132.64 38.1863L132.943 39.3007L111.518 52.0713L89.8209 87.1969Z" fill="#ABBED1"/>
</g>
<defs>
<clipPath id="clip0_357_956">
<rect width="396" height="410" fill="white"/>
</clipPath>
</defs>
</svg>
