<svg width="2082" height="1770" viewBox="0 0 2082 1770" fill="none" xmlns="http://www.w3.org/2000/svg">
<g clip-path="url(#clip0_535_56)">
<path d="M161.174 1767.09L160.805 1763.95C154.78 1711.15 156.062 1656.91 164.56 1604.98C173.058 1553.05 188.569 1504.69 210.015 1463.26C222.161 1440.16 236.088 1419.6 251.467 1402.04L252.933 1400.35L253.574 1403.04C261.224 1435.09 270.879 1467.2 275.279 1481.41L278.248 1375.33L279.943 1373.91C287.706 1367.29 296.536 1364.53 305.297 1365.97C314.058 1367.4 322.347 1372.98 329.097 1381.97C336.079 1390.89 341.221 1402.92 343.86 1416.52C346.5 1430.13 346.516 1444.68 343.907 1458.3C341.6 1470.76 339.421 1483.69 337.312 1496.19C330.07 1539.15 322.581 1583.57 308.068 1620.98C296.908 1649.12 281.934 1672.95 264.238 1690.72C246.543 1708.48 226.574 1719.75 205.79 1723.68L161.174 1767.09Z" fill="#F2F2F2"/>
<path d="M806.1 433.444H143.718C139.09 433.436 134.653 430.51 131.38 425.309C128.108 420.108 126.267 413.056 126.262 405.7V128.316C126.267 120.961 128.108 113.909 131.38 108.707C134.653 103.506 139.09 100.58 143.718 100.572H806.1C810.728 100.58 815.165 103.506 818.438 108.707C821.711 113.909 823.551 120.961 823.557 128.316V405.7C823.551 413.056 821.711 420.108 818.438 425.309C815.165 430.51 810.728 433.436 806.1 433.444Z" fill="#F2F2F2"/>
<path d="M936.376 904.816H273.994C269.366 904.808 264.929 901.882 261.656 896.681C258.383 891.479 256.543 884.427 256.537 877.072V599.688C256.543 592.332 258.383 585.28 261.656 580.079C264.929 574.878 269.366 571.952 273.994 571.944H936.376C941.004 571.952 945.441 574.878 948.714 580.079C951.986 585.28 953.827 592.332 953.832 599.688V877.072C953.827 884.427 951.986 891.479 948.714 896.681C945.441 901.882 941.004 904.808 936.376 904.816Z" fill="#F2F2F2"/>
<path d="M2064.58 950.409H1880.37L1922.94 514.039C1923.14 512.039 1923.08 509.996 1922.78 508.029C1922.48 506.062 1921.94 504.208 1921.18 502.574C1920.43 500.94 1919.49 499.558 1918.4 498.505C1917.31 497.453 1916.1 496.752 1914.84 496.442C1913.58 496.132 1912.3 496.219 1911.06 496.698C1909.82 497.177 1908.66 498.039 1907.63 499.234C1906.6 500.43 1905.73 501.935 1905.07 503.665C1904.41 505.395 1903.96 507.315 1903.77 509.316L1860.74 950.409H1614.99L1657.56 514.039C1657.75 512.039 1657.7 509.996 1657.4 508.029C1657.1 506.062 1656.55 504.208 1655.8 502.574C1655.05 500.94 1654.1 499.558 1653.01 498.505C1651.93 497.453 1650.72 496.752 1649.46 496.442C1648.2 496.132 1646.92 496.219 1645.68 496.698C1644.44 497.177 1643.27 498.039 1642.24 499.234C1641.22 500.43 1640.35 501.935 1639.68 503.665C1639.02 505.395 1638.58 507.315 1638.39 509.316L1595.36 950.409H1439.45C1436.88 950.409 1434.41 952.034 1432.59 954.925C1430.77 957.817 1429.75 961.739 1429.75 965.828C1429.75 969.917 1430.77 973.839 1432.59 976.731C1434.41 979.622 1436.88 981.247 1439.45 981.247H1592.35L1555.11 1363.04H1379.07C1376.5 1363.04 1374.03 1364.67 1372.21 1367.56C1370.39 1370.45 1369.37 1374.37 1369.37 1378.46C1369.37 1382.55 1370.39 1386.47 1372.21 1389.37C1374.03 1392.26 1376.5 1393.88 1379.07 1393.88H1552.1L1517.63 1747.22C1517.24 1751.26 1517.87 1755.38 1519.39 1758.68C1520.91 1761.98 1523.19 1764.19 1525.73 1764.81C1528.27 1765.44 1530.87 1764.44 1532.94 1762.02C1535.02 1759.61 1536.41 1755.98 1536.8 1751.94L1571.73 1393.88H1817.48L1783.01 1747.22C1782.82 1749.22 1782.87 1751.26 1783.17 1753.23C1783.47 1755.2 1784.01 1757.06 1784.76 1758.69C1785.52 1760.33 1786.46 1761.71 1787.55 1762.76C1788.64 1763.82 1789.85 1764.52 1791.11 1764.83C1792.37 1765.14 1793.66 1765.05 1794.9 1764.57C1796.13 1764.09 1797.3 1763.23 1798.33 1762.03C1799.36 1760.84 1800.23 1759.33 1800.89 1757.6C1801.55 1755.87 1801.99 1753.94 1802.19 1751.94L1837.11 1393.88H2004.2C2006.78 1393.88 2009.24 1392.26 2011.06 1389.37C2012.88 1386.47 2013.91 1382.55 2013.91 1378.46C2013.91 1374.37 2012.88 1370.45 2011.06 1367.56C2009.24 1364.67 2006.78 1363.04 2004.2 1363.04H1840.12L1877.37 981.247H2064.58C2067.16 981.247 2069.62 979.622 2071.44 976.731C2073.26 973.839 2074.28 969.917 2074.28 965.828C2074.28 961.739 2073.26 957.817 2071.44 954.925C2069.62 952.034 2067.16 950.409 2064.58 950.409ZM1820.49 1363.04H1574.74L1611.98 981.247H1857.73L1820.49 1363.04Z" fill="#E6E6E6"/>
<path d="M1334.39 1665.4H1302.66L1287.57 1470.86L1334.4 1470.87L1334.39 1665.4Z" fill="#9E616A"/>
<path d="M1351.46 1761.16H1328.95L1324.93 1727.38L1314.63 1761.16H1254.91C1252.05 1761.17 1249.26 1759.71 1246.96 1757.01C1244.65 1754.32 1242.95 1750.52 1242.1 1746.18C1241.24 1741.83 1241.29 1737.17 1242.22 1732.87C1243.15 1728.57 1244.93 1724.86 1247.28 1722.27L1294.98 1669.92V1635.76L1345.14 1640.52L1351.46 1761.16Z" fill="#2F2E41"/>
<path d="M1340.79 534.91L1337.68 558.456L1338.98 661.458L1447.08 683.485L1449.38 521.888L1438.11 492.451L1340.79 534.91Z" fill="#9E616A"/>
<path d="M1494.99 1665.4H1463.26L1448.16 1470.86L1495 1470.87L1494.99 1665.4Z" fill="#9E616A"/>
<path d="M1496.2 1498.11L1448.02 1505.76L1447.75 1502.44L1422.2 1296.43L1416.23 1271.47L1378.81 989.236L1359.41 1059.72C1359.41 1059.72 1360.89 1134.38 1356.85 1142.02C1356.85 1142.02 1350.43 1214.21 1341.14 1216.93C1354.9 1298.96 1356.08 1385.05 1344.59 1467.96L1339.39 1505.46L1295.45 1506.43C1281.12 1502.85 1286.63 1381.69 1267.82 1269.64C1265.45 1255.52 1279.97 704.351 1338.76 648.372L1448.02 652.621L1449.49 655.062C1450.03 655.944 1489.69 751.347 1486.91 852.67L1481.37 1059.72L1483.86 1094.73L1493 1189.19L1500.33 1233.06C1508.19 1291.35 1509.47 1351.4 1504.13 1410.41L1496.2 1498.11Z" fill="#2F2E41"/>
<path d="M1512.06 1761.16H1489.54L1485.53 1727.38L1475.23 1761.16H1415.51C1412.65 1761.17 1409.86 1759.71 1407.55 1757.01C1405.25 1754.32 1403.54 1750.52 1402.69 1746.18C1401.84 1741.83 1401.88 1737.17 1402.82 1732.87C1403.75 1728.57 1405.53 1724.86 1407.88 1722.27L1455.57 1669.92V1635.76L1505.74 1640.52L1512.06 1761.16Z" fill="#2F2E41"/>
<path d="M1390.14 177.358L1390.1 177.34C1388.94 176.852 1387.85 176.006 1386.9 174.85C1385.94 173.695 1385.14 172.251 1384.54 170.603C1383.94 168.956 1383.54 167.135 1383.38 165.246C1383.22 163.357 1383.3 161.436 1383.61 159.593L1396.62 81.2662C1398.94 67.2296 1403.01 54.0784 1408.6 42.5944C1419.52 20.1937 1435.45 5.35466 1453.09 1.16994C1462.19 -0.973468 1471.47 -0.165865 1480.37 3.54415C1516.78 18.7222 1526.95 37.8609 1529.01 135.805C1531.06 233.749 1515.98 214.251 1515.98 214.251C1515.66 216.139 1515.12 217.909 1514.36 219.453C1512.89 222.464 1510.75 224.455 1508.38 225.011C1507.16 225.294 1505.92 225.185 1504.73 224.691C1459.26 217.252 1413.21 210.479 1390.14 177.355L1390.14 177.358Z" fill="#2F2E41"/>
<path d="M1497.05 94.6661C1499.44 109.986 1498.91 126.088 1495.55 140.936C1492.18 155.785 1486.12 168.716 1478.13 178.095C1470.15 187.473 1460.59 192.88 1450.67 193.631C1440.75 194.383 1430.91 190.446 1422.4 182.317C1416.76 176.967 1411.84 169.891 1407.93 161.499C1404.02 153.107 1401.2 143.565 1399.63 133.427C1397.25 118.117 1397.78 102.031 1401.14 87.1969C1404.51 72.3628 1410.56 59.4448 1418.54 50.0717C1426.52 40.6985 1436.07 35.2899 1445.98 34.5277C1455.89 33.7655 1465.72 37.6839 1474.23 45.7888C1479.88 51.1306 1484.81 58.202 1488.72 66.5928C1492.64 74.9836 1495.47 84.524 1497.05 94.6661Z" fill="#9E616A"/>
<path d="M1379.93 81.083C1381.76 69.9819 1384.98 59.581 1389.4 50.4985C1395.68 25.6405 1405.52 5.549 1424.58 17.7468C1431.74 16.0669 1439.03 16.6906 1446.02 19.5806L1455.9 23.6402L1456.23 23.7782C1463.06 26.6504 1469.47 31.6323 1475.09 38.4394C1480.71 45.2465 1485.42 53.7455 1488.98 63.4513C1492.53 73.157 1494.84 83.8793 1495.78 95.006C1496.73 106.133 1496.28 117.446 1494.48 128.3L1494.22 129.869L1473.33 121.248L1471.46 86.6706L1464.78 117.727L1453.99 113.281L1453.05 95.8374L1449.68 111.495C1429.22 124.128 1405.51 111.595 1379.67 82.6586L1379.93 81.083Z" fill="#2F2E41"/>
<path d="M1427.85 190.538C1427.1 192.933 1426.79 195.613 1426.96 198.273C1427.04 199.633 1427.23 200.968 1427.55 202.24C1427.81 203.325 1428.16 204.356 1428.58 205.311C1429.82 208.133 1431.66 210.159 1433.76 211.024C1433.89 211.077 1434.02 211.126 1434.15 211.171C1434.29 211.216 1434.42 211.256 1434.55 211.292C1434.69 211.33 1434.82 211.361 1434.96 211.387C1435.09 211.413 1435.23 211.435 1435.37 211.453L1443.13 212.421L1459.08 182.063L1453.81 213.79L1489.09 218.282L1511.45 83.6477L1454.93 60.3964L1455.89 63.5578C1459.09 74.1444 1460.39 85.9276 1459.64 97.6102C1458.85 109.428 1456.79 120.943 1453.55 131.655C1450.33 142.517 1446.46 152.862 1441.99 162.548C1438.07 171.142 1433.83 179.369 1429.31 187.189C1428.73 188.191 1428.24 189.318 1427.85 190.538Z" fill="#2F2E41"/>
<path d="M1185.8 637.804C1188.78 638.957 1191.88 639.058 1194.89 638.099C1197.89 637.14 1200.73 635.146 1203.2 632.255C1205.67 629.365 1207.71 625.649 1209.18 621.37C1210.65 617.091 1211.5 612.352 1211.7 607.488L1370.92 516.448L1341.7 476.034L1190.57 571.667C1185.41 571.699 1180.43 574.74 1176.59 580.213C1172.74 585.687 1170.29 593.213 1169.7 601.365C1169.11 609.517 1170.43 617.73 1173.39 624.446C1176.36 631.161 1180.77 635.915 1185.8 637.804Z" fill="#9E616A"/>
<path d="M1415.4 290.912C1415.4 290.912 1442.22 291.851 1444.6 340.51C1446.99 389.169 1388.47 509.526 1379.41 529.373C1370.34 549.221 1269.64 573.65 1269.64 573.65L1235.41 534.153C1271.38 497.11 1304.2 468.708 1326.23 469.985L1415.4 290.912Z" fill="#25A38B"/>
<path d="M1462.84 223.097L1421.55 219.223C1419.81 219.059 1418.08 219.763 1416.6 221.236C1415.12 222.71 1413.97 224.879 1413.31 227.441L1401.64 272.397L1353.15 336.097C1353.15 336.097 1333.95 374.928 1333.9 425.078C1333.86 475.227 1327.09 591.303 1327.09 591.303C1327.09 591.303 1434.8 602.816 1437.12 598.965C1441.68 591.402 1447.21 552.758 1447.21 552.758L1485 332.059C1487.05 320.447 1487.46 308.258 1486.19 296.367C1484.93 284.475 1482.03 273.176 1477.69 263.279C1475.05 257.37 1472.28 252.975 1469.71 252.248C1463.94 250.295 1467.01 229.733 1462.84 223.097Z" fill="#25A38B"/>
<path d="M1296.83 1019.12C1295.12 1019.55 1293.38 1019.44 1291.7 1018.8C1290.02 1018.15 1288.44 1016.98 1287.05 1015.36L1095.97 793.533C1093.16 790.262 1091.28 785.35 1090.74 779.876C1090.2 774.402 1091.06 768.814 1093.11 764.338L1190.69 552.013C1192.75 547.541 1195.84 544.551 1199.29 543.698C1202.73 542.846 1206.25 544.2 1209.06 547.465L1400.14 769.29C1402.96 772.561 1404.84 777.473 1405.37 782.947C1405.91 788.421 1405.06 794.009 1403 798.485L1305.42 1010.81C1304.41 1013.03 1303.12 1014.91 1301.65 1016.33C1300.17 1017.76 1298.53 1018.71 1296.83 1019.12Z" fill="white"/>
<path d="M1296.83 1019.12C1295.12 1019.55 1293.38 1019.44 1291.7 1018.8C1290.02 1018.15 1288.44 1016.98 1287.05 1015.36L1095.97 793.533C1093.16 790.262 1091.28 785.35 1090.74 779.876C1090.2 774.402 1091.06 768.814 1093.11 764.338L1190.69 552.013C1192.75 547.541 1195.84 544.551 1199.29 543.698C1202.73 542.846 1206.25 544.2 1209.06 547.465L1400.14 769.29C1402.96 772.561 1404.84 777.473 1405.37 782.947C1405.91 788.421 1405.06 794.009 1403 798.485L1305.42 1010.81C1304.41 1013.03 1303.12 1014.91 1301.65 1016.33C1300.17 1017.76 1298.53 1018.71 1296.83 1019.12ZM1200.14 552.404C1199.15 552.642 1198.2 553.19 1197.35 554.014C1196.5 554.839 1195.76 555.925 1195.17 557.209L1097.59 769.534C1096.4 772.124 1095.91 775.355 1096.22 778.52C1096.53 781.685 1097.62 784.525 1099.24 786.419L1290.32 1008.24C1291.97 1010.05 1293.99 1010.79 1295.96 1010.3C1297.94 1009.81 1299.72 1008.13 1300.94 1005.61L1398.53 793.289C1399.71 790.7 1400.21 787.468 1399.9 784.303C1399.59 781.138 1398.5 778.298 1396.87 776.405L1205.79 554.579C1204.99 553.64 1204.07 552.964 1203.1 552.591C1202.13 552.217 1201.13 552.154 1200.14 552.404Z" fill="#CCCCCC"/>
<path d="M1274.82 725.925L1256.5 737.159L1249.82 688.444C1249.71 687.596 1249.49 686.793 1249.18 686.08C1248.86 685.368 1248.47 684.76 1248.01 684.291C1247.55 683.822 1247.03 683.501 1246.5 683.348C1245.96 683.194 1245.41 683.21 1244.88 683.395C1244.34 683.579 1243.84 683.929 1243.39 684.425C1242.94 684.92 1242.56 685.551 1242.26 686.281C1241.97 687.011 1241.77 687.827 1241.67 688.681C1241.57 689.535 1241.58 690.411 1241.7 691.259L1248.65 741.973L1225.48 756.174L1218.81 707.459C1218.69 706.611 1218.47 705.808 1218.16 705.095C1217.85 704.382 1217.45 703.774 1216.99 703.305C1216.53 702.837 1216.02 702.516 1215.48 702.362C1214.95 702.209 1214.4 702.225 1213.86 702.409C1213.33 702.594 1212.82 702.944 1212.37 703.439C1211.93 703.935 1211.54 704.565 1211.25 705.296C1210.95 706.026 1210.75 706.841 1210.65 707.695C1210.56 708.549 1210.57 709.425 1210.68 710.273L1217.63 760.988L1201.77 770.715C1201.26 771.027 1200.79 771.496 1200.4 772.094C1200 772.693 1199.68 773.409 1199.46 774.202C1199.24 774.996 1199.12 775.851 1199.11 776.718C1199.09 777.586 1199.19 778.449 1199.38 779.259C1199.58 780.068 1199.87 780.808 1200.25 781.437C1200.63 782.065 1201.08 782.57 1201.58 782.921C1202.08 783.273 1202.61 783.465 1203.16 783.486C1203.71 783.508 1204.25 783.358 1204.76 783.046L1219.42 774.056L1224.63 812.093L1206.41 823.263C1205.91 823.575 1205.44 824.044 1205.04 824.642C1204.65 825.241 1204.33 825.957 1204.11 826.751C1203.89 827.544 1203.77 828.399 1203.75 829.266C1203.74 830.134 1203.84 830.997 1204.03 831.807C1204.23 832.616 1204.52 833.356 1204.9 833.985C1205.28 834.613 1205.73 835.118 1206.23 835.47C1206.73 835.821 1207.26 836.013 1207.81 836.034C1208.35 836.056 1208.9 835.906 1209.41 835.594L1226.42 825.161L1231.69 863.591C1231.92 865.303 1232.57 866.796 1233.5 867.744C1234.43 868.691 1235.56 869.013 1236.63 868.641C1236.84 868.567 1237.05 868.468 1237.25 868.345C1238.18 867.776 1238.94 866.701 1239.41 865.313C1239.88 863.925 1240.02 862.316 1239.81 860.776L1234.27 820.348L1257.44 806.147L1262.7 844.576C1262.93 846.288 1263.59 847.782 1264.51 848.729C1265.44 849.677 1266.57 849.999 1267.65 849.627C1267.86 849.553 1268.06 849.454 1268.26 849.331C1269.19 848.762 1269.95 847.687 1270.42 846.299C1270.89 844.911 1271.04 843.302 1270.82 841.762L1265.29 801.333L1282.46 790.804C1282.97 790.491 1283.44 790.023 1283.83 789.424C1284.23 788.826 1284.54 788.11 1284.77 787.316C1284.99 786.523 1285.11 785.668 1285.12 784.8C1285.13 783.933 1285.04 783.07 1284.84 782.26C1284.65 781.45 1284.35 780.71 1283.98 780.082C1283.6 779.453 1283.15 778.949 1282.65 778.597C1282.15 778.246 1281.61 778.054 1281.07 778.032C1280.52 778.011 1279.98 778.161 1279.47 778.473L1263.5 788.265L1258.29 750.227L1277.81 738.256C1278.32 737.943 1278.79 737.475 1279.18 736.876C1279.58 736.278 1279.9 735.561 1280.12 734.768C1280.34 733.975 1280.46 733.12 1280.47 732.252C1280.49 731.385 1280.39 730.522 1280.2 729.712C1280 728.902 1279.7 728.162 1279.33 727.534C1278.95 726.905 1278.5 726.401 1278 726.049C1277.5 725.697 1276.96 725.505 1276.42 725.484C1275.87 725.463 1275.33 725.613 1274.82 725.925ZM1255.65 793.079L1232.48 807.279L1227.27 769.242L1250.44 755.041L1255.65 793.079Z" fill="#25A38B"/>
<path d="M1401.87 779.295C1404.69 777.391 1407.22 774.526 1409.27 770.902C1411.32 767.279 1412.85 762.985 1413.74 758.322C1414.63 753.66 1414.87 748.743 1414.44 743.918C1414.01 739.092 1412.92 734.476 1411.24 730.394L1504.71 506.209L1466.09 501.543L1380.84 721.723C1376.71 726.651 1373.86 733.814 1372.84 741.856C1371.81 749.897 1372.67 758.258 1375.26 765.355C1377.86 772.451 1382 777.79 1386.9 780.359C1391.8 782.929 1397.13 782.55 1401.87 779.295Z" fill="#9E616A"/>
<path d="M1455.61 283.108C1455.61 283.108 1477.47 258.4 1497.67 295.158C1517.87 331.917 1516.19 483.993 1516.38 508.518C1516.44 516.198 1509.46 532.768 1499.85 551.909C1495.53 560.502 1490.68 569.613 1485.7 578.67C1482.82 583.911 1485.31 594.82 1482.41 599.915C1479.53 604.981 1471.28 604.233 1468.54 608.935C1455.55 631.254 1444.99 648.243 1444.99 648.243L1402.69 649.07C1402.22 599.096 1423.75 554.488 1451.41 511.375L1455.61 283.108Z" fill="#25A38B"/>
<path d="M2078.7 1768.65L3.30009 1770C2.42644 1770 1.58941 1769.44 0.972537 1768.46C0.355664 1767.48 0.00927734 1766.14 0.00927734 1764.75C0.00927734 1763.37 0.355664 1762.03 0.972537 1761.05C1.58941 1760.07 2.42644 1759.51 3.30009 1759.51L2078.7 1758.16C2079.13 1758.15 2079.56 1758.29 2079.97 1758.55C2080.37 1758.81 2080.73 1759.2 2081.04 1759.69C2081.35 1760.17 2081.59 1760.75 2081.76 1761.39C2081.92 1762.03 2082.01 1762.71 2082.01 1763.4C2082.01 1764.09 2081.92 1764.77 2081.76 1765.41C2081.59 1766.05 2081.35 1766.63 2081.04 1767.12C2080.73 1767.6 2080.37 1767.99 2079.97 1768.25C2079.56 1768.51 2079.13 1768.65 2078.7 1768.65Z" fill="#CACACA"/>
<path d="M966.865 609.658H304.484C300.59 609.651 296.858 607.189 294.105 602.814C291.352 598.439 289.803 592.506 289.799 586.319V308.935C289.803 302.747 291.352 296.815 294.105 292.44C296.858 288.064 300.59 285.603 304.484 285.596H966.865C970.759 285.603 974.491 288.064 977.244 292.44C979.997 296.815 981.546 302.747 981.55 308.935V586.319C981.546 592.506 979.997 598.439 977.244 602.814C974.491 607.189 970.759 609.651 966.865 609.658Z" fill="white"/>
<path d="M966.866 614.063H304.484C299.856 614.055 295.419 611.129 292.146 605.928C288.873 600.727 287.033 593.675 287.027 586.319V308.935C287.033 301.58 288.873 294.528 292.146 289.326C295.419 284.125 299.856 281.199 304.484 281.191H966.866C971.494 281.199 975.931 284.125 979.204 289.326C982.476 294.528 984.317 301.58 984.322 308.935V586.319C984.317 593.675 982.476 600.727 979.204 605.928C975.931 611.129 971.494 614.055 966.866 614.063ZM304.484 290.002C301.326 290.008 298.298 292.005 296.064 295.554C293.831 299.103 292.575 303.916 292.571 308.935V586.319C292.575 591.339 293.831 596.151 296.064 599.701C298.298 603.25 301.326 605.247 304.484 605.253H966.866C970.024 605.247 973.052 603.25 975.285 599.701C977.519 596.151 978.775 591.339 978.779 586.319V308.935C978.775 303.916 977.519 299.103 975.285 295.554C973.052 292.004 970.024 290.008 966.866 290.002L304.484 290.002Z" fill="#CCCCCC"/>
<path d="M927.271 474.639H344.075C342.193 474.639 340.388 473.451 339.057 471.336C337.727 469.221 336.979 466.353 336.979 463.362C336.979 460.371 337.727 457.502 339.057 455.387C340.388 453.272 342.193 452.084 344.075 452.084H927.271C929.153 452.084 930.958 453.272 932.289 455.387C933.62 457.502 934.367 460.371 934.367 463.362C934.367 466.353 933.62 469.221 932.289 471.336C930.958 473.451 929.153 474.639 927.271 474.639Z" fill="#25A38B"/>
<path d="M869.323 519.203H344.075C342.195 519.198 340.394 518.007 339.066 515.892C337.738 513.778 336.992 510.912 336.992 507.925C336.992 504.938 337.738 502.072 339.066 499.958C340.394 497.844 342.195 496.653 344.075 496.647H869.323C871.205 496.647 873.01 497.835 874.341 499.95C875.672 502.065 876.42 504.934 876.42 507.925C876.42 510.916 875.672 513.785 874.341 515.9C873.01 518.015 871.205 519.203 869.323 519.203Z" fill="#25A38B"/>
<path d="M374.389 427.976C394.289 427.976 410.422 402.336 410.422 370.706C410.422 339.077 394.289 313.437 374.389 313.437C354.488 313.437 338.355 339.077 338.355 370.706C338.355 402.336 354.488 427.976 374.389 427.976Z" fill="#25A38B"/>
<path d="M388.925 344.81L380.384 350.047L377.273 327.338C377.22 326.942 377.117 326.567 376.972 326.233C376.827 325.9 376.642 325.616 376.428 325.397C376.213 325.177 375.974 325.027 375.723 324.955C375.472 324.883 375.215 324.891 374.966 324.977C374.717 325.063 374.481 325.227 374.272 325.458C374.062 325.69 373.884 325.984 373.746 326.326C373.609 326.667 373.515 327.048 373.47 327.446C373.426 327.845 373.431 328.254 373.486 328.65L376.724 352.29L365.927 358.91L362.816 336.202C362.762 335.807 362.659 335.432 362.514 335.1C362.369 334.768 362.184 334.484 361.97 334.266C361.755 334.047 361.516 333.898 361.266 333.826C361.015 333.754 360.758 333.762 360.51 333.848C360.261 333.934 360.025 334.097 359.816 334.328C359.607 334.559 359.429 334.853 359.291 335.193C359.154 335.534 359.06 335.914 359.015 336.312C358.97 336.71 358.974 337.118 359.029 337.514L362.267 361.154L354.871 365.689C354.392 365.983 354.006 366.568 353.799 367.315C353.591 368.061 353.578 368.908 353.763 369.67C353.948 370.431 354.315 371.045 354.785 371.376C355.254 371.708 355.787 371.729 356.266 371.436L363.101 367.246L365.53 384.977L357.038 390.184C356.801 390.33 356.583 390.548 356.399 390.827C356.215 391.106 356.067 391.44 355.964 391.81C355.861 392.18 355.804 392.578 355.798 392.982C355.792 393.387 355.836 393.789 355.927 394.167C356.019 394.544 356.156 394.889 356.332 395.182C356.507 395.475 356.718 395.71 356.95 395.874C357.183 396.038 357.434 396.127 357.688 396.137C357.942 396.147 358.196 396.077 358.433 395.932L366.365 391.069L368.819 408.983C368.928 409.781 369.233 410.477 369.665 410.919C370.097 411.36 370.622 411.511 371.125 411.337C371.223 411.302 371.319 411.256 371.412 411.199C371.844 410.934 372.201 410.432 372.42 409.785C372.639 409.138 372.705 408.388 372.606 407.67L370.025 388.825L380.822 382.205L383.275 400.119C383.385 400.917 383.689 401.613 384.122 402.055C384.554 402.496 385.079 402.647 385.581 402.473C385.679 402.439 385.775 402.393 385.869 402.335C386.3 402.07 386.657 401.569 386.876 400.922C387.095 400.275 387.161 399.525 387.063 398.807L384.481 379.961L392.487 375.052C392.725 374.908 392.943 374.69 393.128 374.411C393.313 374.132 393.462 373.798 393.565 373.428C393.669 373.057 393.726 372.658 393.732 372.253C393.738 371.848 393.694 371.445 393.603 371.067C393.511 370.689 393.373 370.344 393.197 370.05C393.021 369.757 392.811 369.522 392.578 369.358C392.344 369.194 392.093 369.105 391.838 369.096C391.583 369.087 391.33 369.158 391.092 369.305L383.647 373.869L381.218 356.138L390.321 350.557C390.8 350.262 391.185 349.678 391.393 348.931C391.601 348.185 391.614 347.338 391.429 346.576C391.244 345.814 390.877 345.201 390.407 344.869C389.938 344.538 389.405 344.517 388.925 344.81ZM379.987 376.114L369.19 382.733L366.761 365.002L377.558 358.382L379.987 376.114Z" fill="#F2F2F2"/>
<path d="M1337.24 1522.28H1292.89C1287.74 1522.28 1282.81 1519.03 1279.17 1513.25C1275.53 1507.47 1273.48 1499.62 1273.48 1491.44C1273.48 1483.27 1275.53 1475.42 1279.17 1469.64C1282.81 1463.86 1287.74 1460.61 1292.89 1460.61L1348.32 1438.58C1359.04 1438.58 1356.64 1474.41 1356.64 1491.44C1356.64 1499.62 1354.59 1507.47 1350.96 1513.25C1347.32 1519.03 1342.38 1522.28 1337.24 1522.28Z" fill="#2F2E41"/>
<path d="M1495.23 1522.28H1450.88C1445.73 1522.28 1440.8 1519.03 1437.16 1513.25C1433.52 1507.47 1431.48 1499.62 1431.48 1491.44C1431.48 1474.41 1429.08 1438.58 1439.79 1438.58L1495.23 1460.61C1500.38 1460.61 1505.31 1463.86 1508.95 1469.64C1512.59 1475.42 1514.63 1483.27 1514.63 1491.44C1514.63 1499.62 1512.59 1507.47 1508.95 1513.25C1505.31 1519.03 1500.38 1522.28 1495.23 1522.28Z" fill="#2F2E41"/>
</g>
<defs>
<clipPath id="clip0_535_56">
<rect width="2082" height="1770" fill="white"/>
</clipPath>
</defs>
</svg>
