<svg width="323" height="254" viewBox="0 0 323 254" fill="none" xmlns="http://www.w3.org/2000/svg">
<g clip-path="url(#clip0_530_235)">
<path d="M30.4617 245.93C31.891 248.361 33.6628 250.438 35.6886 252.059C36.1194 252.404 36.5617 252.729 37.0117 253.029H47.6001C47.4733 252.709 47.3501 252.384 47.2308 252.059C43.9478 243.319 42.9183 233.5 44.2871 223.983C45.6558 214.466 49.354 205.73 54.8618 199.002C48.4617 201.496 42.5463 206.358 38.6771 213.254C36.797 216.612 35.46 220.404 34.7424 224.414C34.103 216.394 35.1192 208.302 37.6924 200.924C32.4963 206.256 28.45 213.559 26.9078 221.78C25.3655 230.004 26.4846 239.132 30.4617 245.93Z" fill="#F0F0F0"/>
<path d="M321.326 136.349H249.338C248.894 136.349 248.468 136.126 248.154 135.73C247.841 135.334 247.664 134.797 247.664 134.237V78.0534C247.664 77.4934 247.841 76.9566 248.154 76.5606C248.468 76.1646 248.894 75.9419 249.338 75.9413H321.326C321.77 75.9419 322.195 76.1646 322.509 76.5606C322.823 76.9566 323 77.4934 323 78.0534V134.237C323 134.797 322.823 135.334 322.509 135.73C322.195 136.126 321.77 136.349 321.326 136.349Z" fill="white"/>
<path d="M321.326 136.349H249.338C248.894 136.349 248.468 136.126 248.154 135.73C247.841 135.334 247.664 134.797 247.664 134.237V78.0534C247.664 77.4934 247.841 76.9566 248.154 76.5606C248.468 76.1646 248.894 75.9419 249.338 75.9413H321.326C321.77 75.9419 322.195 76.1646 322.509 76.5606C322.823 76.9566 323 77.4934 323 78.0534V134.237C323 134.797 322.823 135.334 322.509 135.73C322.195 136.126 321.77 136.349 321.326 136.349ZM249.338 76.7861C249.071 76.7865 248.816 76.9201 248.628 77.1577C248.439 77.3953 248.334 77.7174 248.333 78.0534V134.237C248.334 134.573 248.439 134.895 248.628 135.133C248.816 135.37 249.071 135.504 249.338 135.504H321.326C321.592 135.504 321.848 135.37 322.036 135.133C322.224 134.895 322.33 134.573 322.33 134.237V78.0534C322.33 77.7174 322.224 77.3953 322.036 77.1577C321.848 76.9201 321.592 76.7865 321.326 76.7861H249.338Z" fill="#3F3D56"/>
<path d="M307.096 94.705H263.568C263.168 94.705 262.785 94.5047 262.502 94.1482C262.22 93.7917 262.061 93.3082 262.061 92.804C262.061 92.2999 262.22 91.8163 262.502 91.4598C262.785 91.1034 263.168 90.9031 263.568 90.9031H307.096C307.495 90.9031 307.878 91.1034 308.161 91.4598C308.444 91.8163 308.602 92.2999 308.602 92.804C308.602 93.3082 308.444 93.7917 308.161 94.1482C307.878 94.5047 307.495 94.705 307.096 94.705Z" fill="#CCCCCC"/>
<path d="M307.096 107.8H263.568C263.168 107.8 262.785 107.6 262.502 107.244C262.22 106.887 262.061 106.404 262.061 105.899C262.061 105.395 262.22 104.912 262.502 104.555C262.785 104.199 263.168 103.999 263.568 103.999H307.096C307.495 103.999 307.878 104.199 308.161 104.555C308.444 104.912 308.602 105.395 308.602 105.899C308.602 106.404 308.444 106.887 308.161 107.244C307.878 107.6 307.495 107.8 307.096 107.8Z" fill="#CCCCCC"/>
<path d="M303.218 128.563C306.191 128.563 308.602 125.522 308.602 121.77C308.602 118.018 306.191 114.977 303.218 114.977C300.244 114.977 297.833 118.018 297.833 121.77C297.833 125.522 300.244 128.563 303.218 128.563Z" fill="#25A38B"/>
<path d="M303.366 118.57V117.922H303.517V118.57C303.732 118.582 303.943 118.647 304.138 118.761C304.28 118.845 304.402 118.974 304.493 119.134C304.577 119.282 304.622 119.46 304.621 119.643C304.624 119.776 304.589 119.906 304.522 120.009C304.492 120.056 304.455 120.094 304.413 120.119C304.37 120.145 304.324 120.158 304.277 120.158C304.242 120.159 304.207 120.151 304.174 120.134C304.142 120.117 304.112 120.092 304.088 120.06C304.062 120.028 304.042 119.991 304.029 119.949C304.016 119.907 304.009 119.862 304.01 119.817C304.01 119.754 304.021 119.692 304.041 119.634L304.101 119.472C304.123 119.405 304.133 119.332 304.132 119.26C304.133 119.147 304.105 119.036 304.051 118.947C303.991 118.852 303.912 118.782 303.821 118.744C303.723 118.704 303.621 118.678 303.517 118.668V120.997L303.551 121.022C303.868 121.234 304.157 121.509 304.405 121.836C304.515 122 304.602 122.186 304.663 122.387C304.724 122.582 304.755 122.789 304.756 122.998C304.759 123.269 304.703 123.535 304.594 123.769C304.488 123.997 304.332 124.181 304.145 124.301C303.948 124.423 303.736 124.501 303.517 124.531V125.225H303.366V124.544C303.145 124.542 302.927 124.485 302.724 124.378C302.522 124.283 302.343 124.121 302.206 123.909C302.086 123.72 302.021 123.484 302.022 123.241C302.018 123.07 302.06 122.903 302.14 122.766C302.172 122.707 302.215 122.659 302.265 122.625C302.315 122.591 302.371 122.573 302.427 122.572C302.461 122.571 302.495 122.578 302.527 122.594C302.558 122.61 302.587 122.633 302.611 122.664C302.635 122.694 302.654 122.73 302.667 122.77C302.679 122.81 302.685 122.852 302.684 122.895C302.672 123.026 302.629 123.15 302.559 123.248C302.523 123.309 302.491 123.374 302.466 123.443C302.449 123.497 302.44 123.555 302.441 123.613C302.441 123.769 302.484 123.919 302.561 124.04C302.645 124.176 302.756 124.281 302.883 124.344C303.028 124.415 303.183 124.45 303.339 124.446H303.366V121.665L303.173 121.525C302.991 121.391 302.852 121.281 302.756 121.193C302.663 121.107 302.576 121.01 302.498 120.903C302.304 120.643 302.197 120.298 302.198 119.941C302.197 119.718 302.241 119.499 302.326 119.304C302.409 119.11 302.532 118.946 302.68 118.829C302.888 118.672 303.123 118.582 303.366 118.57ZM303.366 118.663C303.235 118.669 303.106 118.705 302.986 118.77C302.866 118.845 302.767 118.965 302.704 119.114C302.631 119.276 302.594 119.459 302.596 119.645C302.595 119.872 302.65 120.093 302.754 120.278C302.809 120.379 302.875 120.469 302.95 120.546C303.072 120.661 303.2 120.766 303.332 120.861L303.366 120.886V118.663ZM303.517 124.437C303.604 124.428 303.69 124.405 303.773 124.369C303.84 124.337 303.902 124.291 303.958 124.233C304.062 124.121 304.143 123.979 304.193 123.818C304.251 123.641 304.281 123.45 304.28 123.258C304.267 122.949 304.189 122.651 304.055 122.392C303.921 122.134 303.736 121.924 303.517 121.785V124.437Z" fill="white"/>
<path d="M272.287 98.7425H200.299C199.855 98.7419 199.43 98.5191 199.116 98.1232C198.802 97.7272 198.626 97.1903 198.625 96.6303V40.4467C198.626 39.8867 198.802 39.3499 199.116 38.9539C199.43 38.5579 199.855 38.3352 200.299 38.3346H272.287C272.731 38.3352 273.157 38.5579 273.471 38.9539C273.784 39.3499 273.961 39.8867 273.961 40.4467V96.6303C273.961 97.1903 273.784 97.7272 273.471 98.1232C273.157 98.5191 272.731 98.7419 272.287 98.7425Z" fill="white"/>
<path d="M272.287 98.7425H200.299C199.855 98.7419 199.43 98.5191 199.116 98.1232C198.802 97.7272 198.626 97.1903 198.625 96.6303V40.4467C198.626 39.8867 198.802 39.3499 199.116 38.9539C199.43 38.5579 199.855 38.3352 200.299 38.3346H272.287C272.731 38.3352 273.157 38.5579 273.471 38.9539C273.784 39.3499 273.961 39.8867 273.961 40.4467V96.6303C273.961 97.1903 273.784 97.7272 273.471 98.1232C273.157 98.5191 272.731 98.7419 272.287 98.7425ZM200.299 39.1794C200.033 39.1798 199.778 39.3134 199.589 39.551C199.401 39.7886 199.295 40.1107 199.295 40.4467V96.6303C199.295 96.9663 199.401 97.2885 199.589 97.5261C199.778 97.7636 200.033 97.8973 200.299 97.8976H272.287C272.554 97.8973 272.809 97.7636 272.997 97.5261C273.186 97.2885 273.292 96.9663 273.292 96.6303V40.4467C273.292 40.1107 273.186 39.7886 272.997 39.551C272.809 39.3134 272.554 39.1798 272.287 39.1794H200.299Z" fill="#3F3D56"/>
<path d="M258.057 57.0983H214.529C214.13 57.0983 213.746 56.898 213.464 56.5415C213.181 56.185 213.022 55.7015 213.022 55.1973C213.022 54.6932 213.181 54.2097 213.464 53.8532C213.746 53.4967 214.13 53.2964 214.529 53.2964H258.057C258.457 53.2964 258.84 53.4967 259.122 53.8532C259.405 54.2097 259.564 54.6932 259.564 55.1973C259.564 55.7015 259.405 56.185 259.122 56.5415C258.84 56.898 258.457 57.0983 258.057 57.0983Z" fill="#CCCCCC"/>
<path d="M258.057 70.1937H214.529C214.13 70.1937 213.746 69.9935 213.464 69.637C213.181 69.2805 213.022 68.7969 213.022 68.2928C213.022 67.7886 213.181 67.3051 213.464 66.9486C213.746 66.5921 214.13 66.3918 214.529 66.3918H258.057C258.457 66.3918 258.84 66.5921 259.122 66.9486C259.405 67.3051 259.564 67.7886 259.564 68.2928C259.564 68.7969 259.405 69.2805 259.122 69.637C258.84 69.9935 258.457 70.1937 258.057 70.1937Z" fill="#CCCCCC"/>
<path d="M254.179 90.9568C257.153 90.9568 259.564 87.9153 259.564 84.1633C259.564 80.4114 257.153 77.3699 254.179 77.3699C251.205 77.3699 248.794 80.4114 248.794 84.1633C248.794 87.9153 251.205 90.9568 254.179 90.9568Z" fill="#25A38B"/>
<path d="M254.327 80.963V80.3158H254.479V80.963C254.694 80.9748 254.905 81.0399 255.1 81.1546C255.241 81.2385 255.363 81.3668 255.454 81.5273C255.538 81.6758 255.583 81.8537 255.582 82.0361C255.586 82.1694 255.55 82.2995 255.483 82.4023C255.454 82.4491 255.417 82.4869 255.374 82.5127C255.332 82.5385 255.285 82.5517 255.238 82.5513C255.203 82.5522 255.168 82.5439 255.136 82.5271C255.103 82.5102 255.074 82.4852 255.049 82.4534C255.024 82.4218 255.004 82.3839 254.99 82.3422C254.977 82.3004 254.971 82.2557 254.972 82.2107C254.972 82.1477 254.982 82.0853 255.002 82.0276L255.063 81.8658C255.084 81.7981 255.095 81.7257 255.093 81.6529C255.095 81.54 255.066 81.4298 255.012 81.34C254.953 81.2458 254.873 81.1754 254.783 81.1376C254.684 81.0969 254.582 81.0711 254.479 81.0609V83.3901L254.513 83.4157C254.83 83.6275 255.118 83.9021 255.367 84.229C255.477 84.3932 255.564 84.5796 255.625 84.7805C255.685 84.9751 255.717 85.1823 255.718 85.3915C255.72 85.6622 255.664 85.9287 255.556 86.1622C255.449 86.3901 255.293 86.5748 255.107 86.6944C254.909 86.8164 254.697 86.8942 254.479 86.9244V87.6185H254.327V86.9372C254.107 86.9349 253.889 86.8785 253.686 86.7711C253.483 86.676 253.304 86.5143 253.168 86.3027C253.047 86.113 252.983 85.877 252.984 85.6342C252.979 85.4636 253.021 85.2963 253.102 85.1593C253.134 85.1003 253.177 85.0518 253.226 85.0181C253.276 84.9844 253.332 84.9664 253.389 84.9657C253.423 84.9642 253.457 84.9715 253.488 84.9872C253.52 85.0029 253.548 85.0266 253.573 85.0569C253.597 85.0871 253.615 85.1233 253.628 85.1632C253.64 85.2031 253.646 85.2457 253.645 85.2886C253.634 85.4197 253.59 85.543 253.52 85.6412C253.484 85.702 253.453 85.7675 253.428 85.8367C253.41 85.8906 253.402 85.9484 253.402 86.0066C253.403 86.1619 253.445 86.3123 253.522 86.4335C253.606 86.5692 253.717 86.674 253.844 86.7372C253.989 86.8086 254.144 86.8433 254.3 86.8392H254.327V84.0587L254.135 83.9182C253.952 83.7848 253.813 83.6741 253.718 83.586C253.624 83.5005 253.538 83.4035 253.46 83.2965C253.266 83.0359 253.158 82.6915 253.159 82.3341C253.158 82.1116 253.202 81.8925 253.287 81.6976C253.371 81.5031 253.493 81.3394 253.642 81.2228C253.849 81.065 254.085 80.9756 254.327 80.963ZM254.327 81.0567C254.196 81.0618 254.067 81.0979 253.947 81.163C253.827 81.2381 253.729 81.3584 253.665 81.5072C253.593 81.6692 253.555 81.8525 253.557 82.0384C253.556 82.2652 253.611 82.4867 253.715 82.6716C253.77 82.7723 253.837 82.8625 253.912 82.9395C254.034 83.0542 254.161 83.1592 254.293 83.2539L254.327 83.2795V81.0567ZM254.479 86.8307C254.566 86.8216 254.652 86.7987 254.734 86.7626C254.801 86.7299 254.864 86.6839 254.919 86.6263C255.023 86.5144 255.104 86.3718 255.154 86.2112C255.213 86.0339 255.243 85.8434 255.242 85.6512C255.228 85.3428 255.151 85.0442 255.017 84.7856C254.883 84.5269 254.697 84.3174 254.479 84.1779V86.8307Z" fill="white"/>
<path d="M123.056 90.3591C122.429 90.3019 121.8 90.4189 121.212 90.7019C120.625 90.9848 120.094 91.4268 119.656 91.9967C119.219 92.5667 118.886 93.2507 118.681 94.0005C118.475 94.7504 118.403 95.548 118.469 96.337L104.629 104.523L111.403 109.755L123.507 101.18C124.55 100.953 125.491 100.252 126.152 99.2079C126.812 98.1642 127.147 96.851 127.091 95.5172C127.036 94.1834 126.594 92.9216 125.851 91.971C125.107 91.0203 124.113 90.4468 123.056 90.3591Z" fill="#FFB6B6"/>
<path d="M65.7884 247.85L70.568 247.849L72.8419 224.591L65.7876 224.591L65.7884 247.85Z" fill="#FFB6B6"/>
<path d="M64.5693 245.881L73.982 245.881H73.9824C75.5732 245.881 77.0989 246.678 78.2238 248.097C79.3487 249.516 79.9808 251.441 79.9809 253.448V253.694L64.5696 253.695L64.5693 245.881Z" fill="#2F2E41"/>
<path d="M90.1768 247.85L94.9564 247.849L97.2303 224.591L90.176 224.591L90.1768 247.85Z" fill="#FFB6B6"/>
<path d="M88.9578 245.881L98.3704 245.881H98.3708C99.9617 245.881 101.487 246.678 102.612 248.097C103.737 249.516 104.369 251.441 104.369 253.448V253.694L88.9581 253.695L88.9578 245.881Z" fill="#2F2E41"/>
<path d="M93.3697 127.212L95.7955 133.801L100.169 192.729L96.7693 243.378H88.8181L79.4358 163.543L75.0288 241.539L64.3003 240.992L62.2407 135.247L93.3697 127.212Z" fill="#2F2E41"/>
<path d="M54.7113 72.8329L64.7688 67.6705L78.9646 68.6749L91.5849 74.4774L95.7955 133.801C84.8162 141.365 73.6944 143.43 62.3792 138.021L51.8777 99.3821L54.7113 72.8329Z" fill="#E4E4E4"/>
<path d="M87.6585 76.0457L92.1216 74.4774C92.1216 74.4774 95.4974 71.7081 96.6081 79.9401C97.7187 88.172 103.434 100.976 103.434 100.976L113.217 94.3983L117.747 106.878L102.296 118.686L86.0259 98.0027L87.6585 76.0457Z" fill="#E4E4E4"/>
<path d="M63.1772 56.6794C62.6352 55.1278 62.3408 53.4566 62.3107 51.7614C62.2806 50.0662 62.5154 48.3802 63.0018 46.7995C63.4882 45.2188 64.2166 43.7744 65.1454 42.5489C66.0742 41.3233 67.1853 40.3406 68.4152 39.6568C69.645 38.973 70.9696 38.6015 72.3132 38.5635C73.6569 38.5256 74.9933 38.8219 76.2462 39.4355C77.4991 40.0492 78.6439 40.9681 79.6153 42.14C80.5867 43.3118 81.3656 44.7136 81.9076 46.2652L81.9661 46.436C83.043 49.5801 83.0858 53.1352 82.0851 56.3191C81.5896 57.8956 80.8528 59.3336 79.9169 60.5508C78.9809 61.7681 77.8641 62.7409 76.6301 63.4136C74.138 64.7723 71.3202 64.8263 68.7966 63.5637C66.273 62.3012 64.2502 59.8256 63.1733 56.6815L63.1772 56.6794Z" fill="#FFB6B6"/>
<path d="M77.0714 44.862C79.1994 45.3491 82.4927 47.0394 84.3204 45.0564C83.4177 43.7258 82.2823 42.678 81.0038 41.9958C80.7519 41.8904 80.5188 41.7242 80.3173 41.5063C79.6942 40.7119 80.1756 39.3429 79.8905 38.2688C79.752 37.8762 79.5432 37.5297 79.2804 37.2563C79.0177 36.983 78.7082 36.7904 78.3764 36.6937C77.7421 36.4542 77.0773 36.4154 76.4542 36.125C74.9795 35.4257 73.9311 33.4247 72.4196 32.8809C71.1025 32.4003 69.7773 33.1472 68.6407 34.0189C67.5041 34.8906 66.3797 35.9249 65.0499 36.0903C64.0563 36.2047 63.4272 38.2668 62.4297 38.3272C60.3392 38.4555 60.4553 36.7172 60.3007 39.4879C60.2115 41.1413 58.3389 44.4305 58.3693 46.0983C58.4003 47.1911 58.247 48.2735 58.2718 49.3697C58.328 51.4575 58.9917 53.446 60.1362 54.9556C61.0879 56.1904 62.3258 57.0232 63.1269 58.4307C63.5435 59.1779 63.8326 60.0501 64.3175 60.7262C64.8025 61.4022 65.624 61.8091 66.1653 61.3265C66.7065 60.8438 66.7166 59.7992 66.9852 59.0043C67.1499 58.517 67.4313 58.1068 67.79 57.8313C68.1487 57.5559 68.5668 57.4288 68.9855 57.468C69.4205 57.5397 69.8309 57.7632 70.1707 58.1131C70.5105 58.4631 70.7662 58.9258 70.9089 59.449C70.6555 57.6924 69.9873 56.0465 69.7333 54.2885C69.4794 52.5305 69.8103 50.4305 71.0102 49.7441C71.5253 49.4417 72.2212 49.3604 72.4283 48.6635C72.5551 48.2437 72.4391 47.7478 72.488 47.2937C72.7516 45.0689 75.6838 44.5184 77.0714 44.862Z" fill="#2F2E41"/>
<path d="M63.585 137.335C63.4933 136.551 63.2663 135.801 62.92 135.138C62.5737 134.476 62.1165 133.918 61.5807 133.503C61.0449 133.088 60.4434 132.826 59.8187 132.736C59.194 132.645 58.5612 132.729 57.9649 132.981L48.6308 117.71L46.0503 127.188L55.3097 140.236C55.7114 141.472 56.4583 142.479 57.4091 143.066C58.3599 143.653 59.4485 143.78 60.4685 143.423C61.4885 143.065 62.3692 142.248 62.9435 141.126C63.5179 140.004 63.7462 138.655 63.585 137.335Z" fill="#FFB6B6"/>
<path d="M57.9352 75.7132L54.7112 72.8329C54.7112 72.8329 47.3354 72.2999 46.2624 79.9401L32.738 108.009L49.5066 137.196L57.6364 126.399L47.3783 111.275L55.9911 91.3233L57.9352 75.7132Z" fill="#E4E4E4"/>
<path d="M136.483 80.1608H136.314V74.315C136.314 73.8707 136.244 73.4307 136.11 73.0203C135.975 72.6098 135.777 72.2368 135.528 71.9226C135.279 71.6084 134.984 71.3592 134.658 71.1892C134.333 71.0191 133.984 70.9316 133.632 70.9316H123.815C123.463 70.9316 123.114 71.0191 122.789 71.1892C122.464 71.3592 122.168 71.6084 121.919 71.9226C121.67 72.2368 121.472 72.6098 121.338 73.0203C121.203 73.4307 121.134 73.8707 121.134 74.315V106.386C121.134 106.83 121.203 107.27 121.338 107.68C121.472 108.091 121.67 108.464 121.919 108.778C122.168 109.092 122.464 109.341 122.789 109.511C123.114 109.681 123.463 109.769 123.815 109.769H133.632C133.984 109.769 134.333 109.681 134.658 109.511C134.984 109.341 135.279 109.092 135.528 108.778C135.777 108.464 135.975 108.091 136.11 107.68C136.244 107.27 136.314 106.83 136.314 106.386V84.322H136.483V80.1608Z" fill="#3F3D56"/>
<path d="M133.74 71.8119H132.459C132.518 71.9942 132.54 72.1919 132.524 72.3878C132.508 72.5836 132.455 72.7715 132.368 72.9348C132.28 73.0982 132.163 73.2321 132.025 73.3247C131.888 73.4172 131.734 73.4657 131.578 73.4657H125.954C125.798 73.4657 125.644 73.4172 125.507 73.3247C125.369 73.2321 125.251 73.0982 125.164 72.9348C125.077 72.7714 125.023 72.5836 125.008 72.3877C124.992 72.1919 125.014 71.9942 125.073 71.8119H123.876C123.345 71.8119 122.836 72.0781 122.46 72.5519C122.085 73.0258 121.874 73.6685 121.874 74.3386V106.362C121.874 107.032 122.085 107.675 122.46 108.149C122.836 108.623 123.345 108.889 123.876 108.889H133.74C134.271 108.889 134.781 108.623 135.156 108.149C135.532 107.675 135.743 107.032 135.743 106.362V74.3386C135.743 73.6684 135.532 73.0258 135.156 72.5519C134.781 72.0781 134.271 71.8119 133.74 71.8119Z" fill="#25A38B"/>
<path d="M222.287 60.4079H150.299C149.855 60.4073 149.43 60.1846 149.116 59.7886C148.802 59.3926 148.625 58.8558 148.625 58.2958V2.11217C148.625 1.55219 148.802 1.01532 149.116 0.619347C149.43 0.223378 149.855 0.000640864 150.299 0H222.287C222.731 0.000640867 223.156 0.223377 223.47 0.619347C223.784 1.01532 223.961 1.55219 223.961 2.11217V58.2958C223.961 58.8558 223.784 59.3926 223.47 59.7886C223.156 60.1846 222.731 60.4073 222.287 60.4079Z" fill="white"/>
<path d="M222.287 60.4079H150.299C149.855 60.4073 149.43 60.1846 149.116 59.7886C148.802 59.3926 148.625 58.8558 148.625 58.2958V2.11217C148.625 1.55219 148.802 1.01532 149.116 0.619347C149.43 0.223378 149.855 0.000640864 150.299 0H222.287C222.731 0.000640867 223.156 0.223377 223.47 0.619347C223.784 1.01532 223.961 1.55219 223.961 2.11217V58.2958C223.961 58.8558 223.784 59.3926 223.47 59.7886C223.156 60.1846 222.731 60.4073 222.287 60.4079ZM150.299 0.844867C150.033 0.845234 149.777 0.978873 149.589 1.21646C149.401 1.45404 149.295 1.77617 149.294 2.11217V58.2958C149.295 58.6318 149.401 58.9539 149.589 59.1915C149.777 59.4291 150.033 59.5627 150.299 59.5631H222.287C222.553 59.5627 222.809 59.4291 222.997 59.1915C223.185 58.9539 223.291 58.6318 223.292 58.2958V2.11217C223.291 1.77617 223.185 1.45404 222.997 1.21646C222.809 0.978873 222.553 0.845234 222.287 0.844867H150.299Z" fill="#3F3D56"/>
<path d="M208.057 18.7637H164.529C164.13 18.7637 163.746 18.5635 163.464 18.207C163.181 17.8505 163.022 17.3669 163.022 16.8628C163.022 16.3586 163.181 15.8751 163.464 15.5186C163.746 15.1621 164.13 14.9618 164.529 14.9618H208.057C208.457 14.9618 208.84 15.1621 209.122 15.5186C209.405 15.8751 209.564 16.3586 209.564 16.8628C209.564 17.3669 209.405 17.8505 209.122 18.207C208.84 18.5635 208.457 18.7637 208.057 18.7637Z" fill="#CCCCCC"/>
<path d="M208.057 31.8592H164.529C164.13 31.8592 163.746 31.6589 163.464 31.3024C163.181 30.9459 163.022 30.4624 163.022 29.9582C163.022 29.454 163.181 28.9705 163.464 28.614C163.746 28.2575 164.13 28.0573 164.529 28.0573H208.057C208.457 28.0573 208.84 28.2575 209.122 28.614C209.405 28.9705 209.564 29.454 209.564 29.9582C209.564 30.4624 209.405 30.9459 209.122 31.3024C208.84 31.6589 208.457 31.8592 208.057 31.8592Z" fill="#CCCCCC"/>
<path d="M204.179 52.6222C207.153 52.6222 209.563 49.5807 209.563 45.8288C209.563 42.0768 207.153 39.0353 204.179 39.0353C201.205 39.0353 198.794 42.0768 198.794 45.8288C198.794 49.5807 201.205 52.6222 204.179 52.6222Z" fill="#25A38B"/>
<path d="M204.327 42.6284V41.9812H204.479V42.6284C204.694 42.6402 204.905 42.7053 205.1 42.82C205.241 42.9039 205.363 43.0322 205.454 43.1927C205.538 43.3412 205.583 43.5191 205.582 43.7015C205.586 43.8348 205.55 43.9649 205.483 44.0677C205.454 44.1145 205.417 44.1523 205.374 44.1781C205.332 44.2039 205.285 44.2171 205.238 44.2167C205.203 44.2176 205.168 44.2093 205.136 44.1925C205.103 44.1756 205.074 44.1506 205.049 44.1188C205.024 44.0872 205.004 44.0493 204.99 44.0076C204.977 43.9658 204.971 43.9211 204.972 43.8761C204.972 43.8131 204.982 43.7508 205.002 43.693L205.063 43.5312C205.084 43.4635 205.095 43.3911 205.093 43.3183C205.095 43.2054 205.066 43.0952 205.012 43.0054C204.953 42.9112 204.873 42.8408 204.783 42.803C204.684 42.7623 204.582 42.7365 204.479 42.7264V45.0555L204.513 45.0811C204.83 45.293 205.118 45.5675 205.367 45.8944C205.477 46.0586 205.564 46.245 205.625 46.4459C205.685 46.6406 205.717 46.8477 205.718 47.0569C205.72 47.3276 205.664 47.5942 205.556 47.8276C205.449 48.0555 205.293 48.2402 205.107 48.3598C204.909 48.4818 204.697 48.5596 204.479 48.5898V49.2839H204.327V48.6026C204.107 48.6003 203.889 48.5439 203.686 48.4365C203.483 48.3414 203.304 48.1797 203.168 47.9681C203.047 47.7784 202.983 47.5424 202.984 47.2996C202.979 47.129 203.021 46.9617 203.102 46.8247C203.134 46.7657 203.177 46.7173 203.226 46.6835C203.276 46.6498 203.332 46.6318 203.389 46.6311C203.423 46.6296 203.457 46.6369 203.488 46.6526C203.52 46.6683 203.548 46.692 203.573 46.7223C203.597 46.7526 203.615 46.7887 203.628 46.8286C203.64 46.8685 203.646 46.9111 203.645 46.954C203.634 47.0851 203.59 47.2084 203.52 47.3066C203.484 47.3674 203.453 47.4329 203.428 47.5021C203.41 47.556 203.402 47.6138 203.402 47.672C203.403 47.8273 203.445 47.9777 203.522 48.0989C203.606 48.2346 203.717 48.3394 203.844 48.4026C203.989 48.474 204.144 48.5087 204.3 48.5046H204.327V45.7241L204.135 45.5836C203.952 45.4502 203.813 45.3395 203.718 45.2514C203.624 45.1659 203.538 45.069 203.46 44.9619C203.266 44.7013 203.158 44.357 203.159 43.9995C203.158 43.777 203.202 43.5579 203.287 43.363C203.371 43.1685 203.493 43.0048 203.642 42.8882C203.849 42.7304 204.085 42.641 204.327 42.6284ZM204.327 42.7221C204.196 42.7272 204.067 42.7633 203.947 42.8284C203.827 42.9035 203.729 43.0238 203.665 43.1726C203.593 43.3346 203.555 43.5179 203.557 43.7038C203.556 43.9306 203.611 44.1522 203.715 44.3371C203.77 44.4377 203.837 44.5279 203.912 44.6049C204.034 44.7196 204.161 44.8246 204.293 44.9193L204.327 44.9449V42.7221ZM204.479 48.4961C204.566 48.487 204.652 48.4641 204.734 48.428C204.801 48.3953 204.864 48.3493 204.919 48.2917C205.023 48.1798 205.104 48.0372 205.154 47.8766C205.213 47.6993 205.243 47.5088 205.242 47.3166C205.228 47.0082 205.151 46.7096 205.017 46.451C204.883 46.1923 204.697 45.9828 204.479 45.8433V48.4961Z" fill="white"/>
<path d="M146.924 254H0.384617C0.28261 254 0.184781 253.949 0.112651 253.858C0.0405217 253.767 0 253.643 0 253.515C0 253.386 0.0405217 253.263 0.112651 253.172C0.184781 253.081 0.28261 253.029 0.384617 253.029H146.924C147.026 253.029 147.123 253.081 147.196 253.172C147.268 253.263 147.308 253.386 147.308 253.515C147.308 253.643 147.268 253.767 147.196 253.858C147.123 253.949 147.026 254 146.924 254Z" fill="#CACACA"/>
</g>
<defs>
<clipPath id="clip0_530_235">
<rect width="323" height="254" fill="white"/>
</clipPath>
</defs>
</svg>
