<svg width="248" height="116" viewBox="0 0 248 116" fill="none" xmlns="http://www.w3.org/2000/svg">
<g clip-path="url(#clip0_402_666)">
<path d="M186.53 4.48161C184.657 5.22119 181.633 2.29587 180.948 3.72677C180.262 5.15767 181.922 10.9313 182.778 12.316C183.204 13.0043 183.806 13.6337 184.223 14.3244C184.641 15.0151 184.865 15.8093 184.496 16.5135C183.853 17.7389 181.733 18.2374 180.682 19.3145C179.458 20.569 179.952 22.2587 180.524 23.7255C181.018 24.9899 181.543 26.2657 182.493 27.3943C183.443 28.5229 184.874 29.5055 186.664 29.8789C188.941 30.3544 191.376 29.7894 193.572 29.1515C195.683 28.5382 197.772 27.843 199.567 26.8508C201.363 25.8587 202.861 24.5417 203.489 22.9987C204.276 21.0632 203.618 18.945 202.255 17.1744C200.892 15.4038 198.875 13.9286 196.806 12.536C193.321 10.1904 189.612 8.00892 185.713 6.01091L186.53 4.48161Z" fill="#2F2E41"/>
<path d="M214.395 103.795L212.626 115.392L212.545 115.922L192.533 115.867L192.427 115.335L190.309 104.709L214.395 103.795Z" fill="#FFB6B6"/>
<path d="M183.796 115.312C183.796 115.487 183.794 115.664 183.791 115.843L163.016 115.786L162.949 115.254L161.668 105.167L183.15 103.337C183.15 103.337 183.842 108.688 183.796 115.312Z" fill="#FFB6B6"/>
<path d="M181.484 25.0251C184.784 27.9451 190.602 28.7913 195.298 27.0532C202 24.5722 211.151 21.7287 212.768 24.0008C215.372 27.659 215.372 31.2091 215.372 31.2091L217.976 73.8434C217.976 73.8434 219.278 91.0577 203.004 89.5383C186.729 88.0188 161.341 94.4206 161.341 94.4206L163.934 75.5333L170.859 68.4122L173.664 47.9819L168.827 31.5458L174.686 29.7167C174.686 29.7167 175.337 26.5158 177.29 26.5158C179.243 26.5158 179.714 23.4409 181.432 24.9784C181.449 24.9937 181.466 25.0093 181.484 25.0251Z" fill="#25A38B"/>
<path d="M216.79 115.935L212.545 115.922L192.533 115.867L189.929 115.86L189.778 115.328L185.751 101.052L185.122 115.316L185.1 115.846L183.791 115.843L163.016 115.786L161.527 115.781L161.522 115.251L161.434 105.168L161.353 95.832L161.341 94.4198L161.343 94.418L167.563 85.5607L169.378 82.9765L169.75 82.4463L173.384 77.2726L206.262 74.0751L206.765 74.0256L215.698 73.1577L215.764 75.7295L215.802 77.1895L215.935 82.4463L215.95 82.9765L215.965 83.5828L216.775 115.403L216.79 115.935Z" fill="#2F2E41"/>
<path d="M191.211 23.6689C198.719 23.6689 204.806 19.3934 204.806 14.1192C204.806 8.84502 198.719 4.56946 191.211 4.56946C183.702 4.56946 177.615 8.84502 177.615 14.1192C177.615 19.3934 183.702 23.6689 191.211 23.6689Z" fill="#FFB6B6"/>
<path d="M206.536 29.0753C203.363 32.2549 201.74 36.1833 201.998 40.0621C198.4 38.8379 195.972 36.2515 195.146 33.5041C194.319 30.7567 194.95 27.8719 196.278 25.2233C196.291 25.1968 196.304 25.1704 196.318 25.1439C198.334 21.1684 196.461 16.7253 191.59 14.254C188.305 12.587 185.456 10.4957 183.269 8.09857C182.035 6.74526 180.986 5.04761 181.908 3.57664C182.758 2.22119 184.953 1.58767 186.973 1.16378C191.586 0.195853 196.488 -0.354912 201.223 0.257566C205.958 0.870043 210.516 2.78274 212.754 5.77716C214.992 8.77157 214.405 12.8582 210.773 15.078C211.919 15.3382 212.729 16.1912 212.632 17.0341C212.535 17.8771 211.539 18.6272 210.349 18.7543C211.125 18.735 211.584 19.4534 211.307 19.9634C211.03 20.4735 210.316 20.7903 209.634 21.0528C208.664 21.4267 207.588 21.8177 207.584 22.7969C207.582 23.1896 207.782 23.5706 208.107 23.8897C208.896 24.663 210.171 25.0113 211.397 25.3383C208.803 25.875 206.734 27.5037 206.27 29.3751L206.536 29.0753Z" fill="#2F2E41"/>
<path d="M148.564 25.381C148.193 22.6469 149.901 20.2961 152.378 20.1306C154.855 19.965 157.163 22.0471 157.534 24.7823C157.703 25.8734 157.498 26.9772 156.936 28.0013L158.3 39.5999L150.537 39.9334L150.017 28.4638C149.189 27.5324 148.691 26.4754 148.564 25.381Z" fill="#FFB6B6"/>
<path d="M190.854 30.8833C190.854 30.8833 178.173 25.6433 175.562 26.4293C172.951 27.2153 160.27 40.5772 160.27 40.5772L159.104 38.1388L150.199 38.7433C150.199 38.7433 144.977 55.7731 156.54 54.2012C168.102 52.6292 187.125 37.9573 187.125 37.9573L190.854 30.8833Z" fill="#25A38B"/>
<path d="M73.199 59.0379C73.199 59.0379 80.3593 56.0892 82.2875 58.8233C84.2158 61.5575 102.03 94.1753 102.03 94.1753L90.5506 95.7453L73.199 59.0379Z" fill="#25A38B"/>
<path d="M57.5819 39.5528L57.9194 39.8904C56.661 40.4006 56.4755 41.688 57.0656 42.6221C57.6556 43.5563 58.7977 44.2486 59.7856 44.9991C60.7735 45.7495 61.6742 46.679 61.5826 47.6995C61.4798 48.8471 60.1477 49.7922 59.9622 50.9352C59.694 52.5994 61.9 54.0595 61.7905 55.7331C61.7078 57.011 60.3086 58.0378 58.9207 58.8667C57.8344 59.5167 56.6521 60.1698 55.919 61.0082C55.7178 61.239 55.5502 61.4855 55.4273 61.7492C54.8797 62.9393 55.396 64.2361 56.0911 65.3869C56.7839 66.5377 57.6668 67.6618 57.8836 68.9021C58.0981 70.1424 57.4321 71.5742 55.8072 72.0829C59.0436 71.8882 62.2017 71.0953 64.8815 69.8064C65.1229 69.6902 65.3576 69.5709 65.5901 69.4484C69.3897 67.4389 72.0583 64.536 74.6264 61.7068C74.8387 61.4745 75.0488 61.2406 75.2611 61.0082C75.8311 60.3786 76.4033 59.7507 76.9754 59.1211C78.607 57.3219 80.2587 55.496 81.1483 53.4581C81.9663 51.5789 82.1049 49.5929 82.4401 47.6414C82.6033 46.6853 82.8179 45.7323 82.8581 44.7699C82.9229 43.2894 82.5631 41.8026 81.83 40.4132C81.1125 39.0473 80.0352 37.774 78.6472 36.6907C77.2258 35.5808 75.4869 34.678 73.5737 34.028C71.7208 33.3985 69.7048 33.0075 67.6508 32.8992C66.9624 32.8631 66.2762 32.8568 65.5901 32.8788C62.8834 32.9573 60.208 33.4377 57.6065 34.028C55.6932 34.678 53.9544 35.5808 52.5329 36.6907C51.1449 37.774 50.0676 39.0473 49.3502 40.4132C51.8445 39.4774 54.8082 39.1556 57.5819 39.5528Z" fill="#2F2E41"/>
<path d="M76.9793 56.7282L64.146 53.1931L63.8211 56.7282L52.5709 57.9655L47.2866 74.7574L52.0676 85.186L87.7996 85.8931L86.5414 82.3579C86.5414 82.3579 92.329 77.7623 88.8061 70.3385L88.4149 68.4491C87.392 63.5092 83.1689 59.1809 76.9793 56.7282Z" fill="#25A38B"/>
<path d="M69.8366 53.0342C76.132 53.0342 81.2354 49.4494 81.2354 45.0273C81.2354 40.6052 76.132 37.0204 69.8366 37.0204C63.5413 37.0204 58.4379 40.6052 58.4379 45.0273C58.4379 49.4494 63.5413 53.0342 69.8366 53.0342Z" fill="#A0616A"/>
<path d="M48.322 44.7699C48.3622 45.7323 48.5768 46.6853 48.74 47.6414C49.0752 49.5929 49.2138 51.5789 50.0318 53.4581C50.9214 55.496 52.5731 57.3219 54.2047 59.1211C54.7769 59.7507 55.349 60.3786 55.919 61.0082C56.1313 61.2406 56.3414 61.4745 56.5537 61.7069C59.1218 64.536 61.7905 67.4389 65.5901 69.4484C65.8225 69.5709 66.0572 69.6902 66.2986 69.8064C68.9784 71.0954 72.1365 71.8882 75.3729 72.0829C73.748 71.5742 73.082 70.1424 73.2965 68.9021C73.5133 67.6618 74.3962 66.5377 75.089 65.3869C75.7841 64.2361 76.3004 62.9393 75.7528 61.7492C75.6299 61.4855 75.4623 61.239 75.2611 61.0082C74.528 60.1698 73.3457 59.5167 72.2595 58.8667C70.8715 58.0378 69.4723 57.011 69.3896 55.7331C69.2801 54.0595 67.7581 54.6199 67.4899 52.9558C67.3043 51.8128 65.1341 49.8645 65.0313 48.7168C64.9397 47.6963 65.8314 45.2283 66.8193 44.4779C67.8072 43.7274 66.8998 41.4871 67.4898 40.5529C68.0799 39.6188 74.5191 40.4006 73.2608 39.8904L73.5983 39.5528C76.372 39.1556 79.3356 39.4774 81.83 40.4132C82.3731 40.6157 82.8916 40.8465 83.3833 41.1071C84.5701 39.5842 83.1621 37.6516 81.2466 36.5542C79.3714 35.4771 77.0604 34.8554 74.7672 34.3075C74.3716 34.2133 73.9738 34.1191 73.5737 34.028C70.9721 33.4377 68.2967 32.9573 65.59 32.8788C64.9039 32.8568 64.2177 32.8631 63.5293 32.8992C61.4753 33.0076 59.4593 33.3985 57.6064 34.028C55.6932 34.678 53.9544 35.5808 52.5329 36.6907C51.1449 37.774 50.0676 39.0473 49.3501 40.4132C48.617 41.8026 48.2572 43.2894 48.322 44.7699Z" fill="#2F2E41"/>
<path d="M247.296 108.778L231.408 85.3274C230.223 83.5775 227.674 82.4463 224.913 82.4463H24.2304C23.4679 82.4463 22.7257 82.5294 22.0261 82.6884C20.2571 83.0861 18.7524 83.9558 17.8616 85.1507L0.830957 107.956C-0.346671 109.531 -0.26865 111.383 1.03983 112.907C2.3458 114.432 4.63821 115.348 7.17217 115.355L161.527 115.781L163.016 115.786L183.791 115.843L185.1 115.846L189.929 115.86L192.533 115.867L212.545 115.922L216.79 115.935L240.774 116H240.804C243.28 116 245.547 115.123 246.876 113.654C248.209 112.178 248.365 110.354 247.296 108.778Z" fill="white"/>
<path d="M247.296 108.778L231.408 85.3274C230.223 83.5775 227.674 82.4463 224.913 82.4463H24.2304C23.4679 82.4463 22.7257 82.5294 22.0261 82.6884C20.2571 83.0861 18.7524 83.9558 17.8616 85.1507L0.830957 107.956C-0.346671 109.531 -0.26865 111.383 1.03983 112.907C2.3458 114.432 4.63821 115.348 7.17217 115.355L161.527 115.781L163.016 115.786L183.791 115.843L185.1 115.846L189.929 115.86L192.533 115.867L212.545 115.922L216.79 115.935L240.774 116H240.804C243.28 116 245.547 115.123 246.876 113.654C248.209 112.178 248.365 110.354 247.296 108.778ZM246.239 113.37C245.049 114.687 243.021 115.47 240.804 115.47H240.776L216.775 115.403L212.626 115.392L192.427 115.335L189.778 115.328L185.122 115.316L183.796 115.312L162.948 115.254L161.522 115.251L7.17463 114.825C4.90747 114.817 2.8541 113.999 1.68655 112.635C0.516412 111.27 0.44601 109.612 1.50034 108.201L18.5309 85.3981C19.1449 84.5762 20.0809 83.9257 21.2007 83.5068C22.1141 83.1639 23.1509 82.9766 24.2304 82.9766H224.913C227.384 82.9766 229.664 83.9894 230.726 85.5554L246.614 109.004C247.573 110.418 247.432 112.049 246.239 113.37Z" fill="#3F3D56"/>
<path d="M71.3176 99.415L109.314 89.6933L90.3159 84.3259L52.4451 91.2842L71.3176 99.415Z" fill="#F2F2F2"/>
<path d="M129.193 84.7441L124.916 94.289L174.991 96.4101L170.713 85.6279L129.193 84.7441Z" fill="#F2F2F2"/>
<path d="M70.1669 86.3768C73.6876 86.6221 76.3613 88.0969 76.1388 89.6708C75.9162 91.2447 72.882 92.3213 69.36 92.0756C67.9512 91.9911 66.5918 91.6707 65.3954 91.1414L50.4965 89.97L51.4281 85.0706L66.0169 86.7456C67.3384 86.3916 68.7615 86.2652 70.1669 86.3768Z" fill="#A0616A"/>
<path d="M55.213 58.9376L52.5709 57.9655C52.5709 57.9655 48.4189 58.0538 45.6509 59.9982C42.883 61.9425 20.4876 84.2138 20.4876 84.2138C20.4876 84.2138 14.9516 90.2235 28.7915 91.1073C42.6313 91.9911 57.981 91.9911 57.981 91.9911L59.2391 84.7441L38.3535 83.1533L52.979 69.543L55.213 58.9376Z" fill="#25A38B"/>
<path d="M133.73 56.5833C131.191 57.1118 128.509 57.4105 125.738 57.4388C125.575 57.4423 125.411 57.4441 125.248 57.4441C122.741 57.4441 120.308 57.2267 117.981 56.8166L118.041 56.3977L119.395 47.2258L119.48 46.639L118.225 43.9929H133.63L133.383 46.5789L133.292 47.521L133.426 47.8197L136.823 55.4238L136.974 55.7632C135.922 56.0796 134.84 56.3535 133.73 56.5833Z" fill="#25A38B"/>
<path d="M117.981 56.8166C114.324 56.175 110.932 55.0579 107.945 53.5679C106.715 53.0994 105.52 52.5922 104.375 52.0548L104.941 51.8551L119.166 46.8582L119.395 47.2258L125.519 57.0888L125.738 57.4388C125.575 57.4424 125.411 57.4441 125.248 57.4441C122.741 57.4441 120.308 57.2267 117.981 56.8166Z" fill="#2F2E41"/>
<path d="M148.972 49.2303C148.909 49.2903 148.843 49.3487 148.778 49.407C147.716 50.3544 146.538 51.2347 145.265 52.0389L145.255 51.567L145.22 49.8295C145.22 49.8295 146.236 49.308 147.492 49.1719C147.792 49.1384 148.106 49.1277 148.423 49.1525C148.607 49.1649 148.788 49.1896 148.972 49.2303Z" fill="#2F2E41"/>
<path d="M145.265 52.0388C142.829 53.5819 140.031 54.8475 136.974 55.7631C135.922 56.0795 134.84 56.3535 133.73 56.5833L133.718 56.2174L133.426 47.8197L133.383 46.5789L147.492 49.1719L148.242 49.3097L148.778 49.407C147.716 50.3544 146.538 51.2346 145.265 52.0388Z" fill="#2F2E41"/>
<path d="M126.072 41.1256C132.314 41.1256 137.373 37.5715 137.373 33.1874C137.373 28.8033 132.314 25.2493 126.072 25.2493C119.831 25.2493 114.771 28.8033 114.771 33.1874C114.771 37.5715 119.831 41.1256 126.072 41.1256Z" fill="#A0616A"/>
<path d="M133.719 56.2175C131.117 56.7689 128.366 57.0712 125.52 57.0889L125.739 57.4388C128.51 57.4106 131.192 57.1119 133.731 56.5834L133.719 56.2175ZM104.942 51.8551C99.1418 48.0902 95.4603 42.738 95.3119 36.7919C89.391 41.6068 95.2741 47.7862 104.376 52.0548C105.521 52.5922 106.716 53.0995 107.946 53.5679C106.892 53.0429 105.888 52.4702 104.942 51.8551ZM148.681 23.3284C143.19 18.4853 134.728 15.3761 125.249 15.3761C108.739 15.3761 95.3044 24.8114 95.3044 36.4101C95.3044 36.5374 95.3069 36.6647 95.3119 36.7919C95.4679 36.6629 95.6339 36.5356 95.8076 36.4101C104.112 30.4004 109.016 15.7296 125.249 15.7296C134.738 15.7296 143.193 18.8989 148.58 23.8109C152.41 27.3001 154.69 31.6713 154.69 36.4101C154.69 37.0977 154.642 37.7782 154.546 38.4481C154.486 38.8936 154.403 39.3354 154.3 39.772C153.55 42.9802 151.746 45.9444 149.146 48.4773C148.912 48.7071 148.671 48.9316 148.424 49.1525C148.364 49.2055 148.306 49.2586 148.243 49.3098C147.327 50.1141 146.328 50.8688 145.256 51.567C142.798 53.172 139.949 54.4835 136.824 55.4238C135.817 55.7296 134.781 55.9947 133.719 56.2175C131.117 56.7689 128.366 57.0712 125.52 57.0889C125.43 57.0906 125.339 57.0906 125.249 57.0906C122.969 57.0906 120.526 56.8449 118.042 56.3978C114.65 55.7879 111.18 54.8052 107.946 53.5679C110.933 55.0579 114.325 56.175 117.982 56.8167C120.309 57.2267 122.742 57.4442 125.249 57.4442C125.412 57.4442 125.576 57.4424 125.739 57.4388C128.51 57.4106 131.192 57.1119 133.731 56.5834C134.841 56.3536 135.923 56.0796 136.975 55.7632C140.032 54.8476 142.83 53.582 145.266 52.0389C146.539 51.2347 147.717 50.3545 148.779 49.407C148.844 49.3487 148.91 49.2904 148.973 49.2303C149.058 49.1525 149.144 49.073 149.227 48.9934C152.073 46.3297 154.036 43.1764 154.816 39.7491C154.916 39.3089 154.997 38.8635 155.057 38.4128C155.148 37.7535 155.193 37.0853 155.193 36.4101C155.193 31.4698 152.757 26.9218 148.681 23.3284Z" fill="#E6E6E6"/>
<path d="M115.951 37.4104C113.917 36.0629 112.499 34.2767 113.918 30.469C114.024 30.1856 113.741 29.8812 113.467 29.6599C113.194 29.4386 112.678 29.3358 112.354 29.5199C112.585 29.0419 115.751 27.3345 115.983 26.8565C115.713 27.108 113.654 27.6471 113.489 27.3543C113.324 27.0615 113.468 26.7324 113.613 26.4344L114.478 24.6579C114.695 24.211 115.553 24.7449 115.983 24.3819C116.753 23.7315 115.874 23.046 117.05 22.8637C120.899 22.2669 124.979 21.7338 128.719 22.6096C130.352 22.9922 131.837 23.6279 133.307 24.2582L135.996 25.4116C137.538 26.0733 139.214 26.8582 139.636 28.0926L136.813 27.3838C137.442 28.3244 138.076 29.2767 138.364 30.296C138.651 31.3154 137.873 35.1536 137.12 36.0478C136.458 36.8334 135.989 34.7235 135.771 35.6236C136.021 33.8556 134.888 32.0216 132.879 30.9418C132.467 30.7204 131.997 30.5074 131.814 30.1665C131.61 29.7863 131.815 29.3291 131.536 28.9731C131.189 28.5304 130.283 28.4882 129.607 28.662C128.932 28.8357 128.341 29.1622 127.641 29.2793C125.786 29.5895 124.099 28.3574 122.196 28.2648C120.384 28.1765 118.763 29.173 118.009 30.3342C117.256 31.4953 115.171 31.2439 114.976 32.5127C114.781 33.7814 117.627 36.2922 116.486 37.2851L115.951 37.4104Z" fill="#2F2E41"/>
<path d="M114.524 49.2462L113.681 48.7849L113.485 48.6788C113.296 48.5745 113.047 48.5392 112.813 48.5798L111.827 48.7531C111.723 48.7707 111.613 48.7495 111.537 48.6965L110.43 47.9188C110.354 47.8657 110.324 47.788 110.349 47.7155L110.596 47.0226C110.657 46.8582 110.604 46.685 110.455 46.5507L109.647 45.8207C109.627 45.803 109.605 45.7853 109.582 45.7694C109.275 45.5538 108.779 45.5538 108.472 45.7694L108.007 46.0964C107.672 46.3297 107.526 46.6815 107.69 47.0067C108.107 47.841 108.787 48.5993 109.68 49.2232C109.997 49.4459 110.337 49.651 110.697 49.8348C111.351 50.1671 112.071 50.4322 112.836 50.6214C113.301 50.7363 113.799 50.6337 114.132 50.4004L114.597 50.0717C114.932 49.8383 114.896 49.4512 114.524 49.2462ZM114.257 49.8348L113.792 50.1618C113.573 50.3138 113.266 50.3704 112.994 50.3032C112.353 50.1459 111.746 49.9303 111.185 49.6616C110.767 49.4654 110.377 49.2374 110.02 48.9846C109.179 48.396 108.538 47.6819 108.143 46.8953C108.047 46.7044 108.128 46.4888 108.344 46.335L108.812 46.008C108.82 46.001 108.83 45.9956 108.84 45.9903C108.973 45.9179 109.164 45.9338 109.267 46.0275L110.075 46.7575C110.133 46.8087 110.153 46.8777 110.131 46.9413L109.884 47.6342C109.816 47.8215 109.897 48.0213 110.09 48.1574L111.197 48.9351C111.391 49.073 111.676 49.1278 111.942 49.08L112.929 48.9068C113.019 48.8909 113.117 48.9051 113.19 48.9457L113.203 48.9528L114.23 49.5131C114.24 49.5184 114.25 49.5255 114.257 49.5308C114.378 49.6156 114.378 49.75 114.257 49.8348Z" fill="#CCCCCC"/>
<path d="M124.347 47.6487C124.472 47.6487 124.572 47.7195 124.572 47.8068V48.1232C124.572 48.8219 125.379 49.3884 126.374 49.3884C127.368 49.3884 128.175 48.8219 128.175 48.1232V47.8068C128.175 47.7195 128.276 47.6487 128.4 47.6487C128.524 47.6487 128.625 47.7195 128.625 47.8068V48.1232C128.625 48.9354 127.749 49.6156 126.599 49.6968V50.3374H127.95C128.074 50.3374 128.175 50.4082 128.175 50.4955C128.175 50.5829 128.074 50.6537 127.95 50.6537H124.798C124.673 50.6537 124.572 50.5829 124.572 50.4955C124.572 50.4082 124.673 50.3374 124.798 50.3374H126.148V49.6968C124.998 49.6156 124.122 48.9354 124.122 48.1232V47.8068C124.122 47.7195 124.223 47.6487 124.347 47.6487Z" fill="#CCCCCC"/>
<path d="M126.374 45.5927C125.629 45.5927 125.022 46.0169 125.022 46.5418V48.1238C125.022 48.647 125.629 49.0712 126.374 49.0712C127.121 49.0712 127.725 48.647 127.725 48.1238V46.5418C127.725 46.0169 127.121 45.5927 126.374 45.5927ZM127.274 48.1238C127.274 48.472 126.872 48.7566 126.374 48.7566C125.875 48.7566 125.473 48.472 125.473 48.1238V46.5418C125.473 46.1918 125.875 45.909 126.374 45.909C126.872 45.909 127.274 46.1918 127.274 46.5418V48.1238Z" fill="#CCCCCC"/>
<path d="M141.957 45.6545C141.25 45.4866 140.483 45.7518 140.244 46.2484L140.624 46.5153C140.649 46.1795 141.046 45.9161 141.527 45.9179C142.023 45.9197 142.425 46.2042 142.423 46.5525V47.7792L142.873 48.0955V46.5525C142.873 46.1477 142.503 45.7853 141.957 45.6545ZM143.1 50.3492H141.748V49.7076C142.143 49.6811 142.521 49.5803 142.843 49.4159L142.518 49.1879C142.234 49.3222 141.892 49.4 141.522 49.4C140.528 49.4 139.72 48.8326 139.72 48.1344V47.818C139.72 47.7898 139.71 47.7615 139.687 47.7385C139.65 47.6925 139.579 47.6607 139.496 47.6607C139.456 47.6607 139.418 47.6678 139.386 47.6819C139.318 47.7085 139.27 47.7597 139.27 47.818V48.1344C139.27 48.9457 140.148 49.6263 141.298 49.7076V50.3492H139.947C139.821 50.3492 139.72 50.4199 139.72 50.5065C139.72 50.5949 139.821 50.6656 139.947 50.6656H143.1C143.223 50.6656 143.324 50.5949 143.324 50.5065C143.324 50.4199 143.223 50.3492 143.1 50.3492ZM143.55 47.6607C143.424 47.6607 143.324 47.7314 143.324 47.818V48.1344C143.324 48.2193 143.311 48.3041 143.288 48.3872L143.311 48.4031L143.653 48.6453C143.678 48.5905 143.701 48.5357 143.719 48.4791C143.756 48.3678 143.774 48.2529 143.774 48.1344V47.818C143.774 47.7314 143.673 47.6607 143.55 47.6607Z" fill="#CCCCCC"/>
<path d="M142.45 48.2458L138.98 45.8083L138.661 46.0328L141.585 48.0867L144.066 49.8278L144.383 49.6033L142.45 48.2458ZM141.854 48.7231C141.394 48.8521 140.87 48.693 140.686 48.3678C140.644 48.2935 140.621 48.214 140.621 48.1345V47.857L140.171 47.5406V48.1345C140.171 48.6577 140.777 49.0837 141.522 49.0837C141.756 49.0837 141.987 49.0412 142.191 48.9599L141.854 48.7231Z" fill="#CCCCCC"/>
<path d="M202.552 82.7961C199.564 84.3542 195.999 84.5345 194.587 83.199C193.176 81.8635 194.454 79.5182 197.442 77.9598C198.624 77.3258 200.004 76.8998 201.468 76.7174L214.244 70.2278L218.451 74.5039L205.41 80.4475C204.738 81.3795 203.758 82.1848 202.552 82.7961Z" fill="#FFB6B6"/>
<path d="M210.6 29.9453C210.6 29.9453 220.906 30.1739 222.858 35.2039C224.811 40.2339 228.717 50.9551 228.066 65.8411C228.066 65.8411 231.321 75.4438 222.858 74.9866L211.141 78.6447L203.329 71.3284L209.839 65.8411L210.6 29.9453Z" fill="#25A38B"/>
</g>
<defs>
<clipPath id="clip0_402_666">
<rect width="248" height="116" fill="white"/>
</clipPath>
</defs>
</svg>
