<svg width="461" height="301" viewBox="0 0 461 301" fill="none" xmlns="http://www.w3.org/2000/svg">
<g clip-path="url(#clip0_531_316)">
<mask id="mask0_531_316" style="mask-type:luminance" maskUnits="userSpaceOnUse" x="0" y="0" width="461" height="301">
<path d="M461 0H0V301H461V0Z" fill="white"/>
</mask>
<g mask="url(#mask0_531_316)">
<path d="M461 0H0V301H461V0Z" fill="white"/>
<path d="M173.731 58.7669C170.22 46.7185 198.538 36.3869 205.974 46.0894C207.008 44.71 210.829 43.8721 212.583 44.2953C214.336 44.7184 215.81 45.7763 217.249 46.8003C219.227 48.2305 221.277 49.7115 222.491 51.768C223.714 53.816 223.903 56.6088 222.257 58.386C220.953 59.7993 217.105 60.7133 215.145 61.0857C213.778 61.348 212.627 61.5596 211.638 61.7119C210.757 60.5017 210.308 59.0038 210.47 57.5397C209.139 58.3691 208.24 59.7908 208.096 61.2973C208.069 61.6104 219.146 99.9727 219.146 99.9727C218.004 100.607 216.593 101.2 214.965 101.741C212.205 97.8231 209.939 93.2024 208.446 88.3701C208.105 91.3575 208.159 94.5987 208.572 97.8908C208.788 99.6427 209.112 101.403 209.525 103.163C196.362 105.838 176.563 104.957 167.949 93.5832C167.948 93.5362 167.946 93.4891 167.945 93.442C167.883 91.3137 164.798 90.7848 163.973 92.767C163.764 93.2688 163.571 93.7032 163.4 94.0487C160.891 85.6027 164.137 75.828 173.731 58.7669Z" fill="#2F2E41"/>
<path d="M352.658 154.309C349.544 157.786 344.025 158.228 340.331 155.297C339.973 155.013 339.64 154.702 339.335 154.368L297.764 166.761L291.296 156.781L340.784 142.402C344.666 139.706 350.136 140.482 353 144.137C355.397 147.195 355.256 151.4 352.658 154.309Z" fill="#FFB6B6"/>
<path d="M205.44 123.342C205.44 123.342 223.849 103.852 231.868 112.131C239.887 120.41 264.906 156.688 264.906 156.688L323.307 145.091L328.954 159.598L262.642 179.823C257.657 181.344 252.194 179.767 248.972 175.878L205.44 123.342Z" fill="#25A38B"/>
<path d="M245.423 301H154.115L154.032 300.329L153.978 299.882L153.194 293.62L152.083 284.702L151.656 281.274C151.626 281.101 151.596 280.933 151.572 280.76C151.198 278.529 150.984 276.287 150.907 274.051C150.794 270.976 150.943 267.906 151.293 264.876V264.859C151.483 263.221 151.727 261.599 152.03 259.994C152.41 257.931 152.867 255.902 153.396 253.917C154.002 251.613 154.691 249.371 155.445 247.208C156.313 244.675 157.263 242.248 158.243 239.956C158.35 239.71 158.457 239.464 158.558 239.223L158.564 239.218C163.732 227.359 169.601 219.257 169.601 219.257H236.12C236.12 219.257 239.198 231.966 240.724 242.461C240.968 244.121 241.17 245.72 241.318 247.208C241.586 249.953 241.663 252.312 241.431 253.917C241.289 254.912 241.027 255.617 240.623 255.941C236.964 258.882 241.152 265.122 241.152 265.122C241.152 265.122 244.288 269.634 241.556 272.172C241.015 272.675 240.706 273.324 240.558 274.051C240.32 275.253 240.528 276.651 240.855 277.886C241.182 279.127 241.633 280.207 241.883 280.76C241.995 281.006 242.067 281.146 242.067 281.146L242.53 284.596L242.981 287.917L243.748 293.62L243.979 294.626L245.173 299.882L245.274 300.329L245.423 301Z" fill="#2F2E41"/>
<path d="M199.302 96.678L171.384 99.0184L166.238 114.09L160.63 114.854C151.048 116.16 145.345 125.619 149.068 134.032L154.002 145.18C154.002 145.18 146.755 166.235 155.656 175.082L159.444 214.045L150.899 239.732L250.775 242.766L233.763 210.547L233.258 190.542C233.258 190.542 244.129 154.383 234.051 142.881L230.118 110.168L209.63 107.275L199.302 96.678Z" fill="#25A38B"/>
<path d="M218.202 77.3424C221.079 65.6633 213.353 54.0004 200.944 51.2926C188.536 48.5849 176.145 55.8575 173.268 67.5366C170.391 79.2157 178.118 90.8785 190.526 93.5863C202.935 96.2941 215.326 89.0214 218.202 77.3424Z" fill="#FFB6B6"/>
<path d="M161.143 60.4594C157.632 48.4111 185.95 38.0795 193.386 47.782C194.42 46.4026 198.241 45.5647 199.995 45.9879C201.748 46.411 203.223 47.4689 204.661 48.4929C206.639 49.9231 208.689 51.4041 209.903 53.4606C211.126 55.5086 211.315 58.3014 209.669 60.0786C208.366 61.4919 204.517 62.4059 202.557 62.7783C201.191 63.0406 200.04 63.2522 199.051 63.4045C198.169 62.1943 197.72 60.6964 197.882 59.2323C196.551 60.0617 195.652 61.4834 195.508 62.9899C195.481 63.303 206.558 101.665 206.558 101.665C205.416 102.3 204.005 102.892 202.377 103.434C199.617 99.5157 197.351 94.895 195.859 90.0627C195.517 93.0501 195.571 96.2913 195.984 99.5834C196.2 101.335 196.524 103.096 196.938 104.856C183.774 107.53 163.975 106.65 155.362 95.2758C155.36 95.2288 155.359 95.1817 155.357 95.1346C155.296 93.0063 152.21 92.4774 151.385 94.4596C151.176 94.9614 150.984 95.3958 150.812 95.7413C148.303 87.2953 151.549 77.5206 161.143 60.4594Z" fill="#2F2E41"/>
<path d="M358.294 300.329H48.2111L0.0947266 300.888L337.54 281.926C348.797 281.294 358.294 289.715 358.294 300.329Z" fill="#3F3D56"/>
<path d="M434.235 299.882V301H0V0H1.18806V299.882H434.235Z" fill="#3F3D56"/>
<path d="M387.772 69.6207H308.735C306.912 69.6207 305.429 68.2299 305.429 66.5207C305.429 64.8115 306.912 63.4214 308.735 63.4214H387.772C389.594 63.4214 391.077 64.8115 391.077 66.5207C391.077 68.2299 389.594 69.6207 387.772 69.6207Z" fill="#25A38B"/>
<path d="M348.224 79.618C347.928 78.9327 346.908 78.9328 346.612 79.6181C344.552 84.3997 341.618 89.7544 338.427 93.8466C337.916 94.5018 338.62 95.3773 339.432 95.1008L346.273 92.7715V132.628H348.563V92.7714L355.406 95.1011C356.218 95.3775 356.922 94.5021 356.411 93.8469C353.22 89.7546 350.286 84.3997 348.224 79.618Z" fill="#3F3D56"/>
<path d="M458.963 92.4036H410.234C409.111 92.4036 408.196 91.5462 408.196 90.4924C408.196 89.4386 409.111 88.5816 410.234 88.5816H458.963C460.086 88.5816 461 89.4386 461 90.4924C461 91.5462 460.086 92.4036 458.963 92.4036Z" fill="#F2F2F2"/>
<path d="M434.58 98.5672C434.398 98.1447 433.769 98.1448 433.587 98.5673C432.316 101.515 430.508 104.817 428.54 107.34C428.225 107.743 428.659 108.283 429.16 108.113L433.377 106.677V131.249H434.789V106.677L439.008 108.113C439.509 108.283 439.943 107.744 439.628 107.34C437.66 104.817 435.851 101.515 434.58 98.5672Z" fill="#F2F2F2"/>
<path d="M434.606 154.959C440.454 154.959 445.195 150.497 445.195 144.993C445.195 139.489 440.454 135.027 434.606 135.027C428.758 135.027 424.018 139.489 424.018 144.993C424.018 150.497 428.758 154.959 434.606 154.959Z" fill="#F2F2F2"/>
<path d="M302.733 35.9329H254.005C252.881 35.9329 251.967 35.0755 251.967 34.0217C251.967 32.9679 252.881 32.1109 254.005 32.1109H302.733C303.856 32.1109 304.77 32.9679 304.77 34.0217C304.77 35.0755 303.856 35.9329 302.733 35.9329Z" fill="#F2F2F2"/>
<path d="M278.35 42.0965C278.168 41.674 277.539 41.6741 277.357 42.0966C276.087 45.0446 274.278 48.3459 272.31 50.8689C271.995 51.2728 272.43 51.8125 272.93 51.6421L277.148 50.206V74.7783H278.559V50.206L282.778 51.6423C283.279 51.8127 283.713 51.273 283.398 50.869C281.431 48.346 279.622 45.0446 278.35 42.0965Z" fill="#F2F2F2"/>
<path d="M278.377 98.4883C284.225 98.4883 288.965 94.0263 288.965 88.5222C288.965 83.0181 284.225 78.5561 278.377 78.5561C272.529 78.5561 267.788 83.0181 267.788 88.5222C267.788 94.0263 272.529 98.4883 278.377 98.4883Z" fill="#F2F2F2"/>
<path d="M155.617 281.631C158.115 277.739 156.788 272.677 152.652 270.325C152.252 270.097 151.832 269.9 151.398 269.735L150.521 228.701L138.403 226.139L139.823 274.869C138.357 279.195 140.894 283.821 145.491 285.202C149.337 286.357 153.523 284.88 155.617 281.631Z" fill="#FFB6B6"/>
<path d="M164.047 119.735C164.047 119.735 149.196 116.38 144.444 125.885C139.692 135.39 139.287 176.751 139.287 176.751L136.722 260.632L155.559 259.85L170.581 156.636L164.047 119.735Z" fill="#25A38B"/>
<path d="M157.381 294.008C157.715 294.403 158.223 294.631 158.759 294.629H255.194C256.174 294.628 256.967 293.879 256.966 292.956C256.966 292.842 256.953 292.728 256.928 292.616L255.432 285.923C255.305 285.369 254.89 284.912 254.327 284.71C254.126 284.636 253.912 284.598 253.697 284.598H160.25C160.035 284.598 159.821 284.636 159.621 284.71C159.058 284.912 158.642 285.369 158.516 285.923L157.019 292.616C156.911 293.108 157.044 293.619 157.381 294.008Z" fill="#CCCCCC"/>
<path d="M120.462 144.187V248.887C120.464 251.666 122.857 253.917 125.808 253.919H290.651C293.603 253.917 295.995 251.666 295.998 248.887V144.187C295.991 141.412 293.6 139.164 290.651 139.161H125.808C122.86 139.165 120.469 141.412 120.462 144.187Z" fill="#E6E6E6"/>
<path d="M228.843 231.53C228.647 231.468 228.44 231.44 228.232 231.44H189.667C188.533 231.44 187.606 232.307 187.606 233.375V290.718H230.287V233.375C230.287 232.531 229.705 231.781 228.843 231.53ZM213.375 259.732C213.363 262.102 211.314 264.014 208.795 264.003C206.294 263.987 204.274 262.086 204.263 259.732V253.078C204.286 250.713 206.348 248.812 208.86 248.834C211.343 248.857 213.351 250.747 213.375 253.078V259.732Z" fill="#CCCCCC"/>
</g>
</g>
<defs>
<clipPath id="clip0_531_316">
<rect width="461" height="301" fill="white"/>
</clipPath>
</defs>
</svg>
