<svg width="775" height="476" viewBox="0 0 775 476" fill="none" xmlns="http://www.w3.org/2000/svg">
<g clip-path="url(#clip0_531_270)">
<mask id="mask0_531_270" style="mask-type:luminance" maskUnits="userSpaceOnUse" x="0" y="0" width="775" height="476">
<path d="M774.04 0H0V475.137H774.04V0Z" fill="white"/>
</mask>
<g mask="url(#mask0_531_270)">
<path d="M647.792 389.5H126.248C115.095 389.5 106.02 380.426 106.02 369.271V306.5H668.02V369.271C668.02 380.426 658.946 389.5 647.792 389.5Z" fill="#E6E6E6"/>
<path d="M454.52 379H321.52V474H454.52V379Z" fill="#E6E6E6"/>
<path d="M462.52 462H313.52V474H462.52V462Z" fill="#E6E6E6"/>
<path d="M667.52 333H106.02V13.8818C106.02 6.22754 112.247 0 119.902 0H653.639C661.293 0 667.52 6.22754 667.52 13.8818V333Z" fill="#3F3D56"/>
<path d="M388.02 11.5C390.229 11.5 392.02 9.70912 392.02 7.49998C392.02 5.29085 390.229 3.49998 388.02 3.49998C385.811 3.49998 384.02 5.29085 384.02 7.49998C384.02 9.70912 385.811 11.5 388.02 11.5Z" fill="white"/>
<path d="M654.02 14.5H119.02V315.5H654.02V14.5Z" fill="white"/>
<path d="M591.406 241.911C616.598 241.911 637.02 221.488 637.02 196.296C637.02 171.104 616.598 150.682 591.406 150.682C566.214 150.682 545.792 171.104 545.792 196.296C545.792 221.488 566.214 241.911 591.406 241.911Z" fill="#25A38B"/>
<path d="M774.04 474.297C774.04 474.761 773.664 475.137 773.2 475.137H0V473.457H773.2C773.664 473.457 774.04 473.833 774.04 474.297Z" fill="#E6E6E6"/>
<path d="M130.953 189.663L125.189 209.835L148.243 211.276L146.803 187.501L130.953 189.663Z" fill="#FFB6B6"/>
<path d="M226.73 272.011C232.201 273.878 237.599 272.569 238.787 269.088C239.975 265.606 236.503 261.27 231.03 259.402C228.854 258.626 226.524 258.383 224.234 258.692L200.954 251.071L197.611 262.072L220.916 268.417C222.539 270.062 224.533 271.294 226.73 272.011Z" fill="#FFB6B6"/>
<path d="M149.479 205.361C149.479 205.361 135.048 222.723 143.396 229.906C151.745 237.089 189.028 263.681 189.028 263.681L203.562 265.944L207.28 251.894L174.46 227.575L149.479 205.361Z" fill="#25A38B"/>
<path d="M187.716 390.18L195.736 419.902L208.474 417.543L205.643 386.878L187.716 390.18Z" fill="#FFB6B6"/>
<path d="M197.623 418.015L192.905 418.958L189.131 431.696C189.131 431.696 195.264 434.055 195.264 438.772C195.264 443.49 197.623 446.792 207.058 446.321C216.494 445.849 217.437 446.321 217.437 442.547C217.437 438.772 210.361 418.958 210.361 418.958C210.361 418.958 210.833 410.938 205.171 411.41C199.51 411.882 197.623 418.015 197.623 418.015Z" fill="#2F2E41"/>
<path d="M144.589 389.718L145.136 420.497L158.065 421.309L162.781 390.877L144.589 389.718Z" fill="#FFB6B6"/>
<path d="M147.426 419.126L142.62 418.894L135.86 430.33C135.86 430.33 141.235 434.11 140.087 438.686C138.939 443.262 140.424 447.039 149.69 448.877C158.957 450.716 159.757 451.403 160.675 447.742C161.594 444.081 159.551 423.141 159.551 423.141C159.551 423.141 161.96 415.477 156.354 414.557C150.748 413.637 147.426 419.126 147.426 419.126Z" fill="#2F2E41"/>
<path d="M149.975 205.719L124.499 203.832L118.838 210.909C118.838 210.909 116.007 258.557 117.894 263.275C119.781 267.993 118.366 294.883 118.366 294.883L182.588 290.402L168.374 256.198L168.845 236.384L156.108 212.324L149.975 205.719Z" fill="#25A38B"/>
<path d="M121.197 284.976C121.197 284.976 110.818 300.073 114.592 308.093C118.366 316.113 143.967 362.68 143.967 362.68L140.664 406.083L163.309 404.196L167.083 357.491L151.39 319.415L154.22 315.169L177.809 343.947L186.301 393.954L208.945 391.124L196.68 318L182.344 289.816L121.197 284.976Z" fill="#2F2E41"/>
<path d="M118.979 176.828C123.81 176.828 127.726 172.913 127.726 168.082C127.726 163.252 123.81 159.336 118.979 159.336C114.149 159.336 110.233 163.252 110.233 168.082C110.233 172.913 114.149 176.828 118.979 176.828Z" fill="#2F2E41"/>
<path d="M139.178 200.507C149.698 200.507 158.226 191.979 158.226 181.459C158.226 170.94 149.698 162.412 139.178 162.412C128.658 162.412 120.13 170.94 120.13 181.459C120.13 191.979 128.658 200.507 139.178 200.507Z" fill="#FFB6B6"/>
<path d="M133.139 202.342C131.114 203.414 125.418 199.477 123.38 194.201C122.068 190.807 118.881 191.372 116.846 187.139C115.661 184.673 119.201 182.26 118.617 180.128C117.559 176.264 118.885 172.808 119.054 172.384C120.513 168.728 122.663 168.813 124.396 164.559C125.44 161.997 124.771 161.697 125.648 160.386C128.18 156.604 135.527 156.46 140.708 158.249C142.501 158.868 146.82 155.551 150.326 157.954C154.457 160.785 157.205 168.944 156.573 170.439C156.189 171.348 154.05 170.422 149.602 171.121C145.485 171.769 150.919 174.845 146.285 175.894C140.805 177.134 139.154 176.002 137.636 177.736C136.03 179.569 135.734 183.278 137.198 185.48C137.925 186.573 138.863 186.958 138.745 187.719C138.531 189.107 137.298 188.352 136.893 189.825C136.423 191.538 140.326 193.784 139.987 194.302C139.918 194.407 139.626 194.52 135.815 193.051C134.293 192.464 133.706 191.958 133.535 192.145C133.259 192.449 131.89 195.49 133.445 196.784C135.865 198.798 134.188 199.597 135.291 201.174C136.429 202.8 134.425 201.66 133.139 202.342Z" fill="#2F2E41"/>
<path d="M137.599 312.396C140.638 317.313 145.64 319.73 148.769 317.795C151.897 315.86 151.969 310.306 148.928 305.387C147.74 303.406 146.094 301.738 144.129 300.523L130.986 279.851L121.417 286.226L135.39 305.927C135.599 308.229 136.356 310.447 137.599 312.396Z" fill="#FFB6B6"/>
<path d="M120.253 211.852C120.253 211.852 98.0802 216.098 99.9672 226.949C101.854 237.799 113.766 282.017 113.766 282.017L123.556 292.996L135.35 284.504L125.443 244.876L120.253 211.852Z" fill="#25A38B"/>
<path d="M643.975 220.914C643.103 219.443 639.331 221.018 638.638 219.683C637.947 218.354 641.451 216.328 643.454 211.7C643.815 210.866 646.09 205.607 644.406 203.984C641.213 200.908 626.602 213.602 621.488 209.448C620.366 208.536 619.582 206.716 616.186 203.762C614.835 202.586 614.018 202.055 613.227 202.253C612.105 202.533 612.016 204.035 610.813 206.987C609.009 211.415 607.942 211.147 606.891 214.68C606.11 217.302 606.289 218.827 605.37 219.124C604.071 219.544 602.875 216.763 601.228 217.012C599.547 217.266 598.531 220.505 598.211 222.929C597.608 227.48 599.279 230.482 600.206 233.64C601.212 237.071 601.81 242.289 599.485 249.676L576.478 314.498C581.557 301.196 596.264 264.734 602.444 251.185C604.228 247.273 606.198 243.306 610.242 241.74C614.136 240.232 619.484 241.132 626.302 239.49C627.098 239.298 629.308 238.736 629.586 237.436C629.816 236.362 628.516 235.762 628.716 234.756C628.983 233.406 631.539 233.389 634.68 231.832C636.895 230.734 638.275 229.428 639.461 228.305C639.819 227.966 645.136 222.871 643.975 220.914Z" fill="#E6E6E6"/>
<path d="M553.46 255.039C552.486 255.042 552.171 257.348 551.316 257.303C550.464 257.259 550.481 254.954 548.787 252.636C548.482 252.218 546.557 249.584 545.275 249.943C542.844 250.622 544.858 261.456 541.344 262.767C540.573 263.055 539.453 262.914 537.023 263.729C536.056 264.053 535.56 264.301 535.429 264.746C535.243 265.377 535.954 265.854 537.056 267.296C538.709 269.459 538.269 269.906 539.7 271.441C540.762 272.581 541.562 272.933 541.442 273.47C541.274 274.229 539.564 274.013 539.211 274.893C538.85 275.792 540.147 277.225 541.244 278.082C543.304 279.69 545.26 279.736 547.077 280.193C549.051 280.689 551.785 281.901 554.739 285.173L579.916 315.169C574.853 308.838 561.201 291.099 556.334 284.157C554.929 282.152 553.55 280.041 553.948 277.604C554.332 275.258 556.317 272.893 557.478 269.073C557.613 268.626 557.975 267.38 557.417 266.868C556.956 266.445 556.287 266.91 555.85 266.522C555.265 266.001 555.995 264.742 556.136 262.751C556.236 261.347 555.994 260.293 555.785 259.387C555.722 259.113 554.755 255.034 553.46 255.039Z" fill="#E6E6E6"/>
<path d="M572.875 259.397L572.289 254.163L572.557 253.766C573.796 251.931 574.428 250.139 574.436 248.438C574.437 248.168 574.424 247.897 574.412 247.622C574.361 246.53 574.298 245.173 575.005 243.591C575.402 242.709 576.517 240.667 578.193 240.919C578.644 240.983 578.985 241.19 579.244 241.432C579.282 241.372 579.321 241.311 579.363 241.245C579.885 240.449 580.298 240.108 580.696 239.78C581.002 239.527 581.318 239.266 581.813 238.65C582.03 238.379 582.2 238.142 582.342 237.942C582.776 237.338 583.342 236.618 584.34 236.63C585.407 236.681 585.965 237.563 586.336 238.147C586.997 239.188 587.296 239.939 587.494 240.437C587.566 240.619 587.649 240.823 587.69 240.886C588.034 241.392 590.828 240.919 591.881 240.747C594.245 240.353 596.291 240.012 597.134 241.503C597.738 242.57 597.289 243.98 595.76 245.807C595.284 246.376 594.777 246.808 594.327 247.147C594.7 247.369 595.033 247.71 595.169 248.246C595.487 249.515 594.397 250.786 591.929 252.03C591.316 252.34 590.491 252.755 589.334 252.955C588.79 253.048 588.299 253.071 587.88 253.084C587.871 253.326 587.814 253.589 587.666 253.859C587.233 254.656 586.331 255.035 584.971 254.944C583.475 254.865 582.243 254.58 581.156 254.33C580.207 254.112 579.389 253.928 578.747 253.971C577.557 254.067 576.639 255.02 575.563 256.255L572.875 259.397Z" fill="#E6E6E6"/>
<path d="M575.595 228.233L570.681 230.127L570.229 229.969C568.14 229.235 566.246 229.079 564.599 229.503C564.337 229.57 564.079 229.651 563.815 229.733C562.772 230.059 561.475 230.464 559.765 230.181C558.812 230.021 556.554 229.461 556.373 227.776C556.32 227.323 556.434 226.941 556.603 226.629C556.534 226.607 556.466 226.585 556.392 226.561C555.489 226.258 555.054 225.945 554.635 225.643C554.313 225.412 553.982 225.172 553.259 224.849C552.943 224.708 552.67 224.604 552.441 224.517C551.746 224.251 550.906 223.886 550.665 222.917C550.443 221.872 551.155 221.108 551.626 220.602C552.465 219.699 553.115 219.219 553.547 218.901C553.704 218.785 553.882 218.653 553.932 218.597C554.334 218.136 553.168 215.553 552.735 214.579C551.754 212.392 550.905 210.499 552.133 209.306C553.012 208.451 554.49 208.527 556.645 209.543C557.316 209.859 557.863 210.24 558.304 210.589C558.425 210.172 558.67 209.763 559.154 209.496C560.301 208.866 561.807 209.599 563.636 211.671C564.092 212.185 564.702 212.878 565.189 213.946C565.417 214.449 565.564 214.917 565.682 215.32C565.919 215.267 566.188 215.255 566.487 215.33C567.367 215.547 567.963 216.324 568.219 217.662C568.523 219.129 568.559 220.393 568.593 221.508C568.624 222.481 568.652 223.319 568.857 223.929C569.252 225.056 570.406 225.702 571.875 226.43L575.595 228.233Z" fill="#E6E6E6"/>
<path d="M572.875 212.813L572.289 207.578L572.557 207.182C573.796 205.347 574.428 203.555 574.436 201.854C574.437 201.584 574.424 201.313 574.412 201.038C574.361 199.946 574.298 198.589 575.005 197.007C575.402 196.124 576.517 194.082 578.193 194.335C578.644 194.398 578.985 194.606 579.244 194.848C579.282 194.787 579.321 194.727 579.363 194.661C579.885 193.865 580.298 193.524 580.696 193.195C581.002 192.943 581.318 192.682 581.813 192.066C582.03 191.795 582.2 191.558 582.342 191.358C582.776 190.754 583.342 190.034 584.34 190.046C585.407 190.097 585.965 190.979 586.336 191.563C586.997 192.604 587.296 193.354 587.494 193.852C587.566 194.034 587.649 194.239 587.69 194.302C588.034 194.808 590.828 194.335 591.881 194.163C594.245 193.769 596.291 193.428 597.134 194.919C597.738 195.985 597.289 197.396 595.76 199.223C595.284 199.792 594.777 200.224 594.327 200.562C594.7 200.785 595.033 201.126 595.169 201.662C595.487 202.931 594.397 204.202 591.929 205.445C591.316 205.756 590.491 206.171 589.334 206.37C588.79 206.464 588.299 206.487 587.88 206.499C587.871 206.742 587.814 207.005 587.666 207.275C587.233 208.071 586.331 208.45 584.971 208.359C583.475 208.281 582.243 207.995 581.156 207.745C580.207 207.528 579.389 207.343 578.747 207.386C577.557 207.482 576.639 208.435 575.563 209.671L572.875 212.813Z" fill="#E6E6E6"/>
<path d="M578.23 314.412L577.133 313.725L575.855 313.871C575.834 313.753 575.765 313.48 575.66 313.053C575.088 310.712 573.342 303.59 571.887 292.374C570.871 284.544 570.296 276.494 570.177 268.445C570.058 260.383 570.44 254.279 570.746 249.373C570.977 245.673 571.257 242.15 571.533 238.718C572.266 229.549 572.957 220.888 572.443 211.299C572.329 209.158 572.09 204.702 569.487 199.961C567.977 197.211 565.897 194.77 563.304 192.708L564.916 190.681C567.778 192.96 570.08 195.665 571.756 198.718C574.643 203.974 574.903 208.83 575.028 211.162C575.551 220.92 574.853 229.665 574.112 238.923C573.839 242.342 573.558 245.85 573.328 249.535C573.025 254.395 572.647 260.446 572.765 268.404C572.881 276.358 573.45 284.309 574.452 292.04C575.89 303.115 577.61 310.131 578.175 312.436C578.476 313.667 578.539 313.925 578.23 314.412Z" fill="#E6E6E6"/>
<path d="M558.557 196.82C558.451 196.82 558.344 196.817 558.235 196.809C556.031 196.691 553.991 195.371 552.168 192.889C551.314 191.722 550.877 190.39 550.005 187.734C549.87 187.324 549.213 185.247 548.813 182.388C548.552 180.521 548.585 179.74 548.955 179.05C549.366 178.281 550.03 177.746 550.778 177.384C550.745 177.136 550.772 176.881 550.879 176.621C551.32 175.542 552.493 175.683 553.127 175.751C553.448 175.792 553.849 175.845 554.281 175.822C554.961 175.789 555.326 175.587 555.88 175.284C556.409 174.993 557.068 174.632 558.044 174.432C559.97 174.03 561.584 174.576 562.116 174.756C564.915 175.688 566.295 177.864 567.892 180.384C568.211 180.89 569.304 182.729 570.025 185.252C570.546 187.071 570.473 187.88 570.316 188.482C569.998 189.718 569.246 190.425 567.336 191.987C565.342 193.622 564.341 194.441 563.482 194.939C561.482 196.094 560.226 196.82 558.557 196.82Z" fill="#E6E6E6"/>
<path d="M444.384 268.703H241.318C233.143 268.703 226.492 262.052 226.492 253.877V100.325C226.492 92.151 233.143 85.5 241.318 85.5H444.384C452.559 85.5 459.209 92.151 459.209 100.325V253.877C459.209 262.052 452.559 268.703 444.384 268.703Z" fill="white"/>
<path d="M444.384 268.703H241.318C233.143 268.703 226.492 262.052 226.492 253.877V100.325C226.492 92.151 233.143 85.5 241.318 85.5H444.384C452.559 85.5 459.209 92.151 459.209 100.325V253.877C459.209 262.052 452.559 268.703 444.384 268.703ZM241.318 87.9757C234.508 87.9757 228.968 93.5158 228.968 100.325V253.877C228.968 260.687 234.508 266.227 241.318 266.227H444.384C451.193 266.227 456.733 260.687 456.733 253.877V100.325C456.733 93.5158 451.193 87.9757 444.384 87.9757H241.318Z" fill="#3F3D56"/>
<path d="M422.073 104.068C424.124 104.068 425.787 102.405 425.787 100.354C425.787 98.3033 424.124 96.6407 422.073 96.6407C420.023 96.6407 418.36 98.3033 418.36 100.354C418.36 102.405 420.023 104.068 422.073 104.068Z" fill="#3F3D56"/>
<path d="M431.976 104.068C434.027 104.068 435.69 102.405 435.69 100.354C435.69 98.3033 434.027 96.6407 431.976 96.6407C429.925 96.6407 428.263 98.3033 428.263 100.354C428.263 102.405 429.925 104.068 431.976 104.068Z" fill="#3F3D56"/>
<path d="M441.879 104.068C443.93 104.068 445.593 102.405 445.593 100.354C445.593 98.3033 443.93 96.6407 441.879 96.6407C439.828 96.6407 438.166 98.3033 438.166 100.354C438.166 102.405 439.828 104.068 441.879 104.068Z" fill="#3F3D56"/>
<path d="M247.536 160.39C246.512 160.39 245.679 161.223 245.679 162.247C245.679 162.746 245.872 163.208 246.222 163.549C246.575 163.91 247.037 164.104 247.536 164.104H439.404C440.427 164.104 441.26 163.271 441.26 162.247C441.26 161.748 441.067 161.286 440.718 160.945C440.365 160.584 439.902 160.39 439.404 160.39H247.536Z" fill="#E6E6E6"/>
<path d="M404.744 159.771V164.723H247.536C246.855 164.723 246.236 164.45 245.791 163.992C245.332 163.547 245.06 162.928 245.06 162.247C245.06 160.885 246.174 159.771 247.536 159.771H404.744Z" fill="#25A38B"/>
<path d="M436.309 150.487H411.552C408.822 150.487 406.6 148.267 406.6 145.536C406.6 142.805 408.822 140.585 411.552 140.585H436.309C439.039 140.585 441.26 142.805 441.26 145.536C441.26 148.267 439.039 150.487 436.309 150.487Z" fill="#E6E6E6"/>
<path d="M274.15 124.492H249.393C246.662 124.492 244.441 122.272 244.441 119.541C244.441 116.81 246.662 114.59 249.393 114.59H274.15C276.88 114.59 279.101 116.81 279.101 119.541C279.101 122.272 276.88 124.492 274.15 124.492Z" fill="#E6E6E6"/>
<path d="M247.536 216.094C246.512 216.094 245.679 216.927 245.679 217.951C245.679 218.45 245.872 218.912 246.222 219.252C246.575 219.614 247.037 219.807 247.536 219.807H439.404C440.427 219.807 441.26 218.974 441.26 217.951C441.26 217.451 441.067 216.99 440.718 216.649C440.365 216.287 439.902 216.094 439.404 216.094H247.536Z" fill="#E6E6E6"/>
<path d="M309.429 215.475V220.426H247.536C246.855 220.426 246.236 220.154 245.791 219.696C245.332 219.25 245.06 218.631 245.06 217.951C245.06 216.589 246.174 215.475 247.536 215.475H309.429Z" fill="#25A38B"/>
<path d="M436.309 206.191H411.552C408.822 206.191 406.6 203.97 406.6 201.24C406.6 198.509 408.822 196.288 411.552 196.288H436.309C439.039 196.288 441.26 198.509 441.26 201.24C441.26 203.97 439.039 206.191 436.309 206.191Z" fill="#E6E6E6"/>
</g>
</g>
<defs>
<clipPath id="clip0_531_270">
<rect width="775" height="476" fill="white"/>
</clipPath>
</defs>
</svg>
