<svg width="2672" height="1974" viewBox="0 0 2672 1974" fill="none" xmlns="http://www.w3.org/2000/svg">
<path d="M2018.97 1282.52C2001.41 1278.37 1981.3 1277.01 1964.42 1282.22C1955.04 1285.11 1947.31 1289.8 1939.16 1293.98C1924.4 1301.54 1904.72 1307.77 1887.4 1303.08C1871.51 1298.77 1863.63 1285.8 1867.83 1274.9C1872.04 1264 1886.21 1255.53 1902.31 1251.57C1918.42 1247.62 1936.23 1247.67 1953.25 1249.3" fill="white"/>
<path d="M2109.68 1396.52C2020.73 1397.39 2018.12 1308.52 1981.36 1273.7C1964.46 1257.7 1942.1 1247.95 1913.24 1249.26C1925.83 1243.08 2030.78 1236.68 2053.34 1245.34C2078.66 1255.06 2091.81 1266.9 2103.63 1284.11C2117.11 1303.74 2166.3 1376.66 2109.68 1396.52Z" fill="white"/>
<path d="M2149.78 1327.22C2116.75 1317.94 2098.25 1291.41 2092.1 1265.71C2080.99 1219.21 2072.75 1172.17 2055.67 1126.58C2037.39 1077.78 2005.32 1036.08 1970.63 992.851C1955.31 973.762 1939.75 947.698 1960.41 931.587C1968.6 925.207 1980.79 922.431 1992.64 921.701C2034.09 919.143 2073.36 939.005 2096.48 964.556C2119.6 990.103 2129.66 1020.71 2139.32 1050.6C2145.86 1070.84 2152.4 1091.09 2158.94 1111.34C2181.83 1182.21 2206.35 1283.38 2149.78 1327.22Z" fill="white"/>
<path d="M2351.92 1178.86C2373.43 1168.97 2400.12 1166.6 2425.24 1169.05C2450.36 1171.49 2474.26 1178.42 2497.4 1186.05C2507.34 1189.32 2517.41 1192.78 2528.23 1193.6C2539.05 1194.41 2550.98 1192.07 2557.51 1185.64C2565.12 1178.15 2563.15 1167.01 2555.71 1159.42C2548.26 1151.83 2536.51 1147.2 2524.64 1143.88C2494.76 1135.52 2462.26 1133.94 2430.32 1133.57" fill="white"/>
<path d="M2253.06 1304.84C2302.84 1290.44 2304.74 1236.25 2347.07 1195.92C2382.04 1162.62 2429.09 1143.29 2512.09 1139.54C2475.95 1130.35 2438.34 1123.39 2400.13 1123.05C2361.91 1122.71 2322.85 1129.38 2291.47 1145.49C2246.44 1168.61 2175.72 1275.52 2253.06 1304.84Z" fill="white"/>
<path d="M2229.82 1220.62C2185.69 1204.69 2190 1159.64 2192.18 1131.6C2197.46 1063.62 2218.04 982.231 2272.76 924.307C2315.04 879.561 2377.73 854.555 2451.51 871.945C2475.88 877.689 2515.62 899.683 2499.99 922.041C2489.58 936.924 2444.93 946.719 2426.66 958.831C2403.26 974.339 2384.55 993.301 2369.3 1013.52C2338.21 1054.75 2321.26 1100.87 2304.77 1146.17C2292.36 1180.23 2280.72 1215.24 2229.82 1220.62Z" fill="white"/>
<path d="M2446.94 1299.78C2463.22 1296.39 2492.12 1294.87 2508.95 1297.32C2516.59 1300.29 2530.59 1306.63 2540.31 1318.28C2551.48 1331.66 2552.95 1369.63 2518.47 1363.08C2504.1 1360.35 2497.52 1348.53 2488.9 1339.61C2478.15 1328.48 2461.46 1320.57 2443.28 1317.98C2425.11 1315.39 2405.63 1318.16 2390.06 1325.55" fill="white"/>
<path d="M2520.01 1302.38C2479.57 1296.83 2427.08 1311.82 2398.34 1334.09C2384.82 1344.56 2371.85 1358.06 2352.59 1359.34C2332.69 1360.67 2307.58 1362.03 2306.88 1331.21C2306.35 1307.83 2325.48 1301.81 2342.29 1293.63C2359.09 1285.45 2379.41 1282.5 2399.33 1281.39C2422.65 1280.09 2484.52 1274.05 2520.01 1302.38Z" fill="white"/>
<path d="M1939.42 1246.53C1965.75 1245.68 1991.94 1249.66 2014.5 1260C2035.62 1269.67 2052.2 1283.95 2064.81 1299.63C2079.11 1317.4 2088.44 1336.98 2095.74 1356.87C2104.65 1381.14 2110.56 1405.97 2115.76 1430.81C2121.55 1458.44 2125.77 1486.34 2133.39 1513.75C2133.74 1515.02 2136.24 1514.45 2135.99 1513.22C2130.93 1488.12 2126.03 1463.01 2120.89 1437.92C2115.66 1412.41 2109.88 1386.89 2101.18 1361.88C2088.12 1324.35 2067 1284.11 2022.19 1261.14C1997.9 1248.69 1968.75 1243.68 1939.42 1245.28C1938.34 1245.35 1938.32 1246.57 1939.42 1246.53Z" fill="white"/>
<path d="M1967.97 927.141C2020.9 951.011 2064.29 1013.18 2091.14 1066.78C2112.67 1109.75 2127.79 1154.27 2136.93 1199.58C2156.51 1296.66 2165.38 1438.16 2160.61 1536.24" stroke="white" stroke-width="0.75" stroke-miterlimit="10"/>
<path d="M2466.53 1129.63C2410.09 1126.42 2353.94 1143.91 2313.94 1172.94C2252.24 1217.71 2253.08 1286.87 2247.33 1346.09C2239.86 1423.02 2233.3 1500 2227.63 1577.02" stroke="white" stroke-width="0.75" stroke-miterlimit="10"/>
<path d="M2463.4 1284.34C2422.77 1284.2 2385.06 1296.58 2356.16 1317.41C2339.17 1329.66 2325.14 1344.21 2314.98 1360.04C2305.54 1374.75 2298.97 1390.41 2293.84 1406.22C2286.3 1429.48 2281.71 1453.25 2278.26 1477.02C2273.26 1511.45 2270.63 1546.13 2269.73 1580.75C2269.6 1585.85 2269.43 1590.95 2269.59 1596.06C2269.63 1597.24 2271.96 1597.22 2272.07 1596.06C2273.84 1576.75 2274.12 1557.34 2275.53 1538.01C2276.73 1521.71 2278.26 1505.41 2280.3 1489.15C2283.38 1464.45 2287.59 1439.75 2294.6 1415.48C2299.39 1398.9 2305.46 1382.37 2314.48 1366.74C2322.81 1352.31 2334.02 1338.92 2347.98 1327.06C2373.39 1305.46 2407.43 1289.98 2446.31 1286.48C2451.98 1285.97 2457.68 1285.72 2463.4 1285.67C2464.56 1285.67 2464.57 1284.34 2463.4 1284.34Z" fill="white"/>
<path d="M2399.34 897.579C2376.73 906.359 2358.6 919.952 2343.07 934.741C2327.24 949.83 2313.64 966.127 2301.94 983.139C2278.23 1017.62 2262.39 1054.79 2251.05 1092.46C2238.63 1133.76 2231.02 1175.95 2224.48 1217.95C2217.49 1262.83 2212.81 1307.9 2210.44 1353.03C2208.06 1398.51 2207.92 1444.08 2210.41 1489.56C2210.72 1495.21 2211.26 1500.84 2211.79 1506.49C2211.87 1507.34 2213.63 1507.36 2213.6 1506.49C2212.12 1461.5 2210.63 1416.61 2212.33 1371.61C2214.01 1327.06 2217.96 1282.55 2224.1 1238.22C2230.07 1195.19 2237.43 1152.03 2248.66 1109.56C2258.65 1071.83 2272.61 1034.43 2293.86 999.254C2304.47 981.714 2316.93 964.813 2331.42 948.859C2345.97 932.842 2362.54 917.22 2383.62 905.613C2388.73 902.798 2394.11 900.284 2399.71 898.041C2400.12 897.875 2399.76 897.421 2399.34 897.579Z" fill="white"/>
<path d="M2400.13 1495.34V1564.47C2400.13 1717.51 2322.83 1816.01 2322.83 1816.01H2083.48C2083.48 1816.01 2006.17 1717.51 2006.17 1564.47V1495.34H2400.13Z" fill="white"/>
<path d="M259.521 1385.84C248.822 1392.89 237.899 1400.15 231.165 1409.5C224.432 1418.85 222.636 1430.88 230.38 1439.79C233.1 1442.92 236.825 1445.5 240.833 1447.74C253.626 1454.91 270.07 1458.83 285.979 1457.25C301.893 1455.67 316.905 1448.19 323.349 1437.33C327.122 1430.97 327.908 1423.89 330.414 1417.19C337.933 1397.11 363.873 1380.74 392.063 1381.25" fill="white"/>
<path d="M492.177 1454.72C469.257 1469.35 428.68 1468.2 403.9 1456.85C369.425 1441.06 351.309 1412.23 313.276 1399.26C299.082 1394.43 282.895 1392.16 267.948 1395.35C252.728 1398.6 240.384 1407.04 226.383 1412.7C255.026 1364.57 332.114 1344.7 362.468 1344.8C419.012 1344.98 473.847 1372.9 496.511 1413.05C504.265 1426.78 507.108 1445.19 492.177 1454.72Z" fill="white"/>
<path d="M759.281 1287.6C780.336 1281.98 804.448 1280.13 824.697 1287.19C835.935 1291.11 845.207 1297.47 854.987 1303.13C872.686 1313.38 896.269 1321.82 917.046 1315.47C936.103 1309.64 945.546 1292.05 940.506 1277.27C935.467 1262.49 918.473 1251.01 899.16 1245.66C879.847 1240.3 858.487 1240.36 838.078 1242.58" fill="white"/>
<path d="M598.159 1332.11C554.029 1316.18 558.341 1271.13 560.522 1243.09C564.001 1198.32 566.304 1152.75 580.396 1108.96C599.463 1049.75 651.706 992.519 740.919 981.875C767.003 978.765 794.514 977.462 819.85 983.431C845.191 989.404 867.86 1004.09 871.211 1022.16C872.002 1026.43 871.633 1030.96 868.384 1034.57C864.531 1038.85 857.397 1041.09 850.781 1043.31C785.985 1065.02 736.5 1106.37 718.079 1154.22C705.013 1188.16 707.038 1224.35 694.635 1258.42C682.237 1292.48 649.066 1326.73 598.159 1332.11Z" fill="white"/>
<path d="M650.509 1442.14C723.754 1442.95 723.011 1393.74 740.871 1376.93C772.24 1347.38 775.559 1306.5 804.379 1275.64C824.633 1253.96 851.454 1240.73 886.062 1242.51C870.971 1234.14 745.119 1225.46 718.068 1237.2C687.704 1250.38 671.944 1266.43 657.766 1289.76C641.595 1316.36 582.614 1415.21 650.509 1442.14Z" fill="white"/>
<path d="M500.23 1314.63C472.239 1312.98 449.965 1295.72 438.443 1276.81C411.819 1233.08 416.853 1182.81 379.21 1142.21C359.651 1121.1 333.038 1104.1 311.961 1083.82C282.163 1055.14 267.531 1014.41 290.393 980.888C324.883 930.311 397.904 953.249 442.232 982.724C503.613 1023.54 554.237 1083.04 568.292 1141.07C577.515 1179.18 591.789 1274.67 500.23 1314.63Z" fill="white"/>
<path d="M253.087 1206.89C225.96 1205.69 179.842 1210.08 154.484 1217.48C143.834 1223.53 124.676 1235.94 114.661 1255.08C104.652 1274.23 109.573 1298.27 129.955 1311.89C145.704 1322.41 168.021 1325.59 188.98 1324.63C199.203 1324.16 209.608 1322.74 218.42 1318.78C240.859 1308.69 246.059 1286.36 258.719 1269.07C276.002 1245.48 311.042 1229.99 346.649 1230.21" fill="white"/>
<path d="M154.49 1217.48C204.141 1210.67 256.891 1225.64 292.173 1252.98C308.771 1265.84 324.707 1282.41 348.354 1283.98C372.781 1285.61 403.622 1287.28 404.477 1249.45C405.129 1220.73 381.636 1213.35 361.009 1203.3C340.381 1193.26 315.424 1189.64 290.97 1188.27C262.332 1186.67 192.742 1188.2 154.49 1217.48Z" fill="white"/>
<path d="M854.666 1237.35C821.939 1235.44 789.56 1241.26 762.525 1255.18C735.612 1269.04 715.604 1289 700.534 1310.29C682.787 1335.35 671.5 1362.56 662.725 1389.99C652.267 1422.69 645.293 1455.94 639.116 1489.2C632.97 1522.29 627.749 1555.48 621.4 1588.56C620.641 1592.51 619.957 1596.47 619.23 1600.43C619.006 1601.67 621.518 1602.24 621.828 1600.96C629.496 1569.15 634.204 1536.95 639.896 1504.92C645.779 1471.82 652.166 1438.72 661.485 1406.04C669.608 1377.56 679.692 1349.07 696.099 1322.52C709.785 1300.36 727.997 1279.04 753.295 1263.12C778.145 1247.48 808.985 1238.93 841.594 1238.41C845.955 1238.35 850.31 1238.42 854.666 1238.6C855.756 1238.64 855.74 1237.41 854.666 1237.35Z" fill="white"/>
<path d="M337.874 997.726C355.782 997.991 371.862 1007.06 384.356 1015.71C400.094 1026.61 413.225 1039.58 424.255 1053.23C436.183 1068 444.15 1083.89 451.327 1100.21C459.899 1119.7 466.857 1139.58 472.602 1159.63C484.225 1200.19 490.809 1241.42 495.709 1282.69C500.861 1326.05 504.783 1369.5 507.664 1412.98C510.566 1456.8 512.137 1500.65 513.318 1544.52C513.462 1549.93 513.59 1555.34 513.703 1560.75C513.735 1562.18 516.706 1562.19 516.711 1560.75C516.823 1515.95 515.22 1471.16 512.457 1426.41C509.705 1381.84 505.788 1337.31 500.711 1292.85C495.96 1251.26 489.852 1209.67 478.897 1168.69C473.382 1148.06 466.627 1127.61 458.205 1107.52C451.135 1090.66 443.525 1073.68 431.982 1058.17C421.54 1044.13 408.704 1030.86 393.634 1019.33C381.31 1009.89 366.294 1000.37 348.691 997.055C345.153 996.388 341.53 996.033 337.874 996.033C336.399 996.037 336.399 997.703 337.874 997.726Z" fill="white"/>
<path d="M212.301 1193.39C239.123 1193.58 265.672 1197.94 289.778 1206.69C310.022 1214.04 328.213 1224.19 344.036 1236.02C363.948 1250.92 380.247 1268.38 392.121 1287.37C403.376 1305.37 411.093 1324.52 417.201 1343.8C426.211 1372.22 431.704 1401.21 435.793 1430.22C441.682 1472.03 444.359 1514.01 446.475 1556C446.791 1562.21 447.01 1568.43 447.507 1574.64C447.603 1575.81 449.954 1575.83 449.981 1574.64C450.467 1550.58 448.688 1526.38 446.967 1502.35C445.513 1482.09 443.611 1461.86 441.008 1441.66C437.064 1411.12 431.742 1380.56 422.871 1350.55C416.837 1330.16 409.099 1309.93 397.77 1290.76C386.986 1272.52 372.386 1255.7 354.371 1240.88C322.938 1215.03 280.891 1196.66 233.661 1192.85C226.57 1192.28 219.441 1192.03 212.306 1192.05C211.131 1192.05 211.131 1193.38 212.301 1193.39Z" fill="white"/>
<path d="M321.634 1363.36C348.477 1360.89 376.805 1361.9 401.399 1370.95C422.149 1378.6 439.004 1391.04 451.472 1405.35C462.999 1418.58 470.336 1433.23 476.006 1448.32C482.344 1465.19 486.833 1482.46 489.307 1499.88C492.669 1523.58 491.6 1547.1 487.293 1570.68C487.132 1571.57 488.88 1571.99 489.163 1571.07C495.592 1550.16 495.763 1528.06 493.358 1506.79C491.279 1488.37 486.967 1470.06 480.565 1452.19C475.082 1436.87 468.113 1421.79 457.035 1408.15C445.139 1393.5 428.963 1380.36 408.731 1371.85C382.208 1360.7 351.133 1359.23 321.495 1362.61C320.929 1362.67 321.057 1363.41 321.634 1363.36Z" fill="white"/>
<path d="M767.687 1009.07C745.071 1017.85 726.939 1031.44 711.415 1046.23C695.58 1061.32 681.98 1077.62 670.282 1094.63C646.571 1129.11 630.731 1166.28 619.396 1203.95C606.972 1245.25 599.362 1287.44 592.821 1329.44C585.831 1374.32 581.155 1419.39 578.787 1464.52C576.404 1510 576.26 1555.57 578.75 1601.05C579.06 1606.7 579.6 1612.33 580.129 1617.98C580.209 1618.83 581.972 1618.85 581.946 1617.98C580.46 1572.99 578.969 1528.1 580.674 1483.1C582.357 1438.55 586.301 1394.04 592.447 1349.71C598.411 1306.68 605.775 1263.52 617.008 1221.05C626.99 1183.32 640.954 1145.92 662.207 1110.74C672.81 1093.2 685.277 1076.3 699.765 1060.35C714.311 1044.33 730.883 1028.71 751.96 1017.1C757.069 1014.29 762.45 1011.77 768.051 1009.53C768.462 1009.37 768.099 1008.91 767.687 1009.07Z" fill="white"/>
<path d="M367.651 1550.88V1594.39C367.651 1766.93 449.505 1816.01 449.505 1816.01H629.726C629.726 1816.01 711.58 1766.93 711.58 1594.39V1550.88H367.651Z" fill="white"/>
<path d="M1888.76 891.337C1820.88 891.337 1765.84 850.682 1765.84 800.531C1765.84 750.38 1820.88 709.724 1888.76 709.724H2160.96C2229.06 709.724 2287.05 670.608 2289.47 620.335C2292.01 567.555 2234.85 524.179 2163.97 524.179H556.001C484.658 524.179 426.825 566.904 426.825 619.609C426.825 672.314 484.658 715.038 556.001 715.038H791.879C858.588 715.038 915.401 753.357 917.768 802.608C920.258 854.31 864.258 896.805 794.829 896.805H316.75C205.808 896.805 115.874 963.245 115.874 1045.2C115.874 1127.16 205.808 1193.6 316.75 1193.6H1383.98L2216.27 1191.92H2352.7C2465.05 1191.92 2556.13 1124.63 2556.13 1041.63C2556.13 958.63 2465.05 891.341 2352.7 891.341H1888.76V891.337Z" stroke="white" stroke-width="2" stroke-linecap="round" stroke-linejoin="round" stroke-dasharray="5.99 5.99"/>
<path d="M1514.02 91.6395C1514.02 98.7813 1506.19 104.569 1496.52 104.569C1486.86 104.569 1479.02 98.7813 1479.02 91.6395C1479.02 84.4977 1486.86 78.71 1496.52 78.71C1506.19 78.714 1514.02 84.5016 1514.02 91.6395Z" stroke="white" stroke-width="2" stroke-miterlimit="10" stroke-linecap="round" stroke-linejoin="round"/>
<path d="M2457.96 457.945C2457.96 465.087 2450.12 470.874 2440.46 470.874C2430.79 470.874 2422.95 465.087 2422.95 457.945C2422.95 450.803 2430.79 445.015 2440.46 445.015C2450.12 445.015 2457.96 450.803 2457.96 457.945Z" stroke="white" stroke-width="2" stroke-miterlimit="10" stroke-linecap="round" stroke-linejoin="round"/>
<path d="M476.53 75.753H568.912" stroke="white" stroke-width="2" stroke-miterlimit="10" stroke-linecap="round" stroke-linejoin="round"/>
<path d="M550.32 107.53H622.801" stroke="white" stroke-width="2" stroke-miterlimit="10" stroke-linecap="round" stroke-linejoin="round"/>
<path d="M2154.49 224.468H2246.88" stroke="white" stroke-width="2" stroke-miterlimit="10" stroke-linecap="round" stroke-linejoin="round"/>
<path d="M2228.28 256.245H2300.77" stroke="white" stroke-width="2" stroke-miterlimit="10" stroke-linecap="round" stroke-linejoin="round"/>
<path d="M2397.05 1403.53H2489.43" stroke="white" stroke-width="2" stroke-miterlimit="10" stroke-linecap="round" stroke-linejoin="round"/>
<path d="M2470.84 1435.31H2543.32" stroke="white" stroke-width="2" stroke-miterlimit="10" stroke-linecap="round" stroke-linejoin="round"/>
<path d="M830.33 1560.43H922.717" stroke="white" stroke-width="2" stroke-miterlimit="10" stroke-linecap="round" stroke-linejoin="round"/>
<path d="M904.119 1592.21H976.605" stroke="white" stroke-width="2" stroke-miterlimit="10" stroke-linecap="round" stroke-linejoin="round"/>
<path d="M94.0651 1811.93C116.36 1811.93 138.661 1811.93 160.956 1811.93C221.092 1811.93 281.223 1811.93 341.359 1811.93C430.513 1811.93 519.667 1811.93 608.821 1811.93C717.592 1811.93 826.364 1811.93 935.136 1811.93C1053.86 1811.93 1172.58 1811.93 1291.3 1811.93C1411.95 1811.93 1532.61 1811.93 1653.26 1811.93C1764.99 1811.93 1876.72 1811.93 1988.45 1811.93C2083.21 1811.93 2177.96 1811.93 2272.72 1811.93C2340.85 1811.93 2408.98 1811.93 2477.1 1811.93C2509.3 1811.93 2541.52 1812.24 2573.71 1811.93C2575.11 1811.91 2576.52 1811.93 2577.93 1811.93C2583.09 1811.93 2583.1 1806 2577.93 1806C2555.63 1806 2533.33 1806 2511.04 1806C2450.9 1806 2390.77 1806 2330.64 1806C2241.48 1806 2152.33 1806 2063.17 1806C1954.4 1806 1845.63 1806 1736.86 1806C1618.14 1806 1499.42 1806 1380.7 1806C1260.05 1806 1139.39 1806 1018.74 1806C907.005 1806 795.273 1806 683.546 1806C588.786 1806 494.031 1806 399.272 1806C331.146 1806 263.016 1806 194.89 1806C162.698 1806 130.474 1805.69 98.2869 1806C96.8814 1806.02 95.4706 1806 94.0651 1806C88.9028 1806 88.8975 1811.93 94.0651 1811.93Z" fill="#2D4773"/>
<path d="M179.831 1303.26V268.033C179.831 206.145 247.743 155.975 331.515 155.975H1493.5C1577.27 155.975 1645.18 206.145 1645.18 268.033V1303.26C1645.18 1365.15 1577.27 1415.32 1493.5 1415.32H331.52C247.743 1415.32 179.831 1365.15 179.831 1303.26Z" stroke="white" stroke-width="1.9353" stroke-miterlimit="10"/>
<path d="M1441.54 1377.3H383.48C299.708 1377.3 231.796 1327.13 231.796 1265.24V306.048C231.796 244.16 299.708 193.99 383.48 193.99H1441.54C1525.32 193.99 1593.23 244.16 1593.23 306.048V1265.24C1593.23 1327.13 1525.32 1377.3 1441.54 1377.3Z" fill="white"/>
<path d="M231.796 1265.79C231.796 1327.38 300.039 1377.3 384.218 1377.3H1440.81C1524.99 1377.3 1593.23 1327.38 1593.23 1265.79H231.796Z" fill="#25A38B"/>
<path d="M439.672 293.162C439.672 282.467 427.819 273.797 413.203 273.797C398.588 273.797 386.735 282.467 386.735 293.162C386.735 303.857 398.588 312.527 413.203 312.527C427.819 312.527 439.672 303.857 439.672 293.162Z" fill="#FC74AF"/>
<path d="M624.954 293.162C624.954 282.467 613.101 273.797 598.485 273.797C583.87 273.797 572.017 282.467 572.017 293.162C572.017 303.857 583.87 312.527 598.485 312.527C613.107 312.527 624.954 303.857 624.954 293.162Z" fill="#25A38B"/>
<path opacity="0.37" d="M1475.53 382.089H305.527V1103.04H1475.53V382.089Z" fill="#E3DEFF"/>
<path d="M295.78 489.11C308.499 489.11 1478.58 489.11 1478.58 489.11" stroke="white" stroke-width="1.2711" stroke-miterlimit="10"/>
<path d="M295.78 574.216C308.499 574.216 1478.58 574.216 1478.58 574.216" stroke="white" stroke-width="1.2711" stroke-miterlimit="10"/>
<path d="M295.78 659.321C308.499 659.321 1478.58 659.321 1478.58 659.321" stroke="white" stroke-width="1.2711" stroke-miterlimit="10"/>
<path d="M295.78 744.427C308.499 744.427 1478.58 744.427 1478.58 744.427" stroke="white" stroke-width="1.2711" stroke-miterlimit="10"/>
<path d="M295.78 829.533C308.499 829.533 1478.58 829.533 1478.58 829.533" stroke="white" stroke-width="1.2711" stroke-miterlimit="10"/>
<path d="M295.78 914.638C308.499 914.638 1478.58 914.638 1478.58 914.638" stroke="white" stroke-width="1.2711" stroke-miterlimit="10"/>
<path d="M295.78 999.744C308.499 999.744 1478.58 999.744 1478.58 999.744" stroke="white" stroke-width="1.2711" stroke-miterlimit="10"/>
<path d="M691.391 652.886H451.91V1103.03H691.391V652.886Z" fill="#2D4773"/>
<path d="M691.391 652.886H475.066V1103.03H691.391V652.886Z" fill="#B6ACE9"/>
<path d="M1005.16 707.857H765.683V1103.04H1005.16V707.857Z" fill="#2D4773"/>
<path d="M1005.16 707.857H790.939V1103.04H1005.16V707.857Z" fill="#25A38B"/>
<path d="M1327.32 490.954H1087.84V1103.03H1327.32V490.954Z" fill="#2D4773"/>
<path d="M1327.32 490.954H1118.34V1103.03H1327.32V490.954Z" fill="#B6ACE9"/>
<path d="M1219.51 342.614V489.682" stroke="#FC74AF" stroke-width="1.0983" stroke-miterlimit="10"/>
<path d="M1129.73 400.289H1221.46V365.682H1129.73L1147.29 382.985L1129.73 400.289Z" fill="#FC74AF"/>
<path d="M1272.18 411.177H1294.08V394.999H1272.18V411.177Z" fill="#25A38B"/>
<path d="M1237.33 411.177H1259.23V394.999H1237.33V411.177Z" fill="#25A38B"/>
<path d="M1237.33 435.191H1259.23V419.012H1237.33V435.191Z" fill="#25A38B"/>
<path d="M950.84 540.004C1020.07 488.856 1020.07 405.929 950.84 354.782C881.606 303.634 769.355 303.634 700.121 354.782C630.886 405.929 630.886 488.856 700.121 540.004C769.355 591.151 881.606 591.151 950.84 540.004Z" fill="#E3DEFF"/>
<path d="M668.498 509.083L833.162 413.088L813.689 393.029L912.713 405.145L913.146 481.186L888.387 458.225L715.087 559.257C715.087 559.257 669.053 526.825 668.498 509.083Z" fill="white"/>
<path d="M1067.28 365.682C1100.84 365.682 1128.04 344.641 1128.04 318.685C1128.04 292.73 1100.84 271.689 1067.28 271.689C1033.73 271.689 1006.52 292.73 1006.52 318.685C1006.52 344.641 1033.73 365.682 1067.28 365.682Z" fill="#25A38B"/>
<path d="M1013.47 340.822L1069.91 306.376L1063.24 299.179L1097.18 303.525L1097.33 330.81L1088.84 322.57L1029.44 358.824C1029.44 358.824 1013.67 347.19 1013.47 340.822Z" fill="white"/>
<path d="M524.562 523.883C554.557 523.883 578.873 505.92 578.873 483.76C578.873 461.601 554.557 443.638 524.562 443.638C494.567 443.638 470.251 461.601 470.251 483.76C470.251 505.92 494.567 523.883 524.562 523.883Z" fill="#FC74AF"/>
<path d="M476.471 502.659L526.913 473.251L520.944 467.104L551.282 470.815L551.415 494.112L543.832 487.077L490.74 518.029C490.74 518.029 476.637 508.096 476.471 502.659Z" fill="white"/>
<path d="M1842.54 323.064C1861.71 309.534 1873.67 290.477 1873.67 269.344C1873.67 228.309 1828.64 195.04 1773.09 195.04C1717.53 195.04 1672.51 228.305 1672.51 269.344C1672.51 310.383 1717.53 343.648 1773.09 343.648C1791.1 343.648 1807.99 340.134 1822.61 334.007L1822.51 334.063L1852.64 346.459L1842.63 323.008L1842.54 323.064Z" fill="white"/>
<path d="M1773.09 148.786V174.901" stroke="white" stroke-miterlimit="10" stroke-linecap="round" stroke-linejoin="round"/>
<path d="M1935.28 268.606H1899.93" stroke="white" stroke-miterlimit="10" stroke-linecap="round" stroke-linejoin="round"/>
<path d="M1646.25 268.606H1610.9" stroke="white" stroke-miterlimit="10" stroke-linecap="round" stroke-linejoin="round"/>
<path d="M1862.78 202.344L1887.77 183.879" stroke="white" stroke-miterlimit="10" stroke-linecap="round" stroke-linejoin="round"/>
<path d="M1683.4 202.344L1658.4 183.879" stroke="white" stroke-miterlimit="10" stroke-linecap="round" stroke-linejoin="round"/>
<path d="M1778.72 306.869C1778.66 305.949 1777.78 291.235 1779.37 278.337C1777.41 278.507 1775.32 278.598 1773.09 278.598C1770.85 278.598 1768.76 278.507 1766.8 278.337C1768.39 291.235 1767.51 305.949 1767.45 306.869L1766.57 306.838C1766.59 306.613 1767.51 291.389 1765.88 278.251C1751.16 276.739 1744.57 270.58 1743.39 264.768C1742.7 261.369 1744.27 257.99 1747.12 256.726C1748.86 255.961 1750.95 255.807 1753.18 256.276C1756.69 257.019 1760.01 259.249 1762.09 262.246C1764.48 265.704 1765.9 271.444 1766.72 277.678C1768.69 277.856 1770.81 277.955 1773.08 277.955C1775.35 277.955 1777.47 277.86 1779.45 277.678C1780.26 271.444 1781.68 265.704 1784.07 262.246C1786.15 259.253 1789.48 257.019 1792.98 256.276C1795.21 255.803 1797.3 255.961 1799.04 256.726C1801.89 257.986 1803.46 261.369 1802.77 264.768C1801.59 270.58 1795 276.743 1780.28 278.251C1778.65 291.389 1779.57 306.613 1779.59 306.838L1778.72 306.869ZM1795.45 256.659C1794.73 256.659 1793.99 256.738 1793.23 256.9C1789.96 257.595 1786.83 259.703 1784.86 262.542C1782.56 265.866 1781.18 271.468 1780.37 277.587C1794.47 276.087 1800.78 270.213 1801.91 264.67C1802.54 261.571 1801.12 258.396 1798.59 257.279C1797.66 256.869 1796.59 256.659 1795.45 256.659ZM1750.73 256.659C1749.58 256.659 1748.51 256.869 1747.58 257.283C1745.06 258.396 1743.63 261.575 1744.26 264.674C1745.39 270.217 1751.7 276.091 1765.8 277.591C1764.99 271.472 1763.62 265.87 1761.31 262.546C1759.35 259.707 1756.21 257.599 1752.94 256.904C1752.18 256.738 1751.44 256.659 1750.73 256.659Z" fill="white"/>
<g opacity="0.55">
<path d="M1822.61 257.642C1819.87 272.672 1803.45 288.235 1773.09 288.235C1742.73 288.235 1726.91 271.946 1723.56 257.642C1724.13 264.879 1727.54 271.551 1732.98 277.058C1740.07 284.942 1758.47 293.845 1758.47 299.179V305.27C1758.47 306.486 1759.81 307.473 1761.45 307.473H1769.43H1776.75H1784.72C1786.37 307.473 1787.71 306.486 1787.71 305.27V299.179C1787.71 293.845 1806.11 284.942 1813.19 277.058C1818.63 271.551 1822.04 264.879 1822.61 257.642Z" fill="#FFCD5C"/>
</g>
<path d="M1788.88 301.78H1757.29V312.902C1757.29 314.718 1757.99 316.494 1759.31 318.03C1761.8 320.928 1766.12 322.685 1770.77 322.685H1775.4C1780.04 322.685 1784.37 320.928 1786.86 318.03C1788.17 316.498 1788.87 314.718 1788.87 312.902V301.78H1788.88Z" fill="#2D4773"/>
<path d="M1788.88 309.27C1788.79 309.27 1788.7 309.266 1788.61 309.254L1757.03 306.02C1755.95 305.91 1755.19 305.176 1755.34 304.378C1755.49 303.581 1756.49 303.024 1757.57 303.134L1789.15 306.368C1790.23 306.478 1790.98 307.213 1790.83 308.01C1790.69 308.741 1789.85 309.27 1788.88 309.27Z" fill="#25A38B"/>
<path d="M1788.88 314.358C1788.79 314.358 1788.7 314.355 1788.61 314.343L1757.03 311.109C1755.95 310.999 1755.19 310.264 1755.34 309.467C1755.49 308.669 1756.49 308.117 1757.57 308.223L1789.15 311.457C1790.23 311.567 1790.98 312.302 1790.83 313.099C1790.69 313.833 1789.85 314.358 1788.88 314.358Z" fill="#25A38B"/>
<path d="M1787.62 319.364C1787.53 319.364 1787.44 319.36 1787.35 319.349L1757.41 316.285C1756.33 316.175 1755.58 315.44 1755.73 314.643C1755.88 313.845 1756.88 313.289 1757.95 313.399L1787.89 316.463C1788.97 316.573 1789.72 317.308 1789.57 318.105C1789.43 318.835 1788.59 319.364 1787.62 319.364Z" fill="#25A38B"/>
<path d="M2051.59 397.873C2052.34 447.459 2011.19 498.23 1928.62 496.887L1869.79 567.555L1831.79 412.046C1830.03 401.545 1855.68 376.475 1868.13 371.185C1902.22 356.775 1920.87 344.3 1959.35 350.221C1959.35 350.221 2050.63 333.798 2051.59 397.873Z" fill="#2D4773"/>
<path d="M2019.37 380.739C2009.19 361.852 2013.58 339.088 2030.47 323.04C2036.87 316.968 2045.34 311.674 2055.51 310.02C2069.61 307.734 2084.18 312.87 2095 319.917C2106.74 327.556 2115.7 337.797 2118.57 349.156C2121.44 360.514 2117.76 372.946 2107.41 381.608C2102.15 386.01 2095.4 389.326 2088.3 391.955C2077.54 395.939 2065.38 398.469 2053.47 397.182C2041.57 395.895 2030.09 390.222 2026.18 381.813L2019.37 380.739Z" fill="#2D4773"/>
<path d="M1840.67 505.217C1855.3 505.217 1867.16 496.457 1867.16 485.651C1867.16 474.846 1855.3 466.086 1840.67 466.086C1826.04 466.086 1814.19 474.846 1814.19 485.651C1814.19 496.457 1826.04 505.217 1840.67 505.217Z" fill="#25A38B"/>
<path d="M1951.24 448.478C1952.42 449.567 1969.39 449.39 1971.28 449.382C1979.19 449.354 1997.43 448.111 2000 463.385C2002.61 478.825 1982.69 487.511 1970.71 487.997C1967.25 488.135 1959.27 488.66 1956.93 490.543C1949.72 496.335 1957.35 541.317 1951.8 557.093C1939.55 591.934 1965.59 575.518 1965.59 575.518C1965.59 575.518 1796.54 708.698 1843.2 575.408C1843.2 575.408 1852.97 492.667 1852.4 492.241C1842.76 485.118 1805.3 482.059 1828.85 423.077C1850.66 368.441 1904.92 372.33 1918.71 374.134C1930.34 375.654 1892.65 394.336 1951.24 448.478Z" fill="#FFBBB5"/>
<path d="M1848.08 381.552C1841.61 398.722 1912.72 411.549 1935.35 379.507C1935.35 379.507 1937.87 346.755 1903.57 344.292C1885.87 343.02 1861.2 346.739 1848.08 381.552Z" fill="#2D4773"/>
<path d="M1991.02 467.811C1991.02 467.811 1978.6 448.454 1962.84 474.392Z" fill="#FFBBB5"/>
<path d="M1837.57 453.409L1871.35 465.841C1871.35 465.841 1854.82 474.724 1845.89 469.864C1836.96 465.004 1837.57 453.409 1837.57 453.409Z" fill="white"/>
<path d="M1903.04 430.965C1905.96 433.989 1904.27 423.432 1899.46 421.004C1894.64 418.576 1888.44 419.101 1885.59 422.173C1885.59 422.173 1896 423.697 1903.04 430.965Z" fill="#2D4773"/>
<path d="M1846.39 407.51C1841.54 408.517 1851.81 401.063 1857.62 401.395C1863.44 401.726 1867.84 405.003 1867.44 408.71C1867.44 408.71 1858.03 405.094 1846.39 407.51Z" fill="#2D4773"/>
<path d="M1887.3 441.711C1885.67 444.696 1882.76 446.638 1880.81 446.054C1878.85 445.469 1878.58 442.58 1880.21 439.595C1881.84 436.61 1884.75 434.668 1886.71 435.252C1888.67 435.836 1888.93 438.73 1887.3 441.711Z" fill="#2D4773"/>
<path d="M1856.01 430.704C1854.45 433.555 1851.67 435.41 1849.8 434.853C1847.93 434.297 1847.68 431.533 1849.24 428.683C1850.79 425.832 1853.57 423.977 1855.44 424.533C1857.31 425.09 1857.56 427.854 1856.01 430.704Z" fill="#2D4773"/>
<path d="M1852.39 492.237C1852.39 492.237 1887.66 497.215 1905.46 496.366C1923.27 495.517 1848.08 532.012 1852.39 492.237Z" fill="#FFBBB5"/>
<path d="M1868.51 427.261C1865.53 430.929 1861.59 434.34 1857.27 437.194C1853.22 439.867 1847.59 441.269 1843.83 444.064C1838.98 447.676 1842.75 452.939 1849.32 452.856C1850.94 452.836 1851.72 451.391 1850.63 450.531C1849.14 449.362 1846.72 448.296 1849.07 445.994C1849.65 445.426 1851.48 444.996 1852.31 444.625C1855.07 443.377 1857.69 441.944 1860.12 440.353C1865.22 437.005 1868.62 433.073 1871.4 428.517C1872.29 427.088 1869.65 425.864 1868.51 427.261Z" fill="#2D4773"/>
<path d="M1983.68 493.476C1983.68 482.671 1971.82 473.91 1957.2 473.91C1942.57 473.91 1930.71 482.671 1930.71 493.476C1930.71 504.282 1942.57 513.042 1957.2 513.042C1971.82 513.042 1983.68 504.282 1983.68 493.476Z" fill="#25A38B"/>
<path d="M1871.74 1696.38L1858.91 1763.68C1858.91 1763.68 1838.33 1808.31 1819.23 1791.03C1800.12 1773.76 1781.21 1764.63 1781.21 1764.63L1774.94 1694.66L1871.74 1696.38Z" fill="#FFB3AF"/>
<path d="M1821.74 1698.9L1814.59 1809.91C1814.59 1809.91 1875.06 1816.62 1852.59 1786.72L1869.64 1703.78L1821.74 1698.9Z" fill="#FFBBB5"/>
<path d="M1774.91 1764.27L1698.62 1809.96C1694.72 1812.1 1697.51 1815.71 1703.08 1815.74C1703.08 1815.74 1868 1815.05 1868.24 1813.27C1869.72 1802.22 1862.77 1763.52 1860.09 1753.46C1859.71 1752.02 1842.43 1801.07 1839.35 1796.51C1835.24 1790.44 1787.78 1766.73 1784.27 1764.45C1781.9 1762.9 1777.52 1762.84 1774.91 1764.27Z" fill="#2D4773"/>
<path d="M2185.26 1696.38L2219.88 1763.68C2219.88 1763.68 2240.45 1808.31 2259.56 1791.03C2278.66 1773.76 2297.57 1764.63 2297.57 1764.63L2282.06 1694.66L2185.26 1696.38Z" fill="#FFB3AF"/>
<path d="M2235.27 1698.9L2264.19 1809.91C2264.19 1809.91 2203.73 1816.62 2226.2 1786.72L2187.36 1703.78L2235.27 1698.9Z" fill="#FFBBB5"/>
<path d="M2303.87 1764.27L2380.16 1809.96C2384.07 1812.1 2381.28 1815.71 2375.7 1815.74C2375.7 1815.74 2210.79 1815.05 2210.55 1813.27C2209.07 1802.22 2210.56 1754.77 2212.32 1754.77C2218.75 1754.77 2226.48 1799.82 2239.44 1796.5C2248.11 1794.29 2291.01 1766.73 2294.52 1764.44C2296.89 1762.9 2301.27 1762.84 2303.87 1764.27Z" fill="#2D4773"/>
<path d="M2026.79 806.864C2061.76 852.545 2080.25 886.004 2100.35 944.082C2123.66 1011.44 2319.62 1613.34 2330.62 1735.85C2301.89 1740.97 2181.93 1748.34 2163.78 1747.59C2106.02 1625.32 1945.37 1187.93 1920.6 1110.9C1916.8 1099.06 1892.03 1101.66 1893.96 1113.75C1908.02 1201.71 1912.19 1587.16 1917.48 1737.81C1902.42 1743.48 1757.44 1739.43 1740.04 1737.81C1721.12 1586.94 1662.57 989.704 1814.2 804.566C1883.52 797.495 1956.48 805.316 2026.79 806.864Z" fill="#2D4773"/>
<path d="M1838.03 806.516C1838.03 806.516 1766.52 936.723 1766.52 1096.08C1766.52 1255.43 1779.76 1669.33 1779.76 1669.33" stroke="#E3DEFF" stroke-width="0.3394" stroke-miterlimit="10"/>
<path d="M2239.25 1658.53L1990.45 811.337" stroke="#E3DEFF" stroke-width="0.3394" stroke-miterlimit="10"/>
<path opacity="0.3" d="M1811.54 808.474L2118.75 996.297C2118.75 996.297 2074.12 874.898 2023.41 804.562L1811.54 808.474Z" fill="#2D4773"/>
<path d="M1917.48 1669.33L1734.74 1671.29" stroke="#E3DEFF" stroke-width="0.3394" stroke-miterlimit="10"/>
<path d="M2314.73 1659.55L2124.35 1659.41" stroke="#E3DEFF" stroke-width="0.3394" stroke-miterlimit="10"/>
<path d="M1528.82 680.743C1528.82 680.743 1715.42 871.902 1759.14 849.11C1759.14 849.11 1809.3 822.951 1784.08 716.156C1784.03 705.784 1783.96 698.591 1784.46 696.965C1784.46 696.965 1795.3 591.523 1818.76 569.687C1821.34 567.291 1829.11 562.834 1828.08 562.644C1756.42 549.411 1729.01 682.484 1709.26 744.048C1708.44 746.598 1571.67 648.196 1571.67 648.196C1571.67 648.196 1500.03 578.215 1495.03 582.214C1487.79 588.01 1515.55 619.218 1515.55 619.218C1515.55 619.218 1513.74 622.783 1508.31 624.568C1502.87 626.352 1499.86 629.025 1498.05 634.374C1496.23 639.724 1488.99 642.847 1487.79 645.965C1486.58 649.088 1513.53 672.567 1528.82 680.743Z" fill="#FFBBB5"/>
<path d="M1569.26 647.75C1569.26 647.75 1554.77 617.434 1548.74 618.326C1542.71 619.218 1516.15 627.686 1516.76 635.266C1517.36 642.846 1540.29 636.605 1540.29 636.605C1540.29 636.605 1536.07 653.545 1547.53 655.776C1558.99 658.003 1569.26 647.75 1569.26 647.75Z" fill="#FFBBB5"/>
<path d="M1533.65 635.266C1533.65 635.266 1534.25 642.847 1525.8 644.181C1525.8 644.181 1523.99 652.207 1513.13 650.423C1513.13 650.423 1516.15 653.988 1509.51 654.88C1509.51 654.88 1537.88 677.62 1533.65 635.266Z" fill="#FFBBB5"/>
<path d="M1539.14 620.639C1534 623.055 1528.82 625.349 1523.56 627.509C1521.07 628.681 1518.03 629.538 1515.95 630.782C1513.7 632.08 1512.98 633.577 1514.71 634.682C1516.41 635.902 1519.3 636.771 1522 637.209C1524.79 637.687 1527.73 637.754 1530.7 637.884C1532.13 638.058 1533.74 637.576 1535.82 638.681C1536.85 639.384 1536.67 640.45 1536.48 640.955L1535.95 642.59L1533.52 649.065L1533.34 649.041L1535.01 642.46C1535.11 641.413 1536.06 640.138 1535.03 639.337C1533.86 638.681 1532.18 638.981 1530.71 638.93C1524.79 638.938 1518.23 638.646 1513.43 635.634C1512.3 634.86 1511.67 633.596 1512.14 632.463C1512.59 631.334 1513.75 630.489 1514.94 629.806C1517.4 628.448 1520.25 627.655 1522.9 626.581L1539.06 620.517L1539.14 620.639Z" fill="#2D4773"/>
<path d="M1515.01 618.282C1516.21 618.575 1517.29 618.95 1518.22 619.427C1519.18 619.885 1519.95 620.47 1520.81 620.987C1521.49 621.63 1522.29 622.199 1522.87 622.905C1523.5 623.588 1523.97 624.374 1524.32 625.235L1524.19 625.326C1521.01 623.059 1517.9 620.742 1514.87 618.373L1515.01 618.282Z" fill="#2D4773"/>
<path d="M1502.75 629.538C1505.26 631.034 1507.71 632.503 1510.11 633.979C1512.54 635.432 1514.9 636.94 1517.43 638.279C1519.8 639.739 1522.43 641.121 1524.86 642.385C1526.08 642.993 1527.38 643.47 1528.75 643.573C1530.12 643.743 1531.71 643.569 1532.85 642.748L1533 642.827C1530.88 644.864 1526.8 644.485 1524.18 643.301C1521.42 642.124 1518.85 640.754 1516.32 639.341C1511.32 636.455 1506.72 633.194 1502.62 629.625L1502.75 629.538Z" fill="#2D4773"/>
<path d="M1526.39 644.193C1526.2 646.806 1525.93 650.028 1522.07 651.982C1520.23 652.945 1517.72 652.981 1515.73 652.598C1513.68 652.219 1511.91 651.488 1510.31 650.675C1507.22 648.875 1504.74 646.85 1502.42 644.73C1500.09 642.61 1498.01 640.355 1496.17 637.979L1496.31 637.896C1498.6 639.996 1501 642.033 1503.47 644.027C1505.96 645.993 1508.44 648.002 1511.37 649.586C1514.17 651.117 1518.07 652.44 1521.37 651.066C1524.59 649.684 1525.5 646.723 1526.2 644.165L1526.39 644.193Z" fill="#2D4773"/>
<path d="M1513.83 649.084C1514.16 650.778 1513.96 652.543 1513.18 654.197C1512.78 655.03 1512.36 655.887 1511.39 656.7C1510.95 657.091 1509.87 657.505 1509.35 657.596C1508.72 657.746 1508.08 657.849 1507.43 657.908C1504.86 658.251 1502.28 657.426 1500.35 656.905C1499.38 656.562 1498.27 656.285 1497.15 655.736C1496.07 655.148 1495.5 654.327 1494.96 653.589L1495.1 653.498C1495.84 654.102 1496.65 654.69 1497.63 655.054C1498.61 655.417 1499.72 655.567 1500.79 655.808C1502.91 656.333 1505.08 656.759 1507.29 656.637C1508.36 656.55 1509.55 656.451 1510.3 655.879C1511.06 655.306 1511.6 654.576 1512.06 653.834C1512.92 652.333 1513.59 650.719 1513.65 649.088L1513.83 649.084Z" fill="#2D4773"/>
<path d="M1845.25 560.571C1845.25 560.571 1781.67 557.843 1763.17 585.783C1744.66 613.723 1703.62 738.548 1703.62 738.548L1668.87 715.67L1624.61 775.11C1624.61 775.11 1707.65 868.724 1754.32 858.025C1800.98 847.326 1845.79 598.657 1845.25 560.571Z" fill="#25A38B"/>
<path opacity="0.3" d="M1695.65 766.784C1684.51 781.826 1673.01 796.678 1661.35 811.451C1689.46 836.441 1727.76 864.113 1754.32 858.025C1796.43 848.368 1837.01 644.994 1844.14 577.378C1796.08 641.034 1743.07 702.78 1695.65 766.784Z" fill="#2D4773"/>
<path d="M1844.64 561.953C1846.66 565.57 1763.11 676.957 1765.52 712.421C1767.94 748.154 1799.73 802.477 1797.16 807.851C1797.16 807.851 1940.75 808.656 2030.03 809.449C2093.67 768.316 2065.08 610.785 2043.71 566.517C2043.71 566.517 1973.11 542.715 1955.56 541.764C1955.56 541.764 1820.89 703.463 1844.64 561.953Z" fill="#25A38B"/>
<g opacity="0.3">
<path d="M2047.02 591.219C2047.02 591.219 2031.15 580.817 2012.4 569.557C2011.06 571.239 2009.63 572.897 2008.27 574.575C2017.06 583.233 2014.04 593.225 2009.26 607.074C1983.69 681.295 1971.77 724.34 1929.4 810.425C1981.09 811.293 1967.66 808.893 2030.04 809.445C2093.67 768.316 2068.4 635.488 2047.02 591.219Z" fill="#2D4773"/>
</g>
<path d="M2014.83 1040.69L2202.8 972.953L2080.11 785.647L1892.14 853.382L2014.83 1040.69Z" fill="white"/>
<path opacity="0.3" d="M2014.83 1040.69L2202.8 972.953L2080.11 785.647L1892.14 853.382L2014.83 1040.69Z" fill="white"/>
<path d="M2263.05 741.225C2237.56 773.796 2194.97 815.525 2161.84 846.477C2161.84 846.477 2161.68 846.635 2161.46 846.832C2159.97 848.451 2154.46 854.531 2154.35 854.649C2139.28 869.415 2121.06 887.062 2104.44 902.854C2096 910.789 2087.98 918.29 2080.93 924.725C2080.82 924.844 2080.66 924.923 2080.55 925.002C2066.45 937.951 2056.18 946.518 2054.8 945.768C2051.27 944.031 2063.77 928.673 2071.2 920.461C2064.95 926.344 2058.06 933.174 2052.18 938.543C2045.6 944.425 2040.21 948.492 2038.12 947.584C2034.54 946.044 2045.07 931.397 2054.15 920.935C2055.22 919.672 2056.29 918.487 2057.31 917.422C2056.35 918.251 2055.33 919.159 2054.21 920.225C2043.15 930.41 2023.85 950.624 2020.43 949.044C2015.57 946.794 2036.63 920.067 2040.05 915.684C2036.47 919.593 2015.62 942.412 2011.46 938.622C2009.75 937.082 2017.07 928.081 2024.49 919.119C2031.71 910.473 2039.08 901.946 2038.6 900.287C2037.96 898.037 2031.98 903.485 2027.38 906.328C2025.03 907.828 2023.05 908.578 2022.36 907.354C2021.82 906.367 2026.42 899.814 2033.42 890.852C2051.86 867.362 2086.7 827.093 2088.2 825.395C2088.25 825.356 2088.25 825.356 2088.25 825.356C2110.69 795.865 2136.93 753.464 2152.38 730.684C2135.7 718.998 1949.68 571.977 1949.68 571.977C1949.68 571.977 2008.89 535.498 2098.46 588.677C2180.65 637.513 2233.93 673.952 2260.86 699.574C2276.63 714.498 2275.82 724.881 2263.05 741.225Z" fill="#FFBBB5"/>
<path d="M2152.4 730.668C2148.62 736.223 2123.59 768.679 2118.75 776.097C2146.4 788.36 2197.34 813.464 2224.69 826.078C2240.19 809.967 2261.2 756.211 2272.35 741.948C2285.17 725.572 2276.61 714.482 2260.88 699.555C2233.9 673.96 2180.64 637.497 2098.45 588.685C2008.9 535.498 1949.67 571.953 1949.67 571.953C1949.67 571.953 1870.69 609.561 2152.4 730.668Z" fill="#25A38B"/>
<g opacity="0.22">
<path d="M1799.42 653.826C1832.21 669.183 1863.61 687.936 1888.47 710.104C1900.44 720.783 1911.17 733.373 1913.46 747.412C1915.34 758.951 1909.4 779.331 1887.81 776.129C1866.46 772.963 1863.96 753.602 1864.48 740.668C1865.03 727.34 1869.21 714.237 1875.72 701.833C1889.15 676.195 1911.94 653.743 1936.19 633.17C1965.49 608.318 1998 585.617 2033.1 565.285C2035.12 564.109 2032.27 562.028 2030.27 563.193C1994.53 583.896 1961.47 607.055 1931.77 632.436C1905.57 654.817 1881.15 679.511 1868.53 707.905C1862.38 721.738 1859.07 736.681 1860.83 751.253C1862.27 763.195 1869.72 776.796 1887.67 779.102C1903.03 781.076 1913.68 771.36 1916.73 761.261C1920.71 748.095 1914.66 734.308 1905.71 722.978C1893.97 708.106 1876.83 695.579 1859.73 684.067C1841.64 671.888 1822.1 660.952 1801.44 651.275C1799.26 650.245 1797.25 652.807 1799.42 653.826Z" fill="white"/>
<path d="M2075.27 583.446C2079.43 644.501 2131.26 699.338 2207.77 722.761C2229.17 729.314 2251.83 733.227 2274.92 734.494C2277.49 734.636 2277.48 731.675 2274.92 731.533C2194.25 727.099 2122.58 688.26 2093.37 632.452C2085.16 616.77 2080.42 600.236 2079.28 583.446C2079.15 581.551 2075.14 581.539 2075.27 583.446Z" fill="white"/>
<path d="M2209.36 663.261C2189.3 705.781 2197.13 754.127 2230.17 791.96C2231.57 793.555 2235.04 792.075 2233.64 790.464C2201.12 753.239 2193.49 705.875 2213.23 664.043C2214.08 662.243 2210.21 661.469 2209.36 663.261Z" fill="white"/>
<path d="M1783.12 574.085C1788.04 587.627 1783.52 603.647 1780.32 617.11C1776.22 634.315 1770.62 651.339 1764.23 668.157C1758.52 683.19 1751.45 697.833 1744.67 712.618C1737.3 728.706 1730.32 745.074 1719.54 760.136C1706.47 778.391 1687.57 793.539 1667.11 807.424C1665.21 808.715 1668.04 810.808 1669.94 809.517C1688.65 796.82 1706.24 783.042 1719.13 766.764C1730.46 752.449 1737.84 736.705 1745.02 721.067C1760.11 688.264 1774.67 655.709 1783.28 621.555C1787.08 606.478 1792.51 588.495 1786.98 573.296C1786.32 571.46 1782.45 572.242 1783.12 574.085Z" fill="white"/>
<path d="M1641.87 775.651C1665.7 765.683 1695.69 771.415 1716.08 783.527C1737.54 796.275 1750.73 814.736 1763.37 832.395C1764.58 834.081 1768.04 832.584 1766.83 830.899C1753.15 811.779 1738.55 791.439 1714.01 778.691C1692.7 767.621 1663.37 763.259 1639.85 773.093C1637.6 774.033 1639.62 776.595 1641.87 775.651Z" fill="white"/>
</g>
</svg>
